G04 Layer_Color=20142*
%FSLAX25Y25*%
%MOIN*%
G70*
G01*
G75*
%ADD77R,0.06706X0.04737*%
%ADD78R,0.06850X0.06850*%
G04:AMPARAMS|DCode=79|XSize=16.54mil|YSize=38.98mil|CornerRadius=5.51mil|HoleSize=0mil|Usage=FLASHONLY|Rotation=0.000|XOffset=0mil|YOffset=0mil|HoleType=Round|Shape=RoundedRectangle|*
%AMROUNDEDRECTD79*
21,1,0.01654,0.02795,0,0,0.0*
21,1,0.00551,0.03898,0,0,0.0*
1,1,0.01102,0.00276,-0.01398*
1,1,0.01102,-0.00276,-0.01398*
1,1,0.01102,-0.00276,0.01398*
1,1,0.01102,0.00276,0.01398*
%
%ADD79ROUNDEDRECTD79*%
G04:AMPARAMS|DCode=80|XSize=16.54mil|YSize=38.98mil|CornerRadius=5.51mil|HoleSize=0mil|Usage=FLASHONLY|Rotation=90.000|XOffset=0mil|YOffset=0mil|HoleType=Round|Shape=RoundedRectangle|*
%AMROUNDEDRECTD80*
21,1,0.01654,0.02795,0,0,90.0*
21,1,0.00551,0.03898,0,0,90.0*
1,1,0.01102,0.01398,0.00276*
1,1,0.01102,0.01398,-0.00276*
1,1,0.01102,-0.01398,-0.00276*
1,1,0.01102,-0.01398,0.00276*
%
%ADD80ROUNDEDRECTD80*%
%ADD81R,0.06902X0.05524*%
%ADD82R,0.06902X0.06706*%
%ADD83R,0.06115X0.02375*%
%ADD84R,0.02300X0.05300*%
%ADD85R,0.02965X0.05524*%
%ADD86R,0.03556X0.05721*%
%ADD87R,0.05131X0.11233*%
%ADD88R,0.02769X0.08477*%
%ADD89R,0.06312X0.01981*%
%ADD90R,0.05918X0.07690*%
%ADD91R,0.03950X0.04540*%
%ADD92R,0.18910X0.18910*%
%ADD93R,0.03556X0.01587*%
%ADD94R,0.01587X0.03556*%
G04:AMPARAMS|DCode=95|XSize=19.29mil|YSize=38.98mil|CornerRadius=3.1mil|HoleSize=0mil|Usage=FLASHONLY|Rotation=90.000|XOffset=0mil|YOffset=0mil|HoleType=Round|Shape=RoundedRectangle|*
%AMROUNDEDRECTD95*
21,1,0.01929,0.03278,0,0,90.0*
21,1,0.01309,0.03898,0,0,90.0*
1,1,0.00620,0.01639,0.00655*
1,1,0.00620,0.01639,-0.00655*
1,1,0.00620,-0.01639,-0.00655*
1,1,0.00620,-0.01639,0.00655*
%
%ADD95ROUNDEDRECTD95*%
%ADD96R,0.06800X0.06800*%
%ADD97R,0.02965X0.03162*%
%ADD98R,0.04343X0.03950*%
%ADD99R,0.04737X0.04737*%
%ADD100R,0.03950X0.04343*%
%ADD101R,0.02178X0.01509*%
%ADD102R,0.01981X0.04501*%
%ADD103R,0.01587X0.03162*%
%ADD104R,0.03162X0.01587*%
%ADD105R,0.08674X0.04343*%
%ADD106R,0.16548X0.16548*%
%ADD107R,0.03753X0.03635*%
%ADD108R,0.03753X0.04028*%
%ADD109R,0.04737X0.06902*%
%ADD110R,0.05721X0.05131*%
%ADD111R,0.03320X0.03477*%
%ADD112R,0.03241X0.03398*%
%ADD113R,0.06902X0.04737*%
%ADD114R,0.04737X0.04737*%
%ADD115R,0.03477X0.03320*%
%ADD116R,0.05131X0.05721*%
%ADD117C,0.08674*%
%ADD118O,0.04540X0.05721*%
%ADD119O,0.06902X0.04343*%
%ADD120C,0.07800*%
%ADD121O,0.08800X0.07099*%
%ADD122R,0.08800X0.07099*%
%ADD123C,0.02800*%
%ADD124O,0.08674X0.07099*%
%ADD125C,0.03000*%
D77*
X337759Y294095D02*
D03*
Y300394D02*
D03*
Y287796D02*
D03*
X357051Y300394D02*
D03*
Y287796D02*
D03*
Y294095D02*
D03*
X367259D02*
D03*
Y300394D02*
D03*
Y287796D02*
D03*
X386551Y300394D02*
D03*
Y287796D02*
D03*
Y294095D02*
D03*
D78*
X431500Y171500D02*
D03*
D79*
X428547Y177307D02*
D03*
X430516D02*
D03*
X432484D02*
D03*
X434453D02*
D03*
Y165693D02*
D03*
X432484D02*
D03*
X430516D02*
D03*
X428547D02*
D03*
D80*
X437307Y174453D02*
D03*
Y172484D02*
D03*
Y170516D02*
D03*
Y168547D02*
D03*
X425693D02*
D03*
Y170516D02*
D03*
Y172484D02*
D03*
Y174453D02*
D03*
D81*
X488130Y330417D02*
D03*
Y307583D02*
D03*
D82*
Y322937D02*
D03*
Y315063D02*
D03*
D83*
X477500Y324118D02*
D03*
Y321559D02*
D03*
Y319000D02*
D03*
Y316441D02*
D03*
Y313882D02*
D03*
D84*
X435250Y316550D02*
D03*
X437750D02*
D03*
X440250D02*
D03*
X442750D02*
D03*
X445250D02*
D03*
X447750D02*
D03*
X432750D02*
D03*
X430250D02*
D03*
X427750D02*
D03*
X425250D02*
D03*
X437750Y295450D02*
D03*
X435250D02*
D03*
X432750D02*
D03*
X430250D02*
D03*
X427750D02*
D03*
X425250D02*
D03*
X440250D02*
D03*
X442750D02*
D03*
X445250D02*
D03*
X447750D02*
D03*
D85*
X446260Y248119D02*
D03*
X453740D02*
D03*
Y237881D02*
D03*
X450000D02*
D03*
X446260D02*
D03*
D86*
X162908Y301369D02*
D03*
Y247629D02*
D03*
D87*
X166451Y304125D02*
D03*
Y244873D02*
D03*
D88*
X169601Y302747D02*
D03*
Y246251D02*
D03*
D89*
X170979Y267610D02*
D03*
Y265641D02*
D03*
Y263673D02*
D03*
Y261704D02*
D03*
Y259736D02*
D03*
Y257767D02*
D03*
Y255799D02*
D03*
Y253830D02*
D03*
Y251862D02*
D03*
Y297137D02*
D03*
Y269578D02*
D03*
Y271547D02*
D03*
Y273515D02*
D03*
Y275484D02*
D03*
Y277452D02*
D03*
Y279421D02*
D03*
Y281389D02*
D03*
Y285326D02*
D03*
Y283358D02*
D03*
Y287295D02*
D03*
Y289263D02*
D03*
Y291232D02*
D03*
Y293200D02*
D03*
Y295169D02*
D03*
D90*
X456504Y165500D02*
D03*
X444496D02*
D03*
X406496D02*
D03*
X418504D02*
D03*
D91*
X460843Y314500D02*
D03*
X466157D02*
D03*
X460843Y320500D02*
D03*
X466157D02*
D03*
D92*
X342339Y191519D02*
D03*
D93*
X328835Y201755D02*
D03*
Y200180D02*
D03*
Y198606D02*
D03*
Y197031D02*
D03*
Y195456D02*
D03*
Y193881D02*
D03*
Y192306D02*
D03*
Y190732D02*
D03*
Y189157D02*
D03*
Y187582D02*
D03*
Y186007D02*
D03*
Y184432D02*
D03*
Y182857D02*
D03*
Y181283D02*
D03*
X355843Y201755D02*
D03*
Y200180D02*
D03*
Y198606D02*
D03*
Y197031D02*
D03*
Y195456D02*
D03*
Y193881D02*
D03*
Y192306D02*
D03*
Y190732D02*
D03*
Y189157D02*
D03*
Y187582D02*
D03*
Y186007D02*
D03*
Y184432D02*
D03*
Y182857D02*
D03*
Y181283D02*
D03*
D94*
X352575Y178015D02*
D03*
X351001D02*
D03*
X349426D02*
D03*
X347851D02*
D03*
X346276D02*
D03*
X344701D02*
D03*
X343127D02*
D03*
X341552D02*
D03*
X339977D02*
D03*
X338402D02*
D03*
X336827D02*
D03*
X335253D02*
D03*
X333678D02*
D03*
X332103D02*
D03*
Y205023D02*
D03*
X333678D02*
D03*
X335253D02*
D03*
X336827D02*
D03*
X338402D02*
D03*
X339977D02*
D03*
X341552D02*
D03*
X343127D02*
D03*
X344701D02*
D03*
X346276D02*
D03*
X347851D02*
D03*
X349426D02*
D03*
X351001D02*
D03*
X352575D02*
D03*
D95*
X189831Y224059D02*
D03*
Y221500D02*
D03*
Y218941D02*
D03*
X181169D02*
D03*
Y221500D02*
D03*
Y224059D02*
D03*
D96*
X483000Y292248D02*
D03*
Y260752D02*
D03*
D97*
X446531Y172500D02*
D03*
X450468D02*
D03*
X156751Y235425D02*
D03*
X160688D02*
D03*
X447532Y182500D02*
D03*
X451469D02*
D03*
D98*
X264063Y183398D02*
D03*
Y175917D02*
D03*
X271937Y179657D02*
D03*
X245063Y183398D02*
D03*
Y175917D02*
D03*
X252937Y179657D02*
D03*
D99*
X426000Y284461D02*
D03*
Y279539D02*
D03*
X239500Y182618D02*
D03*
Y177697D02*
D03*
X258500Y182618D02*
D03*
Y177697D02*
D03*
X443500Y190961D02*
D03*
Y186039D02*
D03*
X429500Y187039D02*
D03*
Y191961D02*
D03*
X436500Y186039D02*
D03*
Y190961D02*
D03*
X405000Y279539D02*
D03*
Y284461D02*
D03*
D100*
X415500Y277563D02*
D03*
X411760Y285437D02*
D03*
X419240D02*
D03*
X436500Y277563D02*
D03*
X432760Y285437D02*
D03*
X440240D02*
D03*
D101*
X397567Y243425D02*
D03*
Y245000D02*
D03*
Y246575D02*
D03*
X393433Y243425D02*
D03*
Y245000D02*
D03*
Y246575D02*
D03*
D102*
X395500Y245000D02*
D03*
D103*
X261063Y167760D02*
D03*
X262638D02*
D03*
X264213D02*
D03*
X265787D02*
D03*
X267362D02*
D03*
X268937D02*
D03*
Y155555D02*
D03*
X267362D02*
D03*
X265787D02*
D03*
X264213D02*
D03*
X262638D02*
D03*
X261063D02*
D03*
D104*
X271102Y165594D02*
D03*
Y164020D02*
D03*
Y162445D02*
D03*
Y160870D02*
D03*
Y159295D02*
D03*
Y157720D02*
D03*
X258898D02*
D03*
Y159295D02*
D03*
Y160870D02*
D03*
Y162445D02*
D03*
Y164020D02*
D03*
Y165594D02*
D03*
D105*
X213535Y228800D02*
D03*
Y233800D02*
D03*
Y238800D02*
D03*
Y243800D02*
D03*
Y248800D02*
D03*
Y253800D02*
D03*
Y258800D02*
D03*
Y263800D02*
D03*
Y268800D02*
D03*
Y273800D02*
D03*
Y278800D02*
D03*
Y283800D02*
D03*
Y288800D02*
D03*
Y293800D02*
D03*
Y298800D02*
D03*
Y303800D02*
D03*
Y308800D02*
D03*
Y313800D02*
D03*
Y318800D02*
D03*
X280465Y228800D02*
D03*
Y233800D02*
D03*
Y238800D02*
D03*
Y243800D02*
D03*
Y248800D02*
D03*
Y253800D02*
D03*
Y258800D02*
D03*
Y263800D02*
D03*
Y268800D02*
D03*
Y273800D02*
D03*
Y288800D02*
D03*
Y298800D02*
D03*
Y303800D02*
D03*
Y313800D02*
D03*
Y318800D02*
D03*
Y308800D02*
D03*
Y283800D02*
D03*
Y278800D02*
D03*
Y293800D02*
D03*
D106*
X240595Y288500D02*
D03*
D107*
X306326Y285984D02*
D03*
Y282205D02*
D03*
X312822D02*
D03*
Y285984D02*
D03*
D108*
X306326Y290000D02*
D03*
Y278189D02*
D03*
X312822D02*
D03*
Y290000D02*
D03*
D109*
X437543Y157500D02*
D03*
X429457D02*
D03*
X337296Y214519D02*
D03*
X345382D02*
D03*
X314732Y298189D02*
D03*
X306645D02*
D03*
D110*
X449847Y230500D02*
D03*
X443153D02*
D03*
X398847Y254000D02*
D03*
X392154D02*
D03*
X431153Y325500D02*
D03*
X437847D02*
D03*
X411346Y240000D02*
D03*
X404654D02*
D03*
D111*
X276000Y161390D02*
D03*
Y157925D02*
D03*
D112*
X449500Y191193D02*
D03*
Y187807D02*
D03*
D113*
X201500Y323543D02*
D03*
Y315457D02*
D03*
D114*
X408961Y247000D02*
D03*
X404039D02*
D03*
X187461Y212000D02*
D03*
X182539D02*
D03*
X187961Y231000D02*
D03*
X183039D02*
D03*
X203461Y308500D02*
D03*
X198539D02*
D03*
X448039Y177500D02*
D03*
X452961D02*
D03*
X393039Y236000D02*
D03*
X397961D02*
D03*
D115*
X269732Y150657D02*
D03*
X266268D02*
D03*
D116*
X173500Y223847D02*
D03*
Y217154D02*
D03*
X385500Y237653D02*
D03*
Y244346D02*
D03*
X439000Y239653D02*
D03*
Y246346D02*
D03*
D117*
X355839Y216319D02*
D03*
X447500Y256000D02*
D03*
X377000Y244500D02*
D03*
Y254000D02*
D03*
X461000Y214100D02*
D03*
D118*
X477500Y328842D02*
D03*
Y309157D02*
D03*
D119*
X488130Y305221D02*
D03*
Y332780D02*
D03*
D120*
X308839Y228019D02*
D03*
X318839D02*
D03*
X328839D02*
D03*
X338839D02*
D03*
X348839D02*
D03*
X311339Y148019D02*
D03*
Y158019D02*
D03*
Y168019D02*
D03*
Y178019D02*
D03*
Y188019D02*
D03*
D121*
X387200Y152430D02*
D03*
Y162272D02*
D03*
Y172115D02*
D03*
Y181957D02*
D03*
D122*
Y192000D02*
D03*
D123*
X247000Y282000D02*
D03*
Y287000D02*
D03*
Y292000D02*
D03*
X242000D02*
D03*
Y287000D02*
D03*
Y282000D02*
D03*
X237000Y292000D02*
D03*
Y287000D02*
D03*
Y282000D02*
D03*
D124*
X478500Y247000D02*
D03*
Y237000D02*
D03*
Y227000D02*
D03*
Y217000D02*
D03*
Y207000D02*
D03*
D125*
X433500Y321500D02*
D03*
X409000Y275500D02*
D03*
X444000Y281500D02*
D03*
X437750Y300250D02*
D03*
X275000Y164657D02*
D03*
X273000Y150657D02*
D03*
X261000Y151657D02*
D03*
X272000Y154657D02*
D03*
X262500Y148658D02*
D03*
X450000Y243000D02*
D03*
X454500Y230500D02*
D03*
X439000Y235500D02*
D03*
X443793Y234207D02*
D03*
X456500Y234500D02*
D03*
X433500Y169500D02*
D03*
X434500Y161500D02*
D03*
X438500Y163500D02*
D03*
X406496Y160504D02*
D03*
X456504D02*
D03*
X425500Y162500D02*
D03*
X447039Y190961D02*
D03*
X443000Y171000D02*
D03*
X453500Y172500D02*
D03*
X424500Y178500D02*
D03*
X443000Y159000D02*
D03*
X429500Y169500D02*
D03*
X334339Y199519D02*
D03*
Y183519D02*
D03*
X350339D02*
D03*
Y199519D02*
D03*
X342339Y191519D02*
D03*
X177500Y221500D02*
D03*
X183039Y226539D02*
D03*
X181000Y216000D02*
D03*
X193500Y221500D02*
D03*
X268900Y171358D02*
D03*
X319000Y298500D02*
D03*
X176500Y253000D02*
D03*
X165500Y279500D02*
D03*
X154219Y235425D02*
D03*
X204000Y288500D02*
D03*
X194000Y289500D02*
D03*
X198500Y267000D02*
D03*
X203500Y298000D02*
D03*
X207000Y320500D02*
D03*
X206800Y248800D02*
D03*
X287200Y318800D02*
D03*
X206500Y303000D02*
D03*
X221500Y286000D02*
D03*
X192500Y273500D02*
D03*
X227000Y267500D02*
D03*
X230000Y265000D02*
D03*
X224000Y275000D02*
D03*
X227500Y272000D02*
D03*
X196500Y278000D02*
D03*
X200500Y274500D02*
D03*
X199500Y281000D02*
D03*
X205000Y272000D02*
D03*
X198500Y286500D02*
D03*
X409000Y250500D02*
D03*
X415500Y240000D02*
D03*
X373405Y294095D02*
D03*
X343405D02*
D03*
X391695Y241000D02*
D03*
X395500D02*
D03*
Y249000D02*
D03*
X425000Y157500D02*
D03*
X427500Y147000D02*
D03*
X177000Y256500D02*
D03*
X184000Y261000D02*
D03*
X205000Y259000D02*
D03*
X223500D02*
D03*
X205000Y254500D02*
D03*
X266000Y287500D02*
D03*
Y264000D02*
D03*
X241000Y249000D02*
D03*
X195500Y241000D02*
D03*
X444500Y309500D02*
D03*
X440500Y321000D02*
D03*
X432500Y290500D02*
D03*
X420000Y313000D02*
D03*
X477000Y292000D02*
D03*
X455500Y277500D02*
D03*
X474000Y262000D02*
D03*
X267500Y314000D02*
D03*
X295000Y297000D02*
D03*
X316000Y270000D02*
D03*
X324000Y266500D02*
D03*
X329000Y259000D02*
D03*
X324500D02*
D03*
X221000Y255500D02*
D03*
X331000Y274700D02*
D03*
Y271500D02*
D03*
X154500Y256500D02*
D03*
X148000Y255500D02*
D03*
X162000Y256500D02*
D03*
X148000Y251500D02*
D03*
X355839Y210319D02*
D03*
X344000Y219500D02*
D03*
X336000Y218500D02*
D03*
X330430Y215830D02*
D03*
X326470Y211870D02*
D03*
X324490Y209890D02*
D03*
X322510Y207910D02*
D03*
X328330Y213970D02*
D03*
X435600Y182300D02*
D03*
X364180Y213520D02*
D03*
X417400Y175800D02*
D03*
Y183400D02*
D03*
X421000Y176600D02*
D03*
Y183500D02*
D03*
X427800Y196800D02*
D03*
X363100Y216600D02*
D03*
X353000Y222500D02*
D03*
X370600Y205300D02*
D03*
X366160Y211540D02*
D03*
X368300Y207600D02*
D03*
X322800Y202600D02*
D03*
X320000D02*
D03*
X317200D02*
D03*
X404500Y251000D02*
D03*
X395900Y229000D02*
D03*
X422500Y224300D02*
D03*
X433100Y224100D02*
D03*
X455100Y223800D02*
D03*
X392600Y226800D02*
D03*
X404995Y223995D02*
D03*
X403015Y222015D02*
D03*
X463200Y225000D02*
D03*
X462400Y228500D02*
D03*
X367900Y223600D02*
D03*
X368000Y227900D02*
D03*
X265100Y306100D02*
D03*
X432800Y274900D02*
D03*
X359200Y261800D02*
D03*
X331000Y255800D02*
D03*
X355500Y262800D02*
D03*
X415300Y272700D02*
D03*
X302500Y282500D02*
D03*
X297300Y285400D02*
D03*
X296900Y281000D02*
D03*
X307900Y205100D02*
D03*
X252937Y196337D02*
D03*
X253000Y208100D02*
D03*
X243500Y238700D02*
D03*
X268900Y209800D02*
D03*
X278000Y200900D02*
D03*
X433500Y173500D02*
D03*
X429500D02*
D03*
M02*
