G04 Layer_Color=8150272*
%FSLAX25Y25*%
%MOIN*%
G70*
G01*
G75*
%ADD118O,0.04540X0.05721*%
%ADD119O,0.06902X0.04343*%
%ADD120C,0.07800*%
%ADD121O,0.08800X0.07099*%
%ADD122R,0.08800X0.07099*%
%ADD123C,0.02800*%
%ADD124O,0.08674X0.07099*%
%ADD125C,0.03000*%
D118*
X477500Y328842D02*
D03*
Y309157D02*
D03*
D119*
X488130Y305221D02*
D03*
Y332780D02*
D03*
D120*
X308839Y228019D02*
D03*
X318839D02*
D03*
X328839D02*
D03*
X338839D02*
D03*
X348839D02*
D03*
X311339Y148019D02*
D03*
Y158019D02*
D03*
Y168019D02*
D03*
Y178019D02*
D03*
Y188019D02*
D03*
D121*
X387200Y152430D02*
D03*
Y162272D02*
D03*
Y172115D02*
D03*
Y181957D02*
D03*
D122*
Y192000D02*
D03*
D123*
X247000Y282000D02*
D03*
Y287000D02*
D03*
Y292000D02*
D03*
X242000D02*
D03*
Y287000D02*
D03*
Y282000D02*
D03*
X237000Y292000D02*
D03*
Y287000D02*
D03*
Y282000D02*
D03*
D124*
X478500Y247000D02*
D03*
Y237000D02*
D03*
Y227000D02*
D03*
Y217000D02*
D03*
Y207000D02*
D03*
D125*
X433500Y321500D02*
D03*
X409000Y275500D02*
D03*
X444000Y281500D02*
D03*
X437750Y300250D02*
D03*
X275000Y164657D02*
D03*
X273000Y150657D02*
D03*
X261000Y151657D02*
D03*
X272000Y154657D02*
D03*
X262500Y148658D02*
D03*
X450000Y243000D02*
D03*
X454500Y230500D02*
D03*
X439000Y235500D02*
D03*
X443793Y234207D02*
D03*
X456500Y234500D02*
D03*
X433500Y169500D02*
D03*
X434500Y161500D02*
D03*
X438500Y163500D02*
D03*
X406496Y160504D02*
D03*
X456504D02*
D03*
X425500Y162500D02*
D03*
X447039Y190961D02*
D03*
X443000Y171000D02*
D03*
X453500Y172500D02*
D03*
X424500Y178500D02*
D03*
X443000Y159000D02*
D03*
X429500Y169500D02*
D03*
X334339Y199519D02*
D03*
Y183519D02*
D03*
X350339D02*
D03*
Y199519D02*
D03*
X342339Y191519D02*
D03*
X177500Y221500D02*
D03*
X183039Y226539D02*
D03*
X181000Y216000D02*
D03*
X193500Y221500D02*
D03*
X268900Y171358D02*
D03*
X319000Y298500D02*
D03*
X176500Y253000D02*
D03*
X165500Y279500D02*
D03*
X154219Y235425D02*
D03*
X204000Y288500D02*
D03*
X194000Y289500D02*
D03*
X198500Y267000D02*
D03*
X203500Y298000D02*
D03*
X207000Y320500D02*
D03*
X206800Y248800D02*
D03*
X287200Y318800D02*
D03*
X206500Y303000D02*
D03*
X221500Y286000D02*
D03*
X192500Y273500D02*
D03*
X227000Y267500D02*
D03*
X230000Y265000D02*
D03*
X224000Y275000D02*
D03*
X227500Y272000D02*
D03*
X196500Y278000D02*
D03*
X200500Y274500D02*
D03*
X199500Y281000D02*
D03*
X205000Y272000D02*
D03*
X198500Y286500D02*
D03*
X409000Y250500D02*
D03*
X415500Y240000D02*
D03*
X373405Y294095D02*
D03*
X343405D02*
D03*
X391695Y241000D02*
D03*
X395500D02*
D03*
Y249000D02*
D03*
X425000Y157500D02*
D03*
X427500Y147000D02*
D03*
X177000Y256500D02*
D03*
X184000Y261000D02*
D03*
X205000Y259000D02*
D03*
X223500D02*
D03*
X205000Y254500D02*
D03*
X266000Y287500D02*
D03*
Y264000D02*
D03*
X241000Y249000D02*
D03*
X195500Y241000D02*
D03*
X444500Y309500D02*
D03*
X440500Y321000D02*
D03*
X432500Y290500D02*
D03*
X420000Y313000D02*
D03*
X477000Y292000D02*
D03*
X455500Y277500D02*
D03*
X474000Y262000D02*
D03*
X267500Y314000D02*
D03*
X295000Y297000D02*
D03*
X316000Y270000D02*
D03*
X324000Y266500D02*
D03*
X329000Y259000D02*
D03*
X324500D02*
D03*
X221000Y255500D02*
D03*
X331000Y274700D02*
D03*
Y271500D02*
D03*
X154500Y256500D02*
D03*
X148000Y255500D02*
D03*
X162000Y256500D02*
D03*
X148000Y251500D02*
D03*
X355839Y210319D02*
D03*
X344000Y219500D02*
D03*
X336000Y218500D02*
D03*
X330430Y215830D02*
D03*
X326470Y211870D02*
D03*
X324490Y209890D02*
D03*
X322510Y207910D02*
D03*
X328330Y213970D02*
D03*
X435600Y182300D02*
D03*
X364180Y213520D02*
D03*
X417400Y175800D02*
D03*
Y183400D02*
D03*
X421000Y176600D02*
D03*
Y183500D02*
D03*
X427800Y196800D02*
D03*
X363100Y216600D02*
D03*
X353000Y222500D02*
D03*
X370600Y205300D02*
D03*
X366160Y211540D02*
D03*
X368300Y207600D02*
D03*
X322800Y202600D02*
D03*
X320000D02*
D03*
X317200D02*
D03*
X404500Y251000D02*
D03*
X395900Y229000D02*
D03*
X422500Y224300D02*
D03*
X433100Y224100D02*
D03*
X455100Y223800D02*
D03*
X392600Y226800D02*
D03*
X404995Y223995D02*
D03*
X403015Y222015D02*
D03*
X463200Y225000D02*
D03*
X462400Y228500D02*
D03*
X367900Y223600D02*
D03*
X368000Y227900D02*
D03*
X265100Y306100D02*
D03*
X432800Y274900D02*
D03*
X359200Y261800D02*
D03*
X331000Y255800D02*
D03*
X355500Y262800D02*
D03*
X415300Y272700D02*
D03*
X302500Y282500D02*
D03*
X297300Y285400D02*
D03*
X296900Y281000D02*
D03*
X307900Y205100D02*
D03*
X252937Y196337D02*
D03*
X253000Y208100D02*
D03*
X243500Y238700D02*
D03*
X268900Y209800D02*
D03*
X278000Y200900D02*
D03*
X433500Y173500D02*
D03*
X429500D02*
D03*
M02*
