G04 Layer_Physical_Order=2*
G04 Layer_Color=11436288*
%FSLAX25Y25*%
%MOIN*%
G70*
G01*
G75*
%ADD52C,0.01500*%
%ADD53C,0.01000*%
%ADD54C,0.00800*%
%ADD55C,0.02000*%
%ADD57C,0.03000*%
%ADD58C,0.01200*%
%ADD59O,0.03740X0.04921*%
%ADD60O,0.06102X0.03543*%
%ADD61C,0.07000*%
%ADD62O,0.08000X0.06299*%
%ADD63R,0.08000X0.06299*%
%ADD64C,0.02000*%
%ADD65O,0.07874X0.06299*%
%ADD66C,0.02200*%
G36*
X492000Y335255D02*
X491822Y335111D01*
X491200Y334899D01*
X490807Y335201D01*
X490133Y335480D01*
X489409Y335575D01*
X488630D01*
Y332780D01*
Y329984D01*
X489409D01*
X490133Y330079D01*
X490807Y330359D01*
X491200Y330660D01*
X491822Y330448D01*
X492000Y330304D01*
Y307696D01*
X491822Y307552D01*
X491200Y307340D01*
X490807Y307642D01*
X490133Y307921D01*
X489409Y308016D01*
X488630D01*
Y305221D01*
Y302425D01*
X489409D01*
X490133Y302520D01*
X490807Y302799D01*
X491200Y303101D01*
X491822Y302889D01*
X492000Y302745D01*
Y139000D01*
X208500D01*
X144500Y203000D01*
Y348500D01*
X492000D01*
Y335255D01*
D02*
G37*
%LPC*%
G36*
X195542Y221000D02*
X194000D01*
Y219458D01*
X194319Y219522D01*
X195014Y219986D01*
X195478Y220681D01*
X195542Y221000D01*
D02*
G37*
G36*
X177000Y223542D02*
X176681Y223478D01*
X175986Y223014D01*
X175522Y222319D01*
X175458Y222000D01*
X177000D01*
Y223542D01*
D02*
G37*
G36*
X193000D02*
X192681Y223478D01*
X191986Y223014D01*
X191522Y222319D01*
X191458Y222000D01*
X193000D01*
Y223542D01*
D02*
G37*
G36*
X479287Y221185D02*
X479000D01*
Y217500D01*
X483407D01*
X483330Y218083D01*
X482912Y219093D01*
X482247Y219959D01*
X481380Y220625D01*
X480371Y221043D01*
X479287Y221185D01*
D02*
G37*
G36*
X177000Y221000D02*
X175458D01*
X175522Y220681D01*
X175986Y219986D01*
X176681Y219522D01*
X177000Y219458D01*
Y221000D01*
D02*
G37*
G36*
X193000D02*
X191458D01*
X191522Y220681D01*
X191986Y219986D01*
X192681Y219522D01*
X193000Y219458D01*
Y221000D01*
D02*
G37*
G36*
X194000Y223542D02*
Y222000D01*
X195542D01*
X195478Y222319D01*
X195014Y223014D01*
X194319Y223478D01*
X194000Y223542D01*
D02*
G37*
G36*
X328839Y232154D02*
X327769Y232013D01*
X326771Y231600D01*
X325915Y230943D01*
X325258Y230087D01*
X324845Y229089D01*
X324704Y228019D01*
X324845Y226948D01*
X325258Y225951D01*
X325915Y225095D01*
X326771Y224437D01*
X327769Y224024D01*
X328839Y223884D01*
X329909Y224024D01*
X330907Y224437D01*
X331763Y225095D01*
X332420Y225951D01*
X332834Y226948D01*
X332975Y228019D01*
X332834Y229089D01*
X332420Y230087D01*
X331763Y230943D01*
X330907Y231600D01*
X329909Y232013D01*
X328839Y232154D01*
D02*
G37*
G36*
X183039Y228273D02*
X182376Y228141D01*
X181814Y227765D01*
X181438Y227203D01*
X181306Y226539D01*
X181354Y226296D01*
X180279Y225221D01*
X180058Y224890D01*
X179980Y224500D01*
Y223008D01*
X179180Y222765D01*
X179014Y223014D01*
X178319Y223478D01*
X178000Y223542D01*
Y221500D01*
Y219458D01*
X178319Y219522D01*
X179014Y219986D01*
X179180Y220235D01*
X179980Y219992D01*
Y217363D01*
X179774Y217226D01*
X179399Y216663D01*
X179267Y216000D01*
X179399Y215337D01*
X179774Y214774D01*
X180337Y214399D01*
X181000Y214267D01*
X181663Y214399D01*
X182226Y214774D01*
X182601Y215337D01*
X182733Y216000D01*
X182601Y216663D01*
X182226Y217226D01*
X182020Y217363D01*
Y224078D01*
X182796Y224854D01*
X183039Y224806D01*
X183703Y224938D01*
X184265Y225314D01*
X184641Y225876D01*
X184773Y226539D01*
X184641Y227203D01*
X184265Y227765D01*
X183703Y228141D01*
X183039Y228273D01*
D02*
G37*
G36*
X454000Y230000D02*
X452458D01*
X452522Y229681D01*
X452986Y228986D01*
X453681Y228522D01*
X454000Y228458D01*
Y230000D01*
D02*
G37*
G36*
X479287Y230782D02*
X477713D01*
X476734Y230653D01*
X475822Y230275D01*
X475038Y229674D01*
X474437Y228891D01*
X474059Y227979D01*
X473931Y227000D01*
X474059Y226021D01*
X474437Y225109D01*
X475038Y224326D01*
X475822Y223725D01*
X476734Y223347D01*
X477713Y223218D01*
X479287D01*
X480266Y223347D01*
X481178Y223725D01*
X481962Y224326D01*
X482563Y225109D01*
X482940Y226021D01*
X483069Y227000D01*
X482940Y227979D01*
X482563Y228891D01*
X481962Y229674D01*
X481178Y230275D01*
X480266Y230653D01*
X479287Y230782D01*
D02*
G37*
G36*
X308839Y232154D02*
X307769Y232013D01*
X306771Y231600D01*
X305915Y230943D01*
X305258Y230087D01*
X304845Y229089D01*
X304704Y228019D01*
X304845Y226948D01*
X305258Y225951D01*
X305915Y225095D01*
X306771Y224437D01*
X307769Y224024D01*
X308839Y223884D01*
X309910Y224024D01*
X310907Y224437D01*
X311763Y225095D01*
X312421Y225951D01*
X312834Y226948D01*
X312975Y228019D01*
X312834Y229089D01*
X312421Y230087D01*
X311763Y230943D01*
X310907Y231600D01*
X309910Y232013D01*
X308839Y232154D01*
D02*
G37*
G36*
X318839D02*
X317769Y232013D01*
X316772Y231600D01*
X315915Y230943D01*
X315258Y230087D01*
X314845Y229089D01*
X314704Y228019D01*
X314845Y226948D01*
X315258Y225951D01*
X315915Y225095D01*
X316772Y224437D01*
X317769Y224024D01*
X318839Y223884D01*
X319910Y224024D01*
X320907Y224437D01*
X321763Y225095D01*
X322421Y225951D01*
X322834Y226948D01*
X322974Y228019D01*
X322834Y229089D01*
X322421Y230087D01*
X321763Y230943D01*
X320907Y231600D01*
X319910Y232013D01*
X318839Y232154D01*
D02*
G37*
G36*
X253000Y209833D02*
X252337Y209701D01*
X251774Y209326D01*
X251399Y208763D01*
X251267Y208100D01*
X251399Y207437D01*
X251774Y206874D01*
X251917Y206779D01*
Y197700D01*
X251711Y197563D01*
X251336Y197000D01*
X251204Y196337D01*
X251336Y195674D01*
X251711Y195111D01*
X252274Y194736D01*
X252937Y194604D01*
X253600Y194736D01*
X254163Y195111D01*
X254538Y195674D01*
X254670Y196337D01*
X254538Y197000D01*
X254163Y197563D01*
X253957Y197700D01*
Y206695D01*
X254226Y206874D01*
X254601Y207437D01*
X254733Y208100D01*
X254601Y208763D01*
X254226Y209326D01*
X253663Y209701D01*
X253000Y209833D01*
D02*
G37*
G36*
X268900Y211533D02*
X268237Y211401D01*
X267674Y211026D01*
X267299Y210463D01*
X267167Y209800D01*
X267299Y209137D01*
X267674Y208574D01*
X268237Y208199D01*
X268900Y208067D01*
X268902Y208067D01*
X276316Y200654D01*
X276399Y200237D01*
X276774Y199674D01*
X277337Y199299D01*
X278000Y199167D01*
X278663Y199299D01*
X279226Y199674D01*
X279601Y200237D01*
X279733Y200900D01*
X279601Y201563D01*
X279226Y202126D01*
X278663Y202501D01*
X278000Y202633D01*
X277831Y202600D01*
X270633Y209798D01*
X270633Y209800D01*
X270501Y210463D01*
X270126Y211026D01*
X269563Y211401D01*
X268900Y211533D01*
D02*
G37*
G36*
X479287Y210782D02*
X477713D01*
X476734Y210653D01*
X475822Y210275D01*
X475038Y209674D01*
X474437Y208891D01*
X474059Y207979D01*
X473931Y207000D01*
X474059Y206021D01*
X474437Y205109D01*
X475038Y204326D01*
X475822Y203725D01*
X476734Y203347D01*
X477713Y203218D01*
X479287D01*
X480266Y203347D01*
X481178Y203725D01*
X481962Y204326D01*
X482563Y205109D01*
X482940Y206021D01*
X483069Y207000D01*
X482940Y207979D01*
X482563Y208891D01*
X481962Y209674D01*
X481178Y210275D01*
X480266Y210653D01*
X479287Y210782D01*
D02*
G37*
G36*
X344381Y191019D02*
X342839D01*
Y189477D01*
X343159Y189541D01*
X343853Y190005D01*
X344317Y190700D01*
X344381Y191019D01*
D02*
G37*
G36*
X446539Y193002D02*
X446220Y192939D01*
X445525Y192475D01*
X445061Y191780D01*
X444998Y191461D01*
X446539D01*
Y193002D01*
D02*
G37*
G36*
X447539D02*
Y191461D01*
X449081D01*
X449017Y191780D01*
X448553Y192475D01*
X447859Y192939D01*
X447539Y193002D01*
D02*
G37*
G36*
X363100Y218333D02*
X362437Y218201D01*
X361874Y217826D01*
X361499Y217263D01*
X361367Y216600D01*
X361441Y216227D01*
X359807Y214593D01*
X359564Y214229D01*
X359478Y213800D01*
X359478Y213800D01*
Y210565D01*
X358687Y209774D01*
X357950Y210168D01*
X357980Y210319D01*
X357817Y211138D01*
X357353Y211833D01*
X356659Y212297D01*
X356339Y212361D01*
Y210319D01*
X355839D01*
Y209819D01*
X353798D01*
X353814Y209738D01*
X353347Y208939D01*
X335086D01*
X333999Y210025D01*
Y213280D01*
X333922Y213670D01*
X333701Y214001D01*
X332115Y215587D01*
X332163Y215830D01*
X332031Y216493D01*
X331656Y217056D01*
X331093Y217431D01*
X330430Y217563D01*
X329767Y217431D01*
X329204Y217056D01*
X328829Y216493D01*
X328815Y216423D01*
X328353Y215738D01*
X327922Y215622D01*
X327667Y215571D01*
X327104Y215196D01*
X326729Y214633D01*
X326678Y214378D01*
X326562Y213947D01*
X325877Y213486D01*
X325807Y213472D01*
X325244Y213096D01*
X324869Y212533D01*
X324836Y212370D01*
X324568Y211792D01*
X323990Y211524D01*
X323827Y211492D01*
X323265Y211116D01*
X322889Y210554D01*
X322856Y210390D01*
X322588Y209812D01*
X322010Y209544D01*
X321847Y209512D01*
X321285Y209136D01*
X320909Y208574D01*
X320777Y207910D01*
X320909Y207247D01*
X321285Y206685D01*
X321847Y206309D01*
X322510Y206177D01*
X322753Y206225D01*
X324339Y204639D01*
X324670Y204418D01*
X325060Y204341D01*
X328315D01*
X331458Y201198D01*
X331788Y200977D01*
X331821Y200970D01*
X332252Y200466D01*
X332313Y200099D01*
X332297Y200019D01*
X336381D01*
X336365Y200099D01*
X336831Y200899D01*
X347847D01*
X348313Y200099D01*
X348298Y200019D01*
X352381D01*
X352365Y200099D01*
X352831Y200899D01*
X371219D01*
X371609Y200977D01*
X371940Y201198D01*
X374421Y203679D01*
X374642Y204010D01*
X374720Y204400D01*
Y205700D01*
X374642Y206090D01*
X374421Y206421D01*
X371821Y209021D01*
X371490Y209242D01*
X371100Y209320D01*
X369483D01*
X369284Y209569D01*
X369095Y210120D01*
X369202Y210280D01*
X369280Y210670D01*
Y212409D01*
X369202Y212800D01*
X368981Y213130D01*
X367751Y214361D01*
X367420Y214582D01*
X367030Y214659D01*
X365463D01*
X365406Y214745D01*
X364844Y215121D01*
X364701Y215937D01*
X364833Y216600D01*
X364701Y217263D01*
X364326Y217826D01*
X363763Y218201D01*
X363100Y218333D01*
D02*
G37*
G36*
X335500Y218000D02*
X333958D01*
X334022Y217681D01*
X334486Y216986D01*
X335181Y216522D01*
X335500Y216458D01*
Y218000D01*
D02*
G37*
G36*
X338042D02*
X336500D01*
Y216458D01*
X336819Y216522D01*
X337514Y216986D01*
X337978Y217681D01*
X338042Y218000D01*
D02*
G37*
G36*
X478000Y221185D02*
X477713D01*
X476629Y221043D01*
X475620Y220625D01*
X474753Y219959D01*
X474088Y219093D01*
X473670Y218083D01*
X473593Y217500D01*
X478000D01*
Y221185D01*
D02*
G37*
G36*
X355339Y212361D02*
X355020Y212297D01*
X354325Y211833D01*
X353861Y211138D01*
X353798Y210819D01*
X355339D01*
Y212361D01*
D02*
G37*
G36*
X478000Y216500D02*
X473593D01*
X473670Y215917D01*
X474088Y214907D01*
X474753Y214040D01*
X475620Y213375D01*
X476629Y212957D01*
X477713Y212815D01*
X478000D01*
Y216500D01*
D02*
G37*
G36*
X483407D02*
X479000D01*
Y212815D01*
X479287D01*
X480371Y212957D01*
X481380Y213375D01*
X482247Y214040D01*
X482912Y214907D01*
X483330Y215917D01*
X483407Y216500D01*
D02*
G37*
G36*
X452042Y242500D02*
X450500D01*
Y240958D01*
X450819Y241022D01*
X451514Y241486D01*
X451978Y242181D01*
X452042Y242500D01*
D02*
G37*
G36*
X391195Y243042D02*
X390876Y242978D01*
X390181Y242514D01*
X389717Y241819D01*
X389653Y241500D01*
X391195D01*
Y243042D01*
D02*
G37*
G36*
X396000D02*
Y241500D01*
X397542D01*
X397478Y241819D01*
X397014Y242514D01*
X396319Y242978D01*
X396000Y243042D01*
D02*
G37*
G36*
X415000Y242042D02*
X414681Y241978D01*
X413986Y241514D01*
X413522Y240819D01*
X413458Y240500D01*
X415000D01*
Y242042D01*
D02*
G37*
G36*
X416000D02*
Y240500D01*
X417542D01*
X417478Y240819D01*
X417014Y241514D01*
X416319Y241978D01*
X416000Y242042D01*
D02*
G37*
G36*
X449500Y242500D02*
X447958D01*
X448022Y242181D01*
X448486Y241486D01*
X449181Y241022D01*
X449500Y240958D01*
Y242500D01*
D02*
G37*
G36*
X395000Y243042D02*
X394681Y242978D01*
X393986Y242514D01*
X393209D01*
X392514Y242978D01*
X392195Y243042D01*
Y241000D01*
Y238958D01*
X392514Y239022D01*
X393209Y239486D01*
X393986D01*
X394681Y239022D01*
X395000Y238958D01*
Y241000D01*
Y243042D01*
D02*
G37*
G36*
X206300Y248300D02*
X204758D01*
X204822Y247981D01*
X205286Y247286D01*
X205981Y246822D01*
X206300Y246758D01*
Y248300D01*
D02*
G37*
G36*
X208842D02*
X207300D01*
Y246758D01*
X207619Y246822D01*
X208314Y247286D01*
X208778Y247981D01*
X208842Y248300D01*
D02*
G37*
G36*
X395000Y248500D02*
X393458D01*
X393522Y248181D01*
X393986Y247486D01*
X394681Y247022D01*
X395000Y246958D01*
Y248500D01*
D02*
G37*
G36*
X479287Y250782D02*
X477713D01*
X476734Y250653D01*
X475822Y250275D01*
X475038Y249674D01*
X474437Y248891D01*
X474059Y247979D01*
X473931Y247000D01*
X474059Y246021D01*
X474437Y245109D01*
X475038Y244326D01*
X475822Y243725D01*
X476734Y243347D01*
X477713Y243218D01*
X479287D01*
X480266Y243347D01*
X481178Y243725D01*
X481962Y244326D01*
X482563Y245109D01*
X482940Y246021D01*
X483069Y247000D01*
X482940Y247979D01*
X482563Y248891D01*
X481962Y249674D01*
X481178Y250275D01*
X480266Y250653D01*
X479287Y250782D01*
D02*
G37*
G36*
X449500Y245042D02*
X449181Y244978D01*
X448486Y244514D01*
X448022Y243819D01*
X447958Y243500D01*
X449500D01*
Y245042D01*
D02*
G37*
G36*
X450500D02*
Y243500D01*
X452042D01*
X451978Y243819D01*
X451514Y244514D01*
X450819Y244978D01*
X450500Y245042D01*
D02*
G37*
G36*
X441042Y235000D02*
X439500D01*
Y233458D01*
X439819Y233522D01*
X440514Y233986D01*
X440978Y234681D01*
X441042Y235000D01*
D02*
G37*
G36*
X456500Y236233D02*
X455837Y236101D01*
X455443Y235838D01*
X444306D01*
X443793Y235940D01*
X443130Y235808D01*
X442568Y235432D01*
X442192Y234870D01*
X442060Y234207D01*
X442192Y233543D01*
X442568Y232981D01*
X443130Y232605D01*
X443793Y232473D01*
X444306Y232575D01*
X452472D01*
X452515Y232528D01*
X452827Y231775D01*
X452522Y231319D01*
X452458Y231000D01*
X456542D01*
X456478Y231319D01*
X456173Y231775D01*
X456181Y231962D01*
X456390Y232502D01*
X456490Y232632D01*
X456831Y232700D01*
X457114Y232889D01*
X457163Y232899D01*
X457726Y233274D01*
X458101Y233837D01*
X458233Y234500D01*
X458101Y235163D01*
X457726Y235726D01*
X457163Y236101D01*
X456500Y236233D01*
D02*
G37*
G36*
X153719Y237467D02*
X153400Y237403D01*
X152705Y236939D01*
X152241Y236245D01*
X152178Y235925D01*
X153719D01*
Y237467D01*
D02*
G37*
G36*
Y234925D02*
X152178D01*
X152241Y234606D01*
X152705Y233911D01*
X153400Y233447D01*
X153719Y233384D01*
Y234925D01*
D02*
G37*
G36*
X156261D02*
X154719D01*
Y233384D01*
X155039Y233447D01*
X155733Y233911D01*
X156198Y234606D01*
X156261Y234925D01*
D02*
G37*
G36*
X438500Y235000D02*
X436958D01*
X437022Y234681D01*
X437486Y233986D01*
X438181Y233522D01*
X438500Y233458D01*
Y235000D01*
D02*
G37*
G36*
X154719Y237467D02*
Y235925D01*
X156261D01*
X156198Y236245D01*
X155733Y236939D01*
X155039Y237403D01*
X154719Y237467D01*
D02*
G37*
G36*
X417542Y239500D02*
X416000D01*
Y237958D01*
X416319Y238022D01*
X417014Y238486D01*
X417478Y239181D01*
X417542Y239500D01*
D02*
G37*
G36*
X391195Y240500D02*
X389653D01*
X389717Y240181D01*
X390181Y239486D01*
X390876Y239022D01*
X391195Y238958D01*
Y240500D01*
D02*
G37*
G36*
X397542D02*
X396000D01*
Y238958D01*
X396319Y239022D01*
X397014Y239486D01*
X397478Y240181D01*
X397542Y240500D01*
D02*
G37*
G36*
X438500Y237542D02*
X438181Y237478D01*
X437486Y237014D01*
X437022Y236319D01*
X436958Y236000D01*
X438500D01*
Y237542D01*
D02*
G37*
G36*
X439500D02*
Y236000D01*
X441042D01*
X440978Y236319D01*
X440514Y237014D01*
X439819Y237478D01*
X439500Y237542D01*
D02*
G37*
G36*
X415000Y239500D02*
X413458D01*
X413522Y239181D01*
X413986Y238486D01*
X414681Y238022D01*
X415000Y237958D01*
Y239500D01*
D02*
G37*
G36*
X341839Y191019D02*
X340298D01*
X340361Y190700D01*
X340825Y190005D01*
X341520Y189541D01*
X341839Y189477D01*
Y191019D01*
D02*
G37*
G36*
X405996Y162546D02*
X405677Y162482D01*
X404982Y162018D01*
X404518Y161323D01*
X404454Y161004D01*
X405996D01*
Y162546D01*
D02*
G37*
G36*
X406996D02*
Y161004D01*
X408538D01*
X408474Y161323D01*
X408010Y162018D01*
X407315Y162482D01*
X406996Y162546D01*
D02*
G37*
G36*
X456004D02*
X455685Y162482D01*
X454990Y162018D01*
X454526Y161323D01*
X454462Y161004D01*
X456004D01*
Y162546D01*
D02*
G37*
G36*
X458546Y160004D02*
X457004D01*
Y158462D01*
X457323Y158526D01*
X458018Y158990D01*
X458482Y159685D01*
X458546Y160004D01*
D02*
G37*
G36*
X388050Y166054D02*
X386350D01*
X385371Y165926D01*
X384459Y165548D01*
X383675Y164947D01*
X383074Y164163D01*
X382697Y163251D01*
X382568Y162272D01*
X382697Y161294D01*
X383074Y160381D01*
X383675Y159598D01*
X384459Y158997D01*
X385371Y158619D01*
X386350Y158491D01*
X388050D01*
X389029Y158619D01*
X389941Y158997D01*
X390725Y159598D01*
X391326Y160381D01*
X391704Y161294D01*
X391832Y162272D01*
X391704Y163251D01*
X391326Y164163D01*
X390725Y164947D01*
X389941Y165548D01*
X389029Y165926D01*
X388050Y166054D01*
D02*
G37*
G36*
X434000Y161000D02*
X432458D01*
X432522Y160681D01*
X432986Y159986D01*
X433681Y159522D01*
X434000Y159458D01*
Y161000D01*
D02*
G37*
G36*
X457004Y162546D02*
Y161004D01*
X458546D01*
X458482Y161323D01*
X458018Y162018D01*
X457323Y162482D01*
X457004Y162546D01*
D02*
G37*
G36*
X438500Y165641D02*
X437681Y165478D01*
X436986Y165014D01*
X436522Y164319D01*
X436402Y163717D01*
X435836Y163367D01*
X435582Y163302D01*
X435319Y163478D01*
X435000Y163542D01*
Y161500D01*
Y159458D01*
X435319Y159522D01*
X436014Y159986D01*
X436478Y160681D01*
X436591Y161249D01*
X437279Y161554D01*
X437407Y161564D01*
X441486Y157486D01*
X442181Y157022D01*
X443000Y156859D01*
X443819Y157022D01*
X444514Y157486D01*
X444978Y158181D01*
X445141Y159000D01*
X444978Y159819D01*
X444514Y160514D01*
X440014Y165014D01*
X439319Y165478D01*
X438500Y165641D01*
D02*
G37*
G36*
X311339Y172154D02*
X310269Y172013D01*
X309272Y171600D01*
X308415Y170943D01*
X307758Y170087D01*
X307345Y169089D01*
X307204Y168019D01*
X307345Y166949D01*
X307758Y165951D01*
X308415Y165095D01*
X309272Y164437D01*
X310269Y164024D01*
X311339Y163883D01*
X312409Y164024D01*
X313407Y164437D01*
X314263Y165095D01*
X314920Y165951D01*
X315334Y166949D01*
X315475Y168019D01*
X315334Y169089D01*
X314920Y170087D01*
X314263Y170943D01*
X313407Y171600D01*
X312409Y172013D01*
X311339Y172154D01*
D02*
G37*
G36*
X274500Y166699D02*
X274181Y166636D01*
X273486Y166172D01*
X273022Y165477D01*
X272958Y165157D01*
X274500D01*
Y166699D01*
D02*
G37*
G36*
X434000Y163542D02*
X433681Y163478D01*
X432986Y163014D01*
X432522Y162319D01*
X432458Y162000D01*
X434000D01*
Y163542D01*
D02*
G37*
G36*
X274500Y164157D02*
X272958D01*
X273022Y163838D01*
X273486Y163144D01*
X274181Y162679D01*
X274500Y162616D01*
Y164157D01*
D02*
G37*
G36*
X277042D02*
X275500D01*
Y162616D01*
X275819Y162679D01*
X276514Y163144D01*
X276978Y163838D01*
X277042Y164157D01*
D02*
G37*
G36*
X264542Y148158D02*
X263000D01*
Y146616D01*
X263319Y146679D01*
X264014Y147143D01*
X264478Y147838D01*
X264542Y148158D01*
D02*
G37*
G36*
X272500Y150157D02*
X270958D01*
X271022Y149838D01*
X271486Y149144D01*
X272181Y148679D01*
X272500Y148616D01*
Y150157D01*
D02*
G37*
G36*
X275042D02*
X273500D01*
Y148616D01*
X273819Y148679D01*
X274514Y149144D01*
X274978Y149838D01*
X275042Y150157D01*
D02*
G37*
G36*
X311339Y152154D02*
X310269Y152013D01*
X309272Y151600D01*
X308415Y150943D01*
X307758Y150087D01*
X307345Y149089D01*
X307204Y148019D01*
X307345Y146949D01*
X307758Y145951D01*
X308415Y145095D01*
X309272Y144438D01*
X310269Y144024D01*
X311339Y143884D01*
X312409Y144024D01*
X313407Y144438D01*
X314263Y145095D01*
X314920Y145951D01*
X315334Y146949D01*
X315475Y148019D01*
X315334Y149089D01*
X314920Y150087D01*
X314263Y150943D01*
X313407Y151600D01*
X312409Y152013D01*
X311339Y152154D01*
D02*
G37*
G36*
X425000Y159233D02*
X424337Y159101D01*
X423774Y158726D01*
X423399Y158163D01*
X423267Y157500D01*
X423369Y156988D01*
Y149500D01*
X423493Y148876D01*
X423846Y148346D01*
X425984Y146209D01*
X426274Y145774D01*
X426837Y145399D01*
X427500Y145267D01*
X428163Y145399D01*
X428726Y145774D01*
X429101Y146337D01*
X429233Y147000D01*
X429101Y147663D01*
X428726Y148226D01*
X428291Y148516D01*
X426631Y150176D01*
Y156988D01*
X426733Y157500D01*
X426601Y158163D01*
X426226Y158726D01*
X425663Y159101D01*
X425000Y159233D01*
D02*
G37*
G36*
X262000Y148158D02*
X260458D01*
X260522Y147838D01*
X260986Y147143D01*
X261681Y146679D01*
X262000Y146616D01*
Y148158D01*
D02*
G37*
G36*
X388050Y156212D02*
X386350D01*
X385371Y156083D01*
X384459Y155705D01*
X383675Y155104D01*
X383074Y154321D01*
X382697Y153409D01*
X382568Y152430D01*
X382697Y151451D01*
X383074Y150539D01*
X383675Y149756D01*
X384459Y149155D01*
X385371Y148777D01*
X386350Y148648D01*
X388050D01*
X389029Y148777D01*
X389941Y149155D01*
X390725Y149756D01*
X391326Y150539D01*
X391704Y151451D01*
X391832Y152430D01*
X391704Y153409D01*
X391326Y154321D01*
X390725Y155104D01*
X389941Y155705D01*
X389029Y156083D01*
X388050Y156212D01*
D02*
G37*
G36*
X405996Y160004D02*
X404454D01*
X404518Y159685D01*
X404982Y158990D01*
X405677Y158526D01*
X405996Y158462D01*
Y160004D01*
D02*
G37*
G36*
X408538D02*
X406996D01*
Y158462D01*
X407315Y158526D01*
X408010Y158990D01*
X408474Y159685D01*
X408538Y160004D01*
D02*
G37*
G36*
X456004D02*
X454462D01*
X454526Y159685D01*
X454990Y158990D01*
X455685Y158526D01*
X456004Y158462D01*
Y160004D01*
D02*
G37*
G36*
X272000Y156391D02*
X271337Y156259D01*
X270774Y155883D01*
X270637Y155677D01*
X264000D01*
X263610Y155599D01*
X263279Y155378D01*
X261243Y153342D01*
X261000Y153391D01*
X260337Y153259D01*
X259774Y152883D01*
X259399Y152321D01*
X259267Y151657D01*
X259399Y150994D01*
X259774Y150432D01*
X260067Y150236D01*
X260522Y149477D01*
X260458Y149158D01*
X264542D01*
X264478Y149477D01*
X264014Y150171D01*
X263319Y150636D01*
X263285Y150643D01*
X263252Y150660D01*
X262716Y151571D01*
X262733Y151657D01*
X262685Y151900D01*
X264422Y153638D01*
X270637D01*
X270774Y153432D01*
X271337Y153056D01*
X271362Y153051D01*
X271531Y152202D01*
X271486Y152172D01*
X271022Y151477D01*
X270958Y151157D01*
X275042D01*
X274978Y151477D01*
X274514Y152172D01*
X273819Y152636D01*
X273553Y152689D01*
X273410Y153014D01*
X273307Y153553D01*
X273601Y153994D01*
X273733Y154657D01*
X273601Y155321D01*
X273226Y155883D01*
X272663Y156259D01*
X272000Y156391D01*
D02*
G37*
G36*
X311339Y162154D02*
X310269Y162013D01*
X309272Y161600D01*
X308415Y160943D01*
X307758Y160087D01*
X307345Y159089D01*
X307204Y158019D01*
X307345Y156949D01*
X307758Y155951D01*
X308415Y155095D01*
X309272Y154437D01*
X310269Y154024D01*
X311339Y153884D01*
X312409Y154024D01*
X313407Y154437D01*
X314263Y155095D01*
X314920Y155951D01*
X315334Y156949D01*
X315475Y158019D01*
X315334Y159089D01*
X314920Y160087D01*
X314263Y160943D01*
X313407Y161600D01*
X312409Y162013D01*
X311339Y162154D01*
D02*
G37*
G36*
X268543Y165893D02*
X262244D01*
X261785Y165703D01*
X260998Y164916D01*
X260807Y164457D01*
Y158158D01*
X260998Y157698D01*
X261457Y157508D01*
X268543D01*
X269003Y157698D01*
X269193Y158158D01*
Y165244D01*
X269003Y165703D01*
X268543Y165893D01*
D02*
G37*
G36*
X349839Y183019D02*
X348298D01*
X348361Y182700D01*
X348825Y182005D01*
X349520Y181541D01*
X349839Y181477D01*
Y183019D01*
D02*
G37*
G36*
X352381D02*
X350839D01*
Y181477D01*
X351159Y181541D01*
X351853Y182005D01*
X352317Y182700D01*
X352381Y183019D01*
D02*
G37*
G36*
X311339Y192154D02*
X310269Y192013D01*
X309272Y191600D01*
X308415Y190943D01*
X307758Y190087D01*
X307345Y189089D01*
X307204Y188019D01*
X307345Y186949D01*
X307758Y185951D01*
X308415Y185095D01*
X309272Y184438D01*
X310269Y184024D01*
X311339Y183884D01*
X312409Y184024D01*
X313407Y184438D01*
X314263Y185095D01*
X314920Y185951D01*
X315334Y186949D01*
X315475Y188019D01*
X315334Y189089D01*
X314920Y190087D01*
X314263Y190943D01*
X313407Y191600D01*
X312409Y192013D01*
X311339Y192154D01*
D02*
G37*
G36*
X427800Y198533D02*
X427137Y198401D01*
X426574Y198026D01*
X426199Y197463D01*
X426067Y196800D01*
X426091Y196677D01*
X425807Y196393D01*
X425564Y196029D01*
X425478Y195600D01*
X425478Y195600D01*
Y187400D01*
X425478Y187400D01*
X425564Y186971D01*
X425807Y186607D01*
X430907Y181507D01*
X431005Y181441D01*
X430763Y180641D01*
X424500D01*
X423681Y180478D01*
X422986Y180014D01*
X422922Y179918D01*
X422122Y180160D01*
Y182205D01*
X422226Y182274D01*
X422601Y182837D01*
X422733Y183500D01*
X422601Y184163D01*
X422226Y184726D01*
X421663Y185101D01*
X421000Y185233D01*
X420337Y185101D01*
X419774Y184726D01*
X419648Y184536D01*
X418712Y184497D01*
X418626Y184626D01*
X418063Y185001D01*
X417400Y185133D01*
X416737Y185001D01*
X416174Y184626D01*
X415799Y184063D01*
X415667Y183400D01*
X415799Y182737D01*
X416174Y182174D01*
X416278Y182105D01*
Y177095D01*
X416174Y177026D01*
X415799Y176463D01*
X415782Y176378D01*
X414914Y176114D01*
X407556Y183472D01*
X406862Y183936D01*
X406042Y184099D01*
X391134D01*
X390725Y184632D01*
X389941Y185233D01*
X389029Y185611D01*
X388050Y185739D01*
X386350D01*
X385371Y185611D01*
X384459Y185233D01*
X383675Y184632D01*
X383074Y183849D01*
X382697Y182936D01*
X382568Y181957D01*
X382697Y180979D01*
X383074Y180067D01*
X383675Y179283D01*
X384459Y178682D01*
X385371Y178304D01*
X386350Y178175D01*
X388050D01*
X389029Y178304D01*
X389941Y178682D01*
X390725Y179283D01*
X391134Y179816D01*
X405156D01*
X423986Y160986D01*
X424681Y160522D01*
X425500Y160359D01*
X426319Y160522D01*
X427014Y160986D01*
X427478Y161681D01*
X427641Y162500D01*
X427478Y163319D01*
X427014Y164014D01*
X417715Y173314D01*
X417978Y174182D01*
X418063Y174199D01*
X418626Y174574D01*
X419001Y175137D01*
X419327Y175237D01*
X419854Y175321D01*
X420337Y174999D01*
X421000Y174867D01*
X421663Y174999D01*
X422226Y175374D01*
X422601Y175937D01*
X422662Y176241D01*
X423442Y176642D01*
X423496Y176645D01*
X423681Y176522D01*
X424500Y176359D01*
X429007D01*
X429086Y175559D01*
X428681Y175478D01*
X427986Y175014D01*
X427522Y174319D01*
X427458Y174000D01*
X429500D01*
Y173000D01*
X427458D01*
X427522Y172681D01*
X427986Y171986D01*
X427993Y171981D01*
Y171019D01*
X427986Y171014D01*
X427522Y170319D01*
X427458Y170000D01*
X429500D01*
Y169500D01*
X430000D01*
Y167458D01*
X430319Y167522D01*
X431014Y167986D01*
X431019Y167993D01*
X431981D01*
X431986Y167986D01*
X432681Y167522D01*
X433000Y167458D01*
Y169500D01*
X433500D01*
Y170000D01*
X435542D01*
X435478Y170319D01*
X435014Y171014D01*
X435007Y171019D01*
Y171981D01*
X435014Y171986D01*
X435478Y172681D01*
X435542Y173000D01*
X433500D01*
Y174000D01*
X435542D01*
X435478Y174319D01*
X435014Y175014D01*
X434319Y175478D01*
X433914Y175559D01*
X433992Y176359D01*
X438113D01*
X440859Y173613D01*
Y171000D01*
X441022Y170181D01*
X441486Y169486D01*
X442181Y169022D01*
X443000Y168859D01*
X443819Y169022D01*
X444514Y169486D01*
X444978Y170181D01*
X445141Y171000D01*
Y174500D01*
X444978Y175319D01*
X444514Y176014D01*
X440514Y180014D01*
X439819Y180478D01*
X439000Y180641D01*
X437498D01*
X437071Y181441D01*
X437201Y181637D01*
X437333Y182300D01*
X437201Y182963D01*
X436826Y183526D01*
X436263Y183901D01*
X435600Y184033D01*
X434937Y183901D01*
X434374Y183526D01*
X434305Y183422D01*
X432165D01*
X427722Y187865D01*
Y195002D01*
X427800Y195067D01*
X428463Y195199D01*
X429026Y195574D01*
X429401Y196137D01*
X429533Y196800D01*
X429401Y197463D01*
X429026Y198026D01*
X428463Y198401D01*
X427800Y198533D01*
D02*
G37*
G36*
X333839Y183019D02*
X332297D01*
X332361Y182700D01*
X332825Y182005D01*
X333520Y181541D01*
X333839Y181477D01*
Y183019D01*
D02*
G37*
G36*
X336381D02*
X334839D01*
Y181477D01*
X335159Y181541D01*
X335853Y182005D01*
X336317Y182700D01*
X336381Y183019D01*
D02*
G37*
G36*
X333839Y185561D02*
X333520Y185497D01*
X332825Y185033D01*
X332361Y184338D01*
X332297Y184019D01*
X333839D01*
Y185561D01*
D02*
G37*
G36*
X391800Y195750D02*
X382600D01*
Y188250D01*
X391800D01*
Y195750D01*
D02*
G37*
G36*
X446539Y190461D02*
X444998D01*
X445061Y190141D01*
X445525Y189447D01*
X446220Y188982D01*
X446539Y188919D01*
Y190461D01*
D02*
G37*
G36*
X449081D02*
X447539D01*
Y188919D01*
X447859Y188982D01*
X448553Y189447D01*
X449017Y190141D01*
X449081Y190461D01*
D02*
G37*
G36*
X334839Y185561D02*
Y184019D01*
X336381D01*
X336317Y184338D01*
X335853Y185033D01*
X335159Y185497D01*
X334839Y185561D01*
D02*
G37*
G36*
X349839D02*
X349520Y185497D01*
X348825Y185033D01*
X348361Y184338D01*
X348298Y184019D01*
X349839D01*
Y185561D01*
D02*
G37*
G36*
X350839D02*
Y184019D01*
X352381D01*
X352317Y184338D01*
X351853Y185033D01*
X351159Y185497D01*
X350839Y185561D01*
D02*
G37*
G36*
X388050Y175897D02*
X386350D01*
X385371Y175768D01*
X384459Y175390D01*
X383675Y174789D01*
X383074Y174006D01*
X382697Y173094D01*
X382568Y172115D01*
X382697Y171136D01*
X383074Y170224D01*
X383675Y169441D01*
X384459Y168840D01*
X385371Y168462D01*
X386350Y168333D01*
X388050D01*
X389029Y168462D01*
X389941Y168840D01*
X390725Y169441D01*
X391326Y170224D01*
X391704Y171136D01*
X391832Y172115D01*
X391704Y173094D01*
X391326Y174006D01*
X390725Y174789D01*
X389941Y175390D01*
X389029Y175768D01*
X388050Y175897D01*
D02*
G37*
G36*
X268400Y170858D02*
X266858D01*
X266922Y170538D01*
X267386Y169843D01*
X268081Y169379D01*
X268400Y169316D01*
Y170858D01*
D02*
G37*
G36*
X270942D02*
X269400D01*
Y169316D01*
X269719Y169379D01*
X270414Y169843D01*
X270878Y170538D01*
X270942Y170858D01*
D02*
G37*
G36*
X275500Y166699D02*
Y165157D01*
X277042D01*
X276978Y165477D01*
X276514Y166172D01*
X275819Y166636D01*
X275500Y166699D01*
D02*
G37*
G36*
X429000Y169000D02*
X427458D01*
X427522Y168681D01*
X427986Y167986D01*
X428681Y167522D01*
X429000Y167458D01*
Y169000D01*
D02*
G37*
G36*
X435542D02*
X434000D01*
Y167458D01*
X434319Y167522D01*
X435014Y167986D01*
X435478Y168681D01*
X435542Y169000D01*
D02*
G37*
G36*
X453000Y172000D02*
X451458D01*
X451522Y171681D01*
X451986Y170986D01*
X452681Y170522D01*
X453000Y170458D01*
Y172000D01*
D02*
G37*
G36*
Y174542D02*
X452681Y174478D01*
X451986Y174014D01*
X451522Y173319D01*
X451458Y173000D01*
X453000D01*
Y174542D01*
D02*
G37*
G36*
X454000D02*
Y173000D01*
X455542D01*
X455478Y173319D01*
X455014Y174014D01*
X454319Y174478D01*
X454000Y174542D01*
D02*
G37*
G36*
X311339Y182154D02*
X310269Y182013D01*
X309272Y181600D01*
X308415Y180943D01*
X307758Y180087D01*
X307345Y179089D01*
X307204Y178019D01*
X307345Y176949D01*
X307758Y175951D01*
X308415Y175095D01*
X309272Y174437D01*
X310269Y174024D01*
X311339Y173883D01*
X312409Y174024D01*
X313407Y174437D01*
X314263Y175095D01*
X314920Y175951D01*
X315334Y176949D01*
X315475Y178019D01*
X315334Y179089D01*
X314920Y180087D01*
X314263Y180943D01*
X313407Y181600D01*
X312409Y182013D01*
X311339Y182154D01*
D02*
G37*
G36*
X455542Y172000D02*
X454000D01*
Y170458D01*
X454319Y170522D01*
X455014Y170986D01*
X455478Y171681D01*
X455542Y172000D01*
D02*
G37*
G36*
X268400Y173399D02*
X268081Y173336D01*
X267386Y172871D01*
X266922Y172177D01*
X266858Y171858D01*
X268400D01*
Y173399D01*
D02*
G37*
G36*
X269400D02*
Y171858D01*
X270942D01*
X270878Y172177D01*
X270414Y172871D01*
X269719Y173336D01*
X269400Y173399D01*
D02*
G37*
G36*
X397542Y248500D02*
X396000D01*
Y246958D01*
X396319Y247022D01*
X397014Y247486D01*
X397478Y248181D01*
X397542Y248500D01*
D02*
G37*
G36*
X373905Y296137D02*
Y294595D01*
X375447D01*
X375383Y294914D01*
X374919Y295609D01*
X374224Y296073D01*
X373905Y296137D01*
D02*
G37*
G36*
X318500Y298000D02*
X316958D01*
X317022Y297681D01*
X317486Y296986D01*
X318181Y296522D01*
X318500Y296458D01*
Y298000D01*
D02*
G37*
G36*
X321042D02*
X319500D01*
Y296458D01*
X319819Y296522D01*
X320514Y296986D01*
X320978Y297681D01*
X321042Y298000D01*
D02*
G37*
G36*
X342905Y296137D02*
X342586Y296073D01*
X341891Y295609D01*
X341427Y294914D01*
X341363Y294595D01*
X342905D01*
Y296137D01*
D02*
G37*
G36*
X343905D02*
Y294595D01*
X345447D01*
X345383Y294914D01*
X344919Y295609D01*
X344224Y296073D01*
X343905Y296137D01*
D02*
G37*
G36*
X372905D02*
X372586Y296073D01*
X371891Y295609D01*
X371427Y294914D01*
X371363Y294595D01*
X372905D01*
Y296137D01*
D02*
G37*
G36*
X437250Y299750D02*
X435708D01*
X435772Y299431D01*
X436236Y298736D01*
X436931Y298272D01*
X437250Y298208D01*
Y299750D01*
D02*
G37*
G36*
X206500Y304733D02*
X205837Y304601D01*
X205274Y304226D01*
X204899Y303663D01*
X204767Y303000D01*
X204899Y302337D01*
X205274Y301774D01*
X205379Y301705D01*
Y299678D01*
X205113Y299494D01*
X204578Y299324D01*
X204163Y299601D01*
X203500Y299733D01*
X202837Y299601D01*
X202274Y299226D01*
X202160Y299054D01*
X202071Y299036D01*
X201707Y298793D01*
X201707Y298793D01*
X194123Y291209D01*
X194000Y291233D01*
X193337Y291101D01*
X192774Y290726D01*
X192399Y290163D01*
X192267Y289500D01*
X192399Y288837D01*
X192774Y288274D01*
X193337Y287899D01*
X194000Y287767D01*
X194078Y287782D01*
X194878Y287154D01*
Y284000D01*
X194878Y284000D01*
X194964Y283571D01*
X195207Y283207D01*
X197854Y280560D01*
X197899Y280337D01*
X198274Y279774D01*
X198837Y279399D01*
X199500Y279267D01*
X200163Y279399D01*
X200726Y279774D01*
X201101Y280337D01*
X201233Y281000D01*
X201221Y281061D01*
X201958Y281455D01*
X202207Y281207D01*
X202207Y281207D01*
X202571Y280964D01*
X203000Y280878D01*
X203000Y280878D01*
X221035D01*
X223854Y278060D01*
X223573Y277210D01*
X223402Y277184D01*
X223093Y277493D01*
X222729Y277736D01*
X222300Y277822D01*
X222300Y277821D01*
X199013D01*
X198233Y278000D01*
X198101Y278663D01*
X197726Y279226D01*
X197163Y279601D01*
X196500Y279733D01*
X195837Y279601D01*
X195274Y279226D01*
X195205Y279121D01*
X192000D01*
X192000Y279122D01*
X191571Y279036D01*
X191207Y278793D01*
X188207Y275793D01*
X187964Y275429D01*
X187878Y275000D01*
X187878Y275000D01*
Y272000D01*
X187878Y272000D01*
X187964Y271571D01*
X188207Y271207D01*
X189707Y269707D01*
X190071Y269464D01*
X190500Y269378D01*
X190500Y269378D01*
X194535D01*
X196791Y267123D01*
X196767Y267000D01*
X196899Y266337D01*
X197274Y265774D01*
X197837Y265399D01*
X198500Y265267D01*
X199163Y265399D01*
X199726Y265774D01*
X200101Y266337D01*
X200233Y267000D01*
X200101Y267663D01*
X199726Y268226D01*
X199163Y268601D01*
X198500Y268733D01*
X198377Y268709D01*
X195793Y271293D01*
X195429Y271536D01*
X195485Y272341D01*
X195500Y272378D01*
X195929Y272464D01*
X196293Y272707D01*
X197995Y274409D01*
X198842Y274124D01*
X198899Y273837D01*
X199274Y273274D01*
X199837Y272899D01*
X200500Y272767D01*
X201163Y272899D01*
X201726Y273274D01*
X201795Y273378D01*
X202914D01*
X203346Y272741D01*
X203382Y272578D01*
X203267Y272000D01*
X203399Y271337D01*
X203774Y270774D01*
X204337Y270399D01*
X205000Y270267D01*
X205663Y270399D01*
X206226Y270774D01*
X206295Y270879D01*
X217535D01*
X224207Y264207D01*
X224207Y264207D01*
X224571Y263964D01*
X225000Y263878D01*
X228705D01*
X228774Y263774D01*
X229337Y263399D01*
X230000Y263267D01*
X230663Y263399D01*
X231226Y263774D01*
X231601Y264337D01*
X231733Y265000D01*
X231601Y265663D01*
X231226Y266226D01*
X230663Y266601D01*
X230000Y266733D01*
X229337Y266601D01*
X229330Y266597D01*
X228655Y267108D01*
X228733Y267500D01*
X228601Y268163D01*
X228226Y268726D01*
X227663Y269101D01*
X227000Y269233D01*
X226877Y269209D01*
X226273Y269813D01*
X226783Y270435D01*
X226837Y270399D01*
X227500Y270267D01*
X228163Y270399D01*
X228726Y270774D01*
X229101Y271337D01*
X229233Y272000D01*
X229101Y272663D01*
X228726Y273226D01*
X228622Y273295D01*
Y276000D01*
X228622Y276000D01*
X228536Y276429D01*
X228293Y276793D01*
X228293Y276793D01*
X222293Y282793D01*
X221929Y283036D01*
X221500Y283122D01*
X221500Y283121D01*
X203465D01*
X200209Y286377D01*
X200233Y286500D01*
X200101Y287163D01*
X199824Y287579D01*
X199994Y288113D01*
X200178Y288379D01*
X200500D01*
X200500Y288378D01*
X200929Y288464D01*
X201293Y288707D01*
X201542Y288955D01*
X202279Y288561D01*
X202267Y288500D01*
X202399Y287837D01*
X202774Y287274D01*
X203337Y286899D01*
X204000Y286767D01*
X204123Y286791D01*
X205707Y285207D01*
X205707Y285207D01*
X206071Y284964D01*
X206500Y284878D01*
X220205D01*
X220274Y284774D01*
X220837Y284399D01*
X221500Y284267D01*
X222163Y284399D01*
X222726Y284774D01*
X223101Y285337D01*
X223233Y286000D01*
X223101Y286663D01*
X222726Y287226D01*
X222163Y287601D01*
X221500Y287733D01*
X220837Y287601D01*
X220274Y287226D01*
X220205Y287122D01*
X206965D01*
X205709Y288377D01*
X205733Y288500D01*
X205601Y289163D01*
X205226Y289726D01*
X204663Y290101D01*
X204000Y290233D01*
X203939Y290221D01*
X203544Y290958D01*
X207293Y294707D01*
X207293Y294707D01*
X207536Y295071D01*
X207622Y295500D01*
X207622Y295500D01*
Y301705D01*
X207726Y301774D01*
X208101Y302337D01*
X208233Y303000D01*
X208101Y303663D01*
X207726Y304226D01*
X207163Y304601D01*
X206500Y304733D01*
D02*
G37*
G36*
X437250Y302292D02*
X436931Y302228D01*
X436236Y301764D01*
X435772Y301069D01*
X435708Y300750D01*
X437250D01*
Y302292D01*
D02*
G37*
G36*
X438250D02*
Y300750D01*
X439792D01*
X439728Y301069D01*
X439264Y301764D01*
X438569Y302228D01*
X438250Y302292D01*
D02*
G37*
G36*
X439792Y299750D02*
X438250D01*
Y298208D01*
X438569Y298272D01*
X439264Y298736D01*
X439728Y299431D01*
X439792Y299750D01*
D02*
G37*
G36*
X318500Y300542D02*
X318181Y300478D01*
X317486Y300014D01*
X317022Y299319D01*
X316958Y299000D01*
X318500D01*
Y300542D01*
D02*
G37*
G36*
X319500D02*
Y299000D01*
X321042D01*
X320978Y299319D01*
X320514Y300014D01*
X319819Y300478D01*
X319500Y300542D01*
D02*
G37*
G36*
X372905Y293595D02*
X371363D01*
X371427Y293276D01*
X371891Y292581D01*
X372586Y292117D01*
X372905Y292053D01*
Y293595D01*
D02*
G37*
G36*
X375447D02*
X373905D01*
Y292053D01*
X374224Y292117D01*
X374919Y292581D01*
X375383Y293276D01*
X375447Y293595D01*
D02*
G37*
G36*
X236500Y293940D02*
X236220Y293884D01*
X235558Y293442D01*
X235116Y292780D01*
X235060Y292500D01*
X236500D01*
Y293940D01*
D02*
G37*
G36*
X248940Y291500D02*
X247500D01*
Y290060D01*
X247780Y290116D01*
X248442Y290558D01*
X248884Y291220D01*
X248940Y291500D01*
D02*
G37*
G36*
X342905Y293595D02*
X341363D01*
X341427Y293276D01*
X341891Y292581D01*
X342586Y292117D01*
X342905Y292053D01*
Y293595D01*
D02*
G37*
G36*
X345447D02*
X343905D01*
Y292053D01*
X344224Y292117D01*
X344919Y292581D01*
X345383Y293276D01*
X345447Y293595D01*
D02*
G37*
G36*
X237500Y293940D02*
Y292500D01*
X238940D01*
X238884Y292780D01*
X238442Y293442D01*
X237780Y293884D01*
X237500Y293940D01*
D02*
G37*
G36*
X247500D02*
Y292500D01*
X248940D01*
X248884Y292780D01*
X248442Y293442D01*
X247780Y293884D01*
X247500Y293940D01*
D02*
G37*
G36*
X476500Y294042D02*
X476181Y293978D01*
X475486Y293514D01*
X475022Y292819D01*
X474958Y292500D01*
X476500D01*
Y294042D01*
D02*
G37*
G36*
X477500D02*
Y292500D01*
X479042D01*
X478978Y292819D01*
X478514Y293514D01*
X477819Y293978D01*
X477500Y294042D01*
D02*
G37*
G36*
X241500Y293940D02*
X241220Y293884D01*
X240558Y293442D01*
X240116Y292780D01*
X240060Y292500D01*
X241500D01*
Y293940D01*
D02*
G37*
G36*
X242500D02*
Y292500D01*
X243940D01*
X243884Y292780D01*
X243442Y293442D01*
X242780Y293884D01*
X242500Y293940D01*
D02*
G37*
G36*
X246500D02*
X246220Y293884D01*
X245558Y293442D01*
X245116Y292780D01*
X245060Y292500D01*
X246500D01*
Y293940D01*
D02*
G37*
G36*
X206500Y322542D02*
X206181Y322478D01*
X205486Y322014D01*
X205022Y321319D01*
X204958Y321000D01*
X206500D01*
Y322542D01*
D02*
G37*
G36*
X207500D02*
Y321000D01*
X209042D01*
X208978Y321319D01*
X208514Y322014D01*
X207819Y322478D01*
X207500Y322542D01*
D02*
G37*
G36*
X433000Y323542D02*
X432681Y323478D01*
X431986Y323014D01*
X431522Y322319D01*
X431458Y322000D01*
X433000D01*
Y323542D01*
D02*
G37*
G36*
X287700Y320842D02*
Y319300D01*
X289242D01*
X289178Y319619D01*
X288714Y320314D01*
X288019Y320778D01*
X287700Y320842D01*
D02*
G37*
G36*
X433000Y321000D02*
X431458D01*
X431522Y320681D01*
X431986Y319986D01*
X432681Y319522D01*
X433000Y319458D01*
Y321000D01*
D02*
G37*
G36*
X435542D02*
X434000D01*
Y319458D01*
X434319Y319522D01*
X435014Y319986D01*
X435478Y320681D01*
X435542Y321000D01*
D02*
G37*
G36*
X434000Y323542D02*
Y322000D01*
X435542D01*
X435478Y322319D01*
X435014Y323014D01*
X434319Y323478D01*
X434000Y323542D01*
D02*
G37*
G36*
X478000Y332262D02*
Y329343D01*
X480395D01*
Y329433D01*
X480296Y330182D01*
X480007Y330880D01*
X479547Y331480D01*
X478947Y331940D01*
X478249Y332229D01*
X478000Y332262D01*
D02*
G37*
G36*
X487630Y332279D02*
X484121D01*
X484150Y332056D01*
X484429Y331382D01*
X484874Y330803D01*
X485453Y330359D01*
X486127Y330079D01*
X486850Y329984D01*
X487630D01*
Y332279D01*
D02*
G37*
G36*
Y335575D02*
X486850D01*
X486127Y335480D01*
X485453Y335201D01*
X484874Y334756D01*
X484429Y334177D01*
X484150Y333503D01*
X484121Y333279D01*
X487630D01*
Y335575D01*
D02*
G37*
G36*
X477000Y328343D02*
X474605D01*
Y328252D01*
X474704Y327503D01*
X474993Y326804D01*
X475453Y326205D01*
X476053Y325745D01*
X476751Y325456D01*
X477000Y325423D01*
Y328343D01*
D02*
G37*
G36*
X480395D02*
X478000D01*
Y325423D01*
X478249Y325456D01*
X478947Y325745D01*
X479547Y326205D01*
X480007Y326804D01*
X480296Y327503D01*
X480395Y328252D01*
Y328343D01*
D02*
G37*
G36*
X477000Y332262D02*
X476751Y332229D01*
X476053Y331940D01*
X475453Y331480D01*
X474993Y330880D01*
X474704Y330182D01*
X474605Y329433D01*
Y329343D01*
X477000D01*
Y332262D01*
D02*
G37*
G36*
X480395Y308658D02*
X478000D01*
Y305738D01*
X478249Y305771D01*
X478947Y306060D01*
X479547Y306520D01*
X480007Y307119D01*
X480296Y307818D01*
X480395Y308567D01*
Y308658D01*
D02*
G37*
G36*
X278000Y316141D02*
X267500D01*
X266681Y315978D01*
X265986Y315514D01*
X265522Y314819D01*
X265359Y314000D01*
X265522Y313181D01*
X265986Y312486D01*
X266681Y312022D01*
X267500Y311859D01*
X277113D01*
X280950Y308021D01*
X280619Y307222D01*
X266395D01*
X266326Y307326D01*
X265763Y307701D01*
X265100Y307833D01*
X264437Y307701D01*
X263874Y307326D01*
X263499Y306763D01*
X263367Y306100D01*
X263499Y305437D01*
X263874Y304874D01*
X264437Y304499D01*
X265100Y304367D01*
X265763Y304499D01*
X266326Y304874D01*
X266395Y304978D01*
X280847D01*
X298019Y287806D01*
X297625Y287069D01*
X297300Y287133D01*
X296637Y287001D01*
X296074Y286626D01*
X296073Y286624D01*
X268348D01*
X267718Y287423D01*
X267733Y287500D01*
X267601Y288163D01*
X267226Y288726D01*
X266663Y289101D01*
X266000Y289233D01*
X265337Y289101D01*
X264774Y288726D01*
X264399Y288163D01*
X264267Y287500D01*
X264399Y286837D01*
X264774Y286274D01*
X264776Y286273D01*
Y265227D01*
X264774Y265226D01*
X264399Y264663D01*
X264267Y264000D01*
X264399Y263337D01*
X264774Y262774D01*
X265337Y262399D01*
X266000Y262267D01*
X266630Y262392D01*
X266682Y262358D01*
X267101Y261731D01*
X262093Y256723D01*
X224558D01*
X224350Y257523D01*
X224726Y257774D01*
X225101Y258337D01*
X225233Y259000D01*
X225101Y259663D01*
X224726Y260226D01*
X224163Y260601D01*
X223500Y260733D01*
X222837Y260601D01*
X222274Y260226D01*
X222273Y260224D01*
X206227D01*
X206226Y260226D01*
X205663Y260601D01*
X205000Y260733D01*
X204337Y260601D01*
X203774Y260226D01*
X203399Y259663D01*
X203267Y259000D01*
X203399Y258337D01*
X203774Y257774D01*
X204337Y257399D01*
X204522Y257362D01*
X204566Y257327D01*
X204899Y256493D01*
X204685Y256171D01*
X204337Y256101D01*
X203774Y255726D01*
X203399Y255163D01*
X203267Y254500D01*
X203399Y253837D01*
X203774Y253274D01*
X204337Y252899D01*
X205000Y252767D01*
X205663Y252899D01*
X206226Y253274D01*
X206601Y253837D01*
X206689Y254276D01*
X219773D01*
X219774Y254274D01*
X220337Y253899D01*
X221000Y253767D01*
X221663Y253899D01*
X222226Y254274D01*
X222227Y254276D01*
X262600D01*
X263068Y254370D01*
X263465Y254635D01*
X288811Y279980D01*
X295537D01*
X295674Y279774D01*
X295880Y279637D01*
Y278200D01*
X295958Y277810D01*
X296179Y277479D01*
X337820Y235839D01*
Y232020D01*
X337769Y232013D01*
X336771Y231600D01*
X335915Y230943D01*
X335258Y230087D01*
X334845Y229089D01*
X334704Y228019D01*
X334845Y226948D01*
X335258Y225951D01*
X335915Y225095D01*
X336771Y224437D01*
X337769Y224024D01*
X338839Y223884D01*
X339910Y224024D01*
X340907Y224437D01*
X341763Y225095D01*
X342421Y225951D01*
X342834Y226948D01*
X342974Y228019D01*
X342834Y229089D01*
X342421Y230087D01*
X342389Y230127D01*
X344543Y232280D01*
X346406D01*
X346483Y232138D01*
X346615Y231480D01*
X345915Y230943D01*
X345258Y230087D01*
X344845Y229089D01*
X344704Y228019D01*
X344845Y226948D01*
X345258Y225951D01*
X345289Y225911D01*
X342398Y223020D01*
X324800D01*
X324410Y222942D01*
X324079Y222721D01*
X308143Y206785D01*
X307900Y206833D01*
X307237Y206701D01*
X306674Y206326D01*
X306299Y205763D01*
X306167Y205100D01*
X306299Y204437D01*
X306674Y203874D01*
X307237Y203499D01*
X307900Y203367D01*
X308563Y203499D01*
X309126Y203874D01*
X309501Y204437D01*
X309633Y205100D01*
X309585Y205343D01*
X325222Y220980D01*
X334492D01*
X334735Y220180D01*
X334486Y220014D01*
X334022Y219319D01*
X333958Y219000D01*
X338042D01*
X337978Y219319D01*
X337514Y220014D01*
X337265Y220180D01*
X337508Y220980D01*
X341983D01*
X342410Y220180D01*
X342399Y220163D01*
X342267Y219500D01*
X342399Y218837D01*
X342774Y218274D01*
X343337Y217899D01*
X344000Y217767D01*
X344663Y217899D01*
X345226Y218274D01*
X345516Y218709D01*
X347676Y220869D01*
X352487D01*
X353000Y220767D01*
X353663Y220899D01*
X354226Y221274D01*
X354601Y221837D01*
X354733Y222500D01*
X354601Y223163D01*
X354226Y223726D01*
X353663Y224101D01*
X353000Y224233D01*
X352487Y224131D01*
X351822D01*
X351550Y224931D01*
X351763Y225095D01*
X352420Y225951D01*
X352834Y226948D01*
X352840Y226999D01*
X363059D01*
X366215Y223843D01*
X366167Y223600D01*
X366299Y222937D01*
X366674Y222374D01*
X367237Y221999D01*
X367900Y221867D01*
X368563Y221999D01*
X369126Y222374D01*
X369501Y222937D01*
X369633Y223600D01*
X369501Y224263D01*
X369126Y224826D01*
X368563Y225201D01*
X368291Y225255D01*
X368212Y225393D01*
X368618Y226290D01*
X368663Y226299D01*
X369226Y226674D01*
X369601Y227237D01*
X369733Y227900D01*
X369601Y228563D01*
X369226Y229126D01*
X368663Y229501D01*
X368000Y229633D01*
X367757Y229585D01*
X363321Y234021D01*
X362990Y234242D01*
X362600Y234320D01*
X344120D01*
X343730Y234242D01*
X343399Y234021D01*
X340947Y231569D01*
X340907Y231600D01*
X339910Y232013D01*
X339859Y232020D01*
Y236261D01*
X339781Y236651D01*
X339560Y236982D01*
X322575Y253967D01*
X322969Y254705D01*
X323100Y254679D01*
X329705D01*
X329774Y254574D01*
X330337Y254199D01*
X331000Y254067D01*
X331663Y254199D01*
X332226Y254574D01*
X332601Y255137D01*
X332733Y255800D01*
X332601Y256463D01*
X332226Y257026D01*
X331663Y257401D01*
X331000Y257533D01*
X330585Y258113D01*
X330571Y258264D01*
X332154Y259846D01*
X332507Y260376D01*
X332631Y261000D01*
Y270988D01*
X332733Y271500D01*
X332601Y272163D01*
X332226Y272726D01*
Y273474D01*
X332601Y274037D01*
X332733Y274700D01*
X332601Y275363D01*
X332226Y275926D01*
X331663Y276301D01*
X331000Y276433D01*
X330487Y276331D01*
X328700D01*
X328076Y276207D01*
X327547Y275853D01*
X326346Y274654D01*
X325993Y274124D01*
X325869Y273500D01*
Y268185D01*
X325632Y268016D01*
X325069Y267830D01*
X324663Y268101D01*
X324000Y268233D01*
X323487Y268131D01*
X320176D01*
X317516Y270791D01*
X317226Y271226D01*
X316663Y271601D01*
X316000Y271733D01*
X315337Y271601D01*
X314774Y271226D01*
X314399Y270663D01*
X314267Y270000D01*
X314399Y269337D01*
X314774Y268774D01*
X315209Y268484D01*
X318347Y265347D01*
X318876Y264993D01*
X319500Y264869D01*
X323487D01*
X324000Y264767D01*
X324663Y264899D01*
X325069Y265170D01*
X325632Y264984D01*
X325869Y264815D01*
Y262676D01*
X323709Y260516D01*
X323274Y260226D01*
X322899Y259663D01*
X322767Y259000D01*
X322804Y258814D01*
X322066Y258420D01*
X301144Y279342D01*
X301209Y280014D01*
X301907Y280477D01*
X302000Y280458D01*
Y282500D01*
Y285005D01*
X301722Y285302D01*
Y286811D01*
X301722Y286811D01*
X301636Y287241D01*
X301393Y287604D01*
X301393Y287604D01*
X294910Y294087D01*
X294932Y294275D01*
X295225Y294904D01*
X295819Y295022D01*
X296514Y295486D01*
X296978Y296181D01*
X297141Y297000D01*
X296978Y297819D01*
X296514Y298514D01*
X279514Y315514D01*
X278819Y315978D01*
X278000Y316141D01*
D02*
G37*
G36*
X440500Y322733D02*
X439837Y322601D01*
X439274Y322226D01*
X438899Y321663D01*
X438767Y321000D01*
X438899Y320337D01*
X439123Y320000D01*
Y313500D01*
X439228Y312973D01*
X439527Y312527D01*
X442820Y309234D01*
X442899Y308837D01*
X443274Y308274D01*
X443837Y307899D01*
X444500Y307767D01*
X445163Y307899D01*
X445726Y308274D01*
X446101Y308837D01*
X446233Y309500D01*
X446101Y310163D01*
X445726Y310726D01*
X445163Y311101D01*
X444766Y311180D01*
X441877Y314070D01*
Y320000D01*
X442101Y320337D01*
X442233Y321000D01*
X442101Y321663D01*
X441726Y322226D01*
X441163Y322601D01*
X440500Y322733D01*
D02*
G37*
G36*
X487630Y304720D02*
X484121D01*
X484150Y304497D01*
X484429Y303823D01*
X484874Y303244D01*
X485453Y302799D01*
X486127Y302520D01*
X486850Y302425D01*
X487630D01*
Y304720D01*
D02*
G37*
G36*
Y308016D02*
X486850D01*
X486127Y307921D01*
X485453Y307642D01*
X484874Y307197D01*
X484429Y306618D01*
X484150Y305944D01*
X484121Y305720D01*
X487630D01*
Y308016D01*
D02*
G37*
G36*
X477000Y308658D02*
X474605D01*
Y308567D01*
X474704Y307818D01*
X474993Y307119D01*
X475453Y306520D01*
X476053Y306060D01*
X476751Y305771D01*
X477000Y305738D01*
Y308658D01*
D02*
G37*
G36*
Y312577D02*
X476751Y312544D01*
X476053Y312255D01*
X475453Y311795D01*
X474993Y311195D01*
X474704Y310497D01*
X474605Y309748D01*
Y309658D01*
X477000D01*
Y312577D01*
D02*
G37*
G36*
X206500Y320000D02*
X204958D01*
X205022Y319681D01*
X205486Y318986D01*
X206181Y318522D01*
X206500Y318458D01*
Y320000D01*
D02*
G37*
G36*
X209042D02*
X207500D01*
Y318458D01*
X207819Y318522D01*
X208514Y318986D01*
X208978Y319681D01*
X209042Y320000D01*
D02*
G37*
G36*
X286700Y320842D02*
X286381Y320778D01*
X285686Y320314D01*
X285222Y319619D01*
X285158Y319300D01*
X286700D01*
Y320842D01*
D02*
G37*
G36*
X478000Y312577D02*
Y309658D01*
X480395D01*
Y309748D01*
X480296Y310497D01*
X480007Y311195D01*
X479547Y311795D01*
X478947Y312255D01*
X478249Y312544D01*
X478000Y312577D01*
D02*
G37*
G36*
X286700Y318300D02*
X285158D01*
X285222Y317981D01*
X285686Y317286D01*
X286381Y316822D01*
X286700Y316758D01*
Y318300D01*
D02*
G37*
G36*
X289242D02*
X287700D01*
Y316758D01*
X288019Y316822D01*
X288714Y317286D01*
X289178Y317981D01*
X289242Y318300D01*
D02*
G37*
G36*
X246500Y291500D02*
X245060D01*
X245116Y291220D01*
X245558Y290558D01*
X246220Y290116D01*
X246500Y290060D01*
Y291500D01*
D02*
G37*
G36*
X444000Y283233D02*
X443337Y283101D01*
X442774Y282726D01*
X442399Y282163D01*
X442390Y282121D01*
X414500D01*
X414071Y282036D01*
X413707Y281793D01*
X413707Y281793D01*
X409123Y277209D01*
X409000Y277233D01*
X408337Y277101D01*
X407774Y276726D01*
X407399Y276163D01*
X407267Y275500D01*
X407399Y274837D01*
X407774Y274274D01*
X408337Y273899D01*
X409000Y273767D01*
X409663Y273899D01*
X410226Y274274D01*
X410601Y274837D01*
X410733Y275500D01*
X410709Y275623D01*
X414965Y279878D01*
X443438D01*
X444000Y279767D01*
X444663Y279899D01*
X445226Y280274D01*
X445601Y280837D01*
X445733Y281500D01*
X445601Y282163D01*
X445226Y282726D01*
X444663Y283101D01*
X444000Y283233D01*
D02*
G37*
G36*
X165000Y281542D02*
X164681Y281478D01*
X163986Y281014D01*
X163522Y280319D01*
X163458Y280000D01*
X165000D01*
Y281542D01*
D02*
G37*
G36*
X166000D02*
Y280000D01*
X167542D01*
X167478Y280319D01*
X167014Y281014D01*
X166319Y281478D01*
X166000Y281542D01*
D02*
G37*
G36*
X432800Y276633D02*
X432137Y276501D01*
X431574Y276126D01*
X431199Y275563D01*
X431067Y274900D01*
X431091Y274777D01*
X424335Y268021D01*
X413339D01*
X413008Y268822D01*
X415177Y270991D01*
X415300Y270967D01*
X415963Y271099D01*
X416526Y271474D01*
X416901Y272037D01*
X417033Y272700D01*
X416901Y273363D01*
X416526Y273926D01*
X415963Y274301D01*
X415300Y274433D01*
X414637Y274301D01*
X414074Y273926D01*
X413699Y273363D01*
X413567Y272700D01*
X413591Y272577D01*
X411335Y270321D01*
X361900D01*
X361900Y270322D01*
X361471Y270236D01*
X361107Y269993D01*
X361107Y269993D01*
X355623Y264509D01*
X355500Y264533D01*
X354837Y264401D01*
X354274Y264026D01*
X353899Y263463D01*
X353767Y262800D01*
X353899Y262137D01*
X354274Y261574D01*
X354837Y261199D01*
X355500Y261067D01*
X356163Y261199D01*
X356726Y261574D01*
X357552Y261371D01*
X357599Y261137D01*
X357974Y260574D01*
X358537Y260199D01*
X359200Y260067D01*
X359863Y260199D01*
X360426Y260574D01*
X360801Y261137D01*
X360933Y261800D01*
X360909Y261923D01*
X364765Y265778D01*
X424800D01*
X424800Y265778D01*
X425229Y265864D01*
X425593Y266107D01*
X432677Y273191D01*
X432800Y273167D01*
X433463Y273299D01*
X434026Y273674D01*
X434401Y274237D01*
X434533Y274900D01*
X434401Y275563D01*
X434026Y276126D01*
X433463Y276501D01*
X432800Y276633D01*
D02*
G37*
G36*
X165000Y279000D02*
X163458D01*
X163522Y278681D01*
X163986Y277986D01*
X164681Y277522D01*
X165000Y277458D01*
Y279000D01*
D02*
G37*
G36*
X167542D02*
X166000D01*
Y277458D01*
X166319Y277522D01*
X167014Y277986D01*
X167478Y278681D01*
X167542Y279000D01*
D02*
G37*
G36*
X236500Y281500D02*
X235060D01*
X235116Y281220D01*
X235558Y280558D01*
X236220Y280116D01*
X236500Y280060D01*
Y281500D01*
D02*
G37*
G36*
X246500D02*
X245060D01*
X245116Y281220D01*
X245558Y280558D01*
X246220Y280116D01*
X246500Y280060D01*
Y281500D01*
D02*
G37*
G36*
X248940D02*
X247500D01*
Y280060D01*
X247780Y280116D01*
X248442Y280558D01*
X248884Y281220D01*
X248940Y281500D01*
D02*
G37*
G36*
X304542Y282000D02*
X303000D01*
Y280458D01*
X303319Y280522D01*
X304014Y280986D01*
X304478Y281681D01*
X304542Y282000D01*
D02*
G37*
G36*
X238940Y281500D02*
X237500D01*
Y280060D01*
X237780Y280116D01*
X238442Y280558D01*
X238884Y281220D01*
X238940Y281500D01*
D02*
G37*
G36*
X241500D02*
X240060D01*
X240116Y281220D01*
X240558Y280558D01*
X241220Y280116D01*
X241500Y280060D01*
Y281500D01*
D02*
G37*
G36*
X243940D02*
X242500D01*
Y280060D01*
X242780Y280116D01*
X243442Y280558D01*
X243884Y281220D01*
X243940Y281500D01*
D02*
G37*
G36*
X206300Y250842D02*
X205981Y250778D01*
X205286Y250314D01*
X204822Y249619D01*
X204758Y249300D01*
X206300D01*
Y250842D01*
D02*
G37*
G36*
X207300D02*
Y249300D01*
X208842D01*
X208778Y249619D01*
X208314Y250314D01*
X207619Y250778D01*
X207300Y250842D01*
D02*
G37*
G36*
X395000Y251042D02*
X394681Y250978D01*
X393986Y250514D01*
X393522Y249819D01*
X393458Y249500D01*
X395000D01*
Y251042D01*
D02*
G37*
G36*
X241000Y250733D02*
X240337Y250601D01*
X239774Y250226D01*
X239399Y249663D01*
X239267Y249000D01*
X239267Y248997D01*
X235335Y245065D01*
X232493Y242224D01*
X196727D01*
X196726Y242226D01*
X196163Y242601D01*
X195500Y242733D01*
X194837Y242601D01*
X194274Y242226D01*
X193899Y241663D01*
X193767Y241000D01*
X193899Y240337D01*
X194274Y239774D01*
X194837Y239399D01*
X195500Y239267D01*
X196163Y239399D01*
X196726Y239774D01*
X196727Y239776D01*
X233000D01*
X233468Y239870D01*
X233865Y240135D01*
X235800Y242070D01*
X236600Y242070D01*
X240835Y237835D01*
X241232Y237570D01*
X241700Y237476D01*
X242273D01*
X242274Y237474D01*
X242837Y237099D01*
X243500Y236967D01*
X244163Y237099D01*
X244726Y237474D01*
X245101Y238037D01*
X245233Y238700D01*
X245101Y239363D01*
X244726Y239926D01*
X244163Y240301D01*
X243500Y240433D01*
X242837Y240301D01*
X242274Y239926D01*
X241700Y240431D01*
X238330Y243800D01*
Y244600D01*
X240998Y247267D01*
X241000Y247267D01*
X241663Y247399D01*
X242226Y247774D01*
X242601Y248337D01*
X242733Y249000D01*
X242601Y249663D01*
X242226Y250226D01*
X241663Y250601D01*
X241000Y250733D01*
D02*
G37*
G36*
X404500Y252733D02*
X403837Y252601D01*
X403274Y252226D01*
X402899Y251663D01*
X402767Y251000D01*
X402899Y250337D01*
X403274Y249774D01*
X403480Y249637D01*
Y237922D01*
X399500Y233942D01*
X399279Y233611D01*
X399202Y233221D01*
Y222159D01*
X397659Y220616D01*
X396920Y220922D01*
Y227637D01*
X397126Y227774D01*
X397501Y228337D01*
X397633Y229000D01*
X397501Y229663D01*
X397126Y230226D01*
X396563Y230601D01*
X395900Y230733D01*
X395237Y230601D01*
X394674Y230226D01*
X394299Y229663D01*
X394167Y229000D01*
X394222Y228723D01*
X393502Y228242D01*
X393263Y228401D01*
X392600Y228533D01*
X391937Y228401D01*
X391374Y228026D01*
X390999Y227463D01*
X390867Y226800D01*
X390999Y226137D01*
X391374Y225574D01*
X391580Y225437D01*
Y218502D01*
X370798Y197720D01*
X352625D01*
X352197Y198520D01*
X352317Y198699D01*
X352381Y199019D01*
X348298D01*
X348361Y198699D01*
X348481Y198520D01*
X348054Y197720D01*
X336625D01*
X336197Y198520D01*
X336317Y198699D01*
X336381Y199019D01*
X332297D01*
X332361Y198699D01*
X332481Y198520D01*
X332054Y197720D01*
X329122D01*
X324485Y202357D01*
X324533Y202600D01*
X324401Y203263D01*
X324026Y203826D01*
X323463Y204201D01*
X322800Y204333D01*
X322137Y204201D01*
X321999Y204109D01*
X321400Y203890D01*
X320801Y204109D01*
X320663Y204201D01*
X320000Y204333D01*
X319337Y204201D01*
X319198Y204109D01*
X318600Y203890D01*
X318002Y204109D01*
X317863Y204201D01*
X317200Y204333D01*
X316537Y204201D01*
X315974Y203826D01*
X315599Y203263D01*
X315467Y202600D01*
X315599Y201937D01*
X315974Y201374D01*
X316537Y200999D01*
X317200Y200867D01*
X317301Y200887D01*
X325209Y192979D01*
X325540Y192758D01*
X325930Y192680D01*
X339701D01*
X340171Y192019D01*
X344507D01*
X344978Y192680D01*
X372185D01*
X372575Y192758D01*
X372905Y192979D01*
X400783Y220856D01*
X401423Y220900D01*
X401771Y220817D01*
X401789Y220789D01*
X402352Y220414D01*
X403015Y220282D01*
X403678Y220414D01*
X403970Y220608D01*
X405799Y218779D01*
X406130Y218558D01*
X406520Y218480D01*
X458280D01*
X458670Y218558D01*
X459001Y218779D01*
X463560Y223338D01*
X463863Y223399D01*
X464426Y223774D01*
X464801Y224337D01*
X464933Y225000D01*
X464801Y225663D01*
X464426Y226226D01*
X463961Y226536D01*
X463830Y226824D01*
X463738Y227442D01*
X464001Y227837D01*
X464133Y228500D01*
X464001Y229163D01*
X463626Y229726D01*
X463063Y230101D01*
X462400Y230233D01*
X462159Y230185D01*
X461764Y230923D01*
X466822Y235980D01*
X474076D01*
X474437Y235109D01*
X475038Y234326D01*
X475822Y233725D01*
X476734Y233347D01*
X477713Y233218D01*
X479287D01*
X480266Y233347D01*
X481178Y233725D01*
X481962Y234326D01*
X482563Y235109D01*
X482940Y236021D01*
X483069Y237000D01*
X482940Y237979D01*
X482563Y238891D01*
X481962Y239674D01*
X481178Y240275D01*
X480266Y240653D01*
X479287Y240782D01*
X477713D01*
X476734Y240653D01*
X475822Y240275D01*
X475038Y239674D01*
X474437Y238891D01*
X474076Y238020D01*
X466400D01*
X466010Y237942D01*
X465679Y237721D01*
X457041Y229083D01*
X456419Y229593D01*
X456478Y229681D01*
X456542Y230000D01*
X455000D01*
Y228458D01*
X455319Y228522D01*
X455407Y228581D01*
X455917Y227959D01*
X454379Y226421D01*
X454158Y226090D01*
X454080Y225700D01*
Y225163D01*
X453874Y225026D01*
X453499Y224463D01*
X453367Y223800D01*
X453499Y223137D01*
X453777Y222720D01*
X453610Y222191D01*
X453423Y221920D01*
X434337D01*
X434094Y222720D01*
X434326Y222874D01*
X434701Y223437D01*
X434833Y224100D01*
X434701Y224763D01*
X434326Y225326D01*
X433763Y225701D01*
X433100Y225833D01*
X432437Y225701D01*
X431874Y225326D01*
X431870Y225320D01*
X423863D01*
X423726Y225526D01*
X423163Y225901D01*
X422500Y226033D01*
X421837Y225901D01*
X421274Y225526D01*
X420899Y224963D01*
X420767Y224300D01*
X420899Y223637D01*
X421274Y223074D01*
X421805Y222720D01*
X421817Y222659D01*
X421618Y221920D01*
X407522D01*
X406402Y223040D01*
X406596Y223332D01*
X406728Y223995D01*
X406596Y224658D01*
X406221Y225221D01*
X405658Y225596D01*
X404995Y225728D01*
X404332Y225596D01*
X403769Y225221D01*
X403394Y224658D01*
X403262Y223995D01*
X403015Y223748D01*
X402352Y223616D01*
X402041Y223409D01*
X401266Y223740D01*
X401241Y223763D01*
Y232799D01*
X405221Y236779D01*
X405442Y237110D01*
X405520Y237500D01*
Y249637D01*
X405726Y249774D01*
X406082Y250307D01*
X406215Y250327D01*
X406904Y250272D01*
X407022Y249681D01*
X407486Y248986D01*
X408181Y248522D01*
X408500Y248458D01*
Y250500D01*
Y252542D01*
X408181Y252478D01*
X407486Y252014D01*
X407022Y251319D01*
X407004Y251228D01*
X406188D01*
X406101Y251663D01*
X405726Y252226D01*
X405163Y252601D01*
X404500Y252733D01*
D02*
G37*
G36*
X411042Y250000D02*
X409500D01*
Y248458D01*
X409819Y248522D01*
X410514Y248986D01*
X410978Y249681D01*
X411042Y250000D01*
D02*
G37*
G36*
X396000Y251042D02*
Y249500D01*
X397542D01*
X397478Y249819D01*
X397014Y250514D01*
X396319Y250978D01*
X396000Y251042D01*
D02*
G37*
G36*
X162000Y258233D02*
X161337Y258101D01*
X160774Y257726D01*
X160399Y257163D01*
X160267Y256500D01*
X160267Y256498D01*
X156493Y252724D01*
X149227D01*
X149226Y252726D01*
X148837Y252985D01*
X148781Y253822D01*
X149260Y254276D01*
X153500D01*
X153968Y254370D01*
X154365Y254635D01*
X154498Y254767D01*
X154500Y254767D01*
X155163Y254899D01*
X155726Y255274D01*
X156101Y255837D01*
X156233Y256500D01*
X156101Y257163D01*
X155726Y257726D01*
X155163Y258101D01*
X154500Y258233D01*
X153837Y258101D01*
X153274Y257726D01*
X152899Y257163D01*
X152811Y256723D01*
X149227D01*
X149226Y256726D01*
X148663Y257101D01*
X148000Y257233D01*
X147337Y257101D01*
X146774Y256726D01*
X146399Y256163D01*
X146267Y255500D01*
X146399Y254837D01*
X146774Y254274D01*
X147316Y253913D01*
X147337Y253785D01*
Y253215D01*
X147316Y253087D01*
X146774Y252726D01*
X146399Y252163D01*
X146267Y251500D01*
X146399Y250837D01*
X146774Y250274D01*
X147337Y249899D01*
X148000Y249767D01*
X148663Y249899D01*
X149226Y250274D01*
X149227Y250276D01*
X157000D01*
X157468Y250370D01*
X157865Y250635D01*
X161997Y254767D01*
X162000Y254767D01*
X162663Y254899D01*
X163226Y255274D01*
X163601Y255837D01*
X163733Y256500D01*
X163601Y257163D01*
X163226Y257726D01*
X162663Y258101D01*
X162000Y258233D01*
D02*
G37*
G36*
X184000Y262733D02*
X183337Y262601D01*
X182774Y262226D01*
X182773Y262224D01*
X181500D01*
X181032Y262130D01*
X180635Y261865D01*
X177003Y258233D01*
X177000Y258233D01*
X176337Y258101D01*
X175774Y257726D01*
X175399Y257163D01*
X175267Y256500D01*
X175399Y255837D01*
X175472Y255727D01*
X175640Y255123D01*
X175268Y254702D01*
X174986Y254514D01*
X174522Y253819D01*
X174458Y253500D01*
X178542D01*
X178478Y253819D01*
X178173Y254277D01*
X178215Y255235D01*
X178226Y255274D01*
X178601Y255837D01*
X178733Y256500D01*
X178733Y256503D01*
X182007Y259776D01*
X182773D01*
X182774Y259774D01*
X183337Y259399D01*
X184000Y259267D01*
X184663Y259399D01*
X185226Y259774D01*
X185601Y260337D01*
X185733Y261000D01*
X185601Y261663D01*
X185226Y262226D01*
X184663Y262601D01*
X184000Y262733D01*
D02*
G37*
G36*
X455500Y279233D02*
X454837Y279101D01*
X454274Y278726D01*
X453899Y278163D01*
X453767Y277500D01*
X453899Y276837D01*
X454274Y276274D01*
X454837Y275899D01*
X455500Y275767D01*
X456163Y275899D01*
X456500Y276123D01*
X457930D01*
X472320Y261734D01*
X472399Y261337D01*
X472774Y260774D01*
X473337Y260399D01*
X474000Y260267D01*
X474663Y260399D01*
X475226Y260774D01*
X475601Y261337D01*
X475733Y262000D01*
X475601Y262663D01*
X475226Y263226D01*
X474663Y263601D01*
X474266Y263680D01*
X459473Y278473D01*
X459027Y278772D01*
X458500Y278876D01*
X456500D01*
X456163Y279101D01*
X455500Y279233D01*
D02*
G37*
G36*
X176000Y252500D02*
X174458D01*
X174522Y252181D01*
X174986Y251486D01*
X175681Y251022D01*
X176000Y250958D01*
Y252500D01*
D02*
G37*
G36*
X178542D02*
X177000D01*
Y250958D01*
X177319Y251022D01*
X178014Y251486D01*
X178478Y252181D01*
X178542Y252500D01*
D02*
G37*
G36*
X409500Y252542D02*
Y251000D01*
X411042D01*
X410978Y251319D01*
X410514Y252014D01*
X409819Y252478D01*
X409500Y252542D01*
D02*
G37*
G36*
X242500Y288940D02*
Y287500D01*
X243940D01*
X243884Y287780D01*
X243442Y288442D01*
X242780Y288884D01*
X242500Y288940D01*
D02*
G37*
G36*
X246500D02*
X246220Y288884D01*
X245558Y288442D01*
X245116Y287780D01*
X245060Y287500D01*
X246500D01*
Y288940D01*
D02*
G37*
G36*
X247500D02*
Y287500D01*
X248940D01*
X248884Y287780D01*
X248442Y288442D01*
X247780Y288884D01*
X247500Y288940D01*
D02*
G37*
G36*
X236500D02*
X236220Y288884D01*
X235558Y288442D01*
X235116Y287780D01*
X235060Y287500D01*
X236500D01*
Y288940D01*
D02*
G37*
G36*
X237500D02*
Y287500D01*
X238940D01*
X238884Y287780D01*
X238442Y288442D01*
X237780Y288884D01*
X237500Y288940D01*
D02*
G37*
G36*
X241500D02*
X241220Y288884D01*
X240558Y288442D01*
X240116Y287780D01*
X240060Y287500D01*
X241500D01*
Y288940D01*
D02*
G37*
G36*
X420000Y314733D02*
X419337Y314601D01*
X418774Y314226D01*
X418399Y313663D01*
X418267Y313000D01*
X418399Y312337D01*
X418774Y311774D01*
X419337Y311399D01*
X419734Y311320D01*
X431123Y299930D01*
Y291500D01*
X430899Y291163D01*
X430767Y290500D01*
X430899Y289837D01*
X431274Y289274D01*
X431837Y288899D01*
X432500Y288767D01*
X433163Y288899D01*
X433726Y289274D01*
X434101Y289837D01*
X434233Y290500D01*
X434101Y291163D01*
X433877Y291500D01*
Y300500D01*
X433772Y301027D01*
X433473Y301473D01*
X421680Y313266D01*
X421601Y313663D01*
X421226Y314226D01*
X420663Y314601D01*
X420000Y314733D01*
D02*
G37*
G36*
X238940Y291500D02*
X237500D01*
Y290060D01*
X237780Y290116D01*
X238442Y290558D01*
X238884Y291220D01*
X238940Y291500D01*
D02*
G37*
G36*
X241500D02*
X240060D01*
X240116Y291220D01*
X240558Y290558D01*
X241220Y290116D01*
X241500Y290060D01*
Y291500D01*
D02*
G37*
G36*
X243940D02*
X242500D01*
Y290060D01*
X242780Y290116D01*
X243442Y290558D01*
X243884Y291220D01*
X243940Y291500D01*
D02*
G37*
G36*
X476500D02*
X474958D01*
X475022Y291181D01*
X475486Y290486D01*
X476181Y290022D01*
X476500Y289958D01*
Y291500D01*
D02*
G37*
G36*
X479042D02*
X477500D01*
Y289958D01*
X477819Y290022D01*
X478514Y290486D01*
X478978Y291181D01*
X479042Y291500D01*
D02*
G37*
G36*
X236500D02*
X235060D01*
X235116Y291220D01*
X235558Y290558D01*
X236220Y290116D01*
X236500Y290060D01*
Y291500D01*
D02*
G37*
G36*
X242500Y283940D02*
Y282500D01*
X243940D01*
X243884Y282780D01*
X243442Y283442D01*
X242780Y283884D01*
X242500Y283940D01*
D02*
G37*
G36*
X246500D02*
X246220Y283884D01*
X245558Y283442D01*
X245116Y282780D01*
X245060Y282500D01*
X246500D01*
Y283940D01*
D02*
G37*
G36*
X247500D02*
Y282500D01*
X248940D01*
X248884Y282780D01*
X248442Y283442D01*
X247780Y283884D01*
X247500Y283940D01*
D02*
G37*
G36*
X236500D02*
X236220Y283884D01*
X235558Y283442D01*
X235116Y282780D01*
X235060Y282500D01*
X236500D01*
Y283940D01*
D02*
G37*
G36*
X237500D02*
Y282500D01*
X238940D01*
X238884Y282780D01*
X238442Y283442D01*
X237780Y283884D01*
X237500Y283940D01*
D02*
G37*
G36*
X241500D02*
X241220Y283884D01*
X240558Y283442D01*
X240116Y282780D01*
X240060Y282500D01*
X241500D01*
Y283940D01*
D02*
G37*
G36*
X303000Y284542D02*
Y283000D01*
X304542D01*
X304478Y283319D01*
X304014Y284014D01*
X303319Y284478D01*
X303000Y284542D01*
D02*
G37*
G36*
X243940Y286500D02*
X242500D01*
Y285060D01*
X242780Y285116D01*
X243442Y285558D01*
X243884Y286220D01*
X243940Y286500D01*
D02*
G37*
G36*
X246500D02*
X245060D01*
X245116Y286220D01*
X245558Y285558D01*
X246220Y285116D01*
X246500Y285060D01*
Y286500D01*
D02*
G37*
G36*
X248940D02*
X247500D01*
Y285060D01*
X247780Y285116D01*
X248442Y285558D01*
X248884Y286220D01*
X248940Y286500D01*
D02*
G37*
G36*
X236500D02*
X235060D01*
X235116Y286220D01*
X235558Y285558D01*
X236220Y285116D01*
X236500Y285060D01*
Y286500D01*
D02*
G37*
G36*
X238940D02*
X237500D01*
Y285060D01*
X237780Y285116D01*
X238442Y285558D01*
X238884Y286220D01*
X238940Y286500D01*
D02*
G37*
G36*
X241500D02*
X240060D01*
X240116Y286220D01*
X240558Y285558D01*
X241220Y285116D01*
X241500Y285060D01*
Y286500D01*
D02*
G37*
%LPD*%
D52*
X440500Y313500D02*
X444500Y309500D01*
X440500Y313500D02*
Y321000D01*
X420000Y313000D02*
X432500Y300500D01*
Y290500D02*
Y300500D01*
X455500Y277500D02*
X458500D01*
X474000Y262000D01*
D53*
X409000Y275500D02*
X414500Y281000D01*
X443500D01*
X194000Y289500D02*
X202500Y298000D01*
X203500D01*
X206500Y295500D02*
Y303000D01*
Y286000D02*
X221500D01*
X204000Y288500D02*
X206500Y286000D01*
X227500Y272000D02*
Y276000D01*
X221500Y282000D02*
X227500Y276000D01*
X198700Y276700D02*
X222300D01*
X192500Y273500D02*
X195500D01*
X198700Y276700D01*
X222300D02*
X224000Y275000D01*
X200500Y274500D02*
X220000D01*
X227000Y267500D01*
X192000Y278000D02*
X196500D01*
X189000Y275000D02*
X192000Y278000D01*
X189000Y272000D02*
Y275000D01*
Y272000D02*
X190500Y270500D01*
X195000D01*
X198500Y267000D01*
X200500Y289500D02*
X206500Y295500D01*
X197389Y289500D02*
X200500D01*
X199000Y281000D02*
X199500D01*
X196000Y284000D02*
X199000Y281000D01*
X196000Y284000D02*
Y288111D01*
X197389Y289500D01*
X198500Y286500D02*
X203000Y282000D01*
X221500D01*
X431700Y182300D02*
X435600D01*
X417400Y175800D02*
Y183400D01*
X421000Y176600D02*
Y183500D01*
X426600Y187400D02*
X431700Y182300D01*
X426600Y187400D02*
Y195600D01*
X427800Y196800D01*
X363100Y216300D02*
Y216600D01*
X360600Y213800D02*
X363100Y216300D01*
X360600Y210100D02*
Y213800D01*
X358419Y207919D02*
X360600Y210100D01*
X355181Y207919D02*
X358419D01*
X424800Y266900D02*
X432800Y274900D01*
X359200Y261800D02*
X364300Y266900D01*
X424800D01*
X355500Y262800D02*
X361900Y269200D01*
X411800D01*
X415300Y272700D01*
X323100Y255800D02*
X331000D01*
X281311Y306100D02*
X300600Y286811D01*
X299900Y279000D02*
X323100Y255800D01*
X265100Y306100D02*
X281311D01*
X300600Y284989D02*
Y286811D01*
X299900Y279000D02*
Y284289D01*
X300600Y284989D01*
X205000Y272000D02*
X218000D01*
X225000Y265000D01*
X230000D01*
D54*
X261000Y151657D02*
X264000Y154657D01*
X272000D01*
X181000Y224500D02*
X183039Y226539D01*
X181000Y216000D02*
Y224500D01*
X330430Y215830D02*
X332980Y213280D01*
Y209603D02*
Y213280D01*
Y209603D02*
X334664Y207919D01*
X324490Y209890D02*
X327040Y207340D01*
X328879D01*
X328330Y213970D02*
X331000Y211300D01*
Y209461D02*
Y211300D01*
X334664Y207919D02*
X355181D01*
X322510Y207910D02*
X325060Y205360D01*
X334043Y206419D02*
X361039D01*
X325060Y205360D02*
X328737D01*
X332179Y201919D01*
X328879Y207340D02*
X332800Y203419D01*
X326470Y211870D02*
X333421Y204919D01*
X331000Y209461D02*
X334043Y206419D01*
X361039D02*
X366160Y211540D01*
X333421Y204919D02*
X362509D01*
X368260Y210670D01*
X364180Y213520D02*
X364300Y213640D01*
X367030D02*
X368260Y212409D01*
X364300Y213640D02*
X367030D01*
X368260Y210670D02*
Y212409D01*
X332800Y203419D02*
X368719D01*
X370600Y205300D01*
X368300Y207600D02*
X369000Y208300D01*
X371100D01*
X373700Y205700D01*
Y204400D02*
Y205700D01*
X371219Y201919D02*
X373700Y204400D01*
X332179Y201919D02*
X371219D01*
X322800Y202600D02*
X328700Y196700D01*
X320000Y202430D02*
Y202600D01*
Y202430D02*
X327230Y195200D01*
X317200Y202430D02*
Y202600D01*
Y202430D02*
X325930Y193700D01*
X404500Y237500D02*
Y251000D01*
X422500Y224300D02*
X432900D01*
X433100Y224100D01*
X455100Y223800D02*
Y225700D01*
X466400Y237000D01*
X478500D01*
X400221Y233221D02*
X404500Y237500D01*
X403015Y222015D02*
X404005D01*
X406520Y219500D02*
X458280D01*
X404005Y222015D02*
X406520Y219500D01*
X458280D02*
X463200Y224420D01*
Y225000D01*
X457700Y220900D02*
X459300Y222500D01*
X407100Y220900D02*
X457700D01*
X404995Y223005D02*
X407100Y220900D01*
X459300Y222500D02*
Y225400D01*
X404995Y223005D02*
Y223995D01*
X459300Y225400D02*
X462400Y228500D01*
X363481Y228019D02*
X367900Y223600D01*
X348839Y228019D02*
X363481D01*
X362600Y233300D02*
X368000Y227900D01*
X344120Y233300D02*
X362600D01*
X338839Y228019D02*
X344120Y233300D01*
X288100Y281000D02*
X296900D01*
Y278200D02*
Y281000D01*
Y278200D02*
X338839Y236261D01*
Y228019D02*
Y236261D01*
X342820Y222000D02*
X348839Y228019D01*
X324800Y222000D02*
X342820D01*
X307900Y205100D02*
X324800Y222000D01*
X252937Y196337D02*
Y208037D01*
X253000Y208100D01*
X325930Y193700D02*
X372185D01*
X400221Y221737D01*
Y233221D01*
X327230Y195200D02*
X371700D01*
X395900Y219400D01*
Y229000D01*
X328700Y196700D02*
X371220D01*
X392600Y218080D01*
Y226800D01*
D55*
X443793Y234207D02*
X456207D01*
X456500Y234500D01*
X425000Y149500D02*
Y157500D01*
Y149500D02*
X427500Y147000D01*
X316000Y270000D02*
X319500Y266500D01*
X324000D01*
X327500Y273500D02*
X328700Y274700D01*
X331000D01*
X329000Y259000D02*
X331000Y261000D01*
Y271500D01*
X344000Y219500D02*
X347000Y222500D01*
X353000D01*
X324500Y259000D02*
X327500Y262000D01*
Y273500D01*
D57*
X443000Y171000D02*
Y174500D01*
X439000Y178500D02*
X443000Y174500D01*
X424500Y178500D02*
X439000D01*
X438500Y163500D02*
X443000Y159000D01*
X267500Y314000D02*
X278000D01*
X295000Y297000D01*
X387200Y181957D02*
X406042D01*
X425500Y162500D01*
D58*
X177000Y256500D02*
X181500Y261000D01*
X184000D01*
X205000Y259000D02*
X223500D01*
X205000Y254500D02*
X206000Y255500D01*
X266000Y264000D02*
Y287500D01*
X195500Y241000D02*
X233000D01*
X206000Y255500D02*
X221000D01*
X153500D02*
X154500Y256500D01*
X148000Y255500D02*
X153500D01*
X157000Y251500D02*
X162000Y256500D01*
X148000Y251500D02*
X157000D01*
X266600Y285400D02*
X297300D01*
X221000Y255500D02*
X262600D01*
X288100Y281000D01*
X236200Y244200D02*
X241700Y238700D01*
X243500D01*
X268900Y209800D02*
X277800Y200900D01*
X278000D01*
X233000Y241000D02*
X236200Y244200D01*
X241000Y249000D01*
D59*
X477500Y328842D02*
D03*
Y309157D02*
D03*
D60*
X488130Y305221D02*
D03*
Y332780D02*
D03*
D61*
X308839Y228019D02*
D03*
X318839D02*
D03*
X328839D02*
D03*
X338839D02*
D03*
X348839D02*
D03*
X311339Y148019D02*
D03*
Y158019D02*
D03*
Y168019D02*
D03*
Y178019D02*
D03*
Y188019D02*
D03*
D62*
X387200Y152430D02*
D03*
Y162272D02*
D03*
Y172115D02*
D03*
Y181957D02*
D03*
D63*
Y192000D02*
D03*
D64*
X247000Y282000D02*
D03*
Y287000D02*
D03*
Y292000D02*
D03*
X242000D02*
D03*
Y287000D02*
D03*
Y282000D02*
D03*
X237000Y292000D02*
D03*
Y287000D02*
D03*
Y282000D02*
D03*
D65*
X478500Y247000D02*
D03*
Y237000D02*
D03*
Y227000D02*
D03*
Y217000D02*
D03*
Y207000D02*
D03*
D66*
X433500Y321500D02*
D03*
X409000Y275500D02*
D03*
X444000Y281500D02*
D03*
X437750Y300250D02*
D03*
X275000Y164657D02*
D03*
X273000Y150657D02*
D03*
X261000Y151657D02*
D03*
X272000Y154657D02*
D03*
X262500Y148658D02*
D03*
X450000Y243000D02*
D03*
X454500Y230500D02*
D03*
X439000Y235500D02*
D03*
X443793Y234207D02*
D03*
X456500Y234500D02*
D03*
X433500Y169500D02*
D03*
X434500Y161500D02*
D03*
X438500Y163500D02*
D03*
X406496Y160504D02*
D03*
X456504D02*
D03*
X425500Y162500D02*
D03*
X447039Y190961D02*
D03*
X443000Y171000D02*
D03*
X453500Y172500D02*
D03*
X424500Y178500D02*
D03*
X443000Y159000D02*
D03*
X429500Y169500D02*
D03*
X334339Y199519D02*
D03*
Y183519D02*
D03*
X350339D02*
D03*
Y199519D02*
D03*
X342339Y191519D02*
D03*
X177500Y221500D02*
D03*
X183039Y226539D02*
D03*
X181000Y216000D02*
D03*
X193500Y221500D02*
D03*
X268900Y171358D02*
D03*
X319000Y298500D02*
D03*
X176500Y253000D02*
D03*
X165500Y279500D02*
D03*
X154219Y235425D02*
D03*
X204000Y288500D02*
D03*
X194000Y289500D02*
D03*
X198500Y267000D02*
D03*
X203500Y298000D02*
D03*
X207000Y320500D02*
D03*
X206800Y248800D02*
D03*
X287200Y318800D02*
D03*
X206500Y303000D02*
D03*
X221500Y286000D02*
D03*
X192500Y273500D02*
D03*
X227000Y267500D02*
D03*
X230000Y265000D02*
D03*
X224000Y275000D02*
D03*
X227500Y272000D02*
D03*
X196500Y278000D02*
D03*
X200500Y274500D02*
D03*
X199500Y281000D02*
D03*
X205000Y272000D02*
D03*
X198500Y286500D02*
D03*
X409000Y250500D02*
D03*
X415500Y240000D02*
D03*
X373405Y294095D02*
D03*
X343405D02*
D03*
X391695Y241000D02*
D03*
X395500D02*
D03*
Y249000D02*
D03*
X425000Y157500D02*
D03*
X427500Y147000D02*
D03*
X177000Y256500D02*
D03*
X184000Y261000D02*
D03*
X205000Y259000D02*
D03*
X223500D02*
D03*
X205000Y254500D02*
D03*
X266000Y287500D02*
D03*
Y264000D02*
D03*
X241000Y249000D02*
D03*
X195500Y241000D02*
D03*
X444500Y309500D02*
D03*
X440500Y321000D02*
D03*
X432500Y290500D02*
D03*
X420000Y313000D02*
D03*
X477000Y292000D02*
D03*
X455500Y277500D02*
D03*
X474000Y262000D02*
D03*
X267500Y314000D02*
D03*
X295000Y297000D02*
D03*
X316000Y270000D02*
D03*
X324000Y266500D02*
D03*
X329000Y259000D02*
D03*
X324500D02*
D03*
X221000Y255500D02*
D03*
X331000Y274700D02*
D03*
Y271500D02*
D03*
X154500Y256500D02*
D03*
X148000Y255500D02*
D03*
X162000Y256500D02*
D03*
X148000Y251500D02*
D03*
X355839Y210319D02*
D03*
X344000Y219500D02*
D03*
X336000Y218500D02*
D03*
X330430Y215830D02*
D03*
X326470Y211870D02*
D03*
X324490Y209890D02*
D03*
X322510Y207910D02*
D03*
X328330Y213970D02*
D03*
X435600Y182300D02*
D03*
X364180Y213520D02*
D03*
X417400Y175800D02*
D03*
Y183400D02*
D03*
X421000Y176600D02*
D03*
Y183500D02*
D03*
X427800Y196800D02*
D03*
X363100Y216600D02*
D03*
X353000Y222500D02*
D03*
X370600Y205300D02*
D03*
X366160Y211540D02*
D03*
X368300Y207600D02*
D03*
X322800Y202600D02*
D03*
X320000D02*
D03*
X317200D02*
D03*
X404500Y251000D02*
D03*
X395900Y229000D02*
D03*
X422500Y224300D02*
D03*
X433100Y224100D02*
D03*
X455100Y223800D02*
D03*
X392600Y226800D02*
D03*
X404995Y223995D02*
D03*
X403015Y222015D02*
D03*
X463200Y225000D02*
D03*
X462400Y228500D02*
D03*
X367900Y223600D02*
D03*
X368000Y227900D02*
D03*
X265100Y306100D02*
D03*
X432800Y274900D02*
D03*
X359200Y261800D02*
D03*
X331000Y255800D02*
D03*
X355500Y262800D02*
D03*
X415300Y272700D02*
D03*
X302500Y282500D02*
D03*
X297300Y285400D02*
D03*
X296900Y281000D02*
D03*
X307900Y205100D02*
D03*
X252937Y196337D02*
D03*
X253000Y208100D02*
D03*
X243500Y238700D02*
D03*
X268900Y209800D02*
D03*
X278000Y200900D02*
D03*
X433500Y173500D02*
D03*
X429500D02*
D03*
M02*
