G04 Layer_Color=15132400*
%FSLAX25Y25*%
%MOIN*%
G70*
G01*
G75*
%ADD40C,0.00800*%
%ADD41C,0.01000*%
%ADD61C,0.00984*%
%ADD62C,0.00394*%
%ADD63C,0.00591*%
%ADD64C,0.00787*%
%ADD65C,0.01575*%
G36*
X309454Y303961D02*
X309662Y303836D01*
X309912Y303670D01*
X309953Y303586D01*
X310079Y303420D01*
X310162Y303128D01*
Y302961D01*
X310120Y302753D01*
Y302712D01*
Y302670D01*
X310037Y302420D01*
X309828Y302170D01*
X309537Y301962D01*
X309454D01*
X309245Y301920D01*
X308370D01*
X308037Y301878D01*
X303080D01*
X302288Y301920D01*
X301122D01*
X300955Y301962D01*
X300872D01*
X300788Y302003D01*
X300622Y302128D01*
X300413Y302420D01*
X300288Y302795D01*
Y302836D01*
Y302878D01*
Y303128D01*
X300413Y303461D01*
X300497Y303586D01*
X300622Y303753D01*
X300663Y303795D01*
X300747Y303878D01*
X300872Y303920D01*
X300997Y303961D01*
X301372D01*
X301580Y304003D01*
X309287D01*
X309454Y303961D01*
D02*
G37*
G36*
X309578Y299920D02*
Y299879D01*
Y299795D01*
X309537Y299670D01*
X309495Y299462D01*
X309412Y299254D01*
X309287Y299045D01*
X309120Y298795D01*
X308912Y298545D01*
X308870Y298504D01*
X308829Y298421D01*
X308704Y298337D01*
X308537Y298212D01*
X308079Y297921D01*
X307829Y297837D01*
X307537Y297754D01*
X307496D01*
X307371Y297712D01*
X307204Y297629D01*
X307162Y297546D01*
Y297504D01*
X307121Y297379D01*
X307037Y297212D01*
X306954Y297004D01*
X306787Y296754D01*
X306621Y296546D01*
X306371Y296338D01*
X306037Y296171D01*
X305996D01*
X305954Y296129D01*
X305829Y296088D01*
X305662Y296046D01*
X305204Y295963D01*
X304913Y296004D01*
X304621Y296046D01*
X304579D01*
X304454Y296129D01*
X304246Y296213D01*
X304038Y296379D01*
X303788Y296587D01*
X303579Y296837D01*
X303371Y297171D01*
X303246Y297546D01*
Y297587D01*
X303205Y297629D01*
X303121Y297671D01*
X302996Y297754D01*
X302913D01*
X302705Y297837D01*
X302455Y297921D01*
X302080Y298087D01*
X301747Y298337D01*
X301372Y298670D01*
X301080Y299129D01*
X300872Y299670D01*
Y299712D01*
Y299795D01*
X300830Y299920D01*
Y300087D01*
X300788Y300212D01*
X309620D01*
X309578Y299920D01*
D02*
G37*
G36*
X344432Y342550D02*
X352432D01*
Y335850D01*
X344432D01*
Y327850D01*
X337732D01*
Y335850D01*
X329782D01*
Y342550D01*
X337732D01*
Y350500D01*
X344432D01*
Y342550D01*
D02*
G37*
G36*
X309953Y320958D02*
X310245Y320750D01*
X310287Y320709D01*
X310328Y320667D01*
X310495Y320417D01*
X310537Y320209D01*
X310578Y320042D01*
X310537Y319834D01*
X310453Y319584D01*
Y319542D01*
X310412Y319500D01*
X310204Y319292D01*
X309870Y319084D01*
X309620Y319042D01*
X309370D01*
X309329Y319084D01*
X309162Y319167D01*
X308954Y319292D01*
X308745Y319500D01*
Y319542D01*
X308704Y319625D01*
X308662Y319750D01*
X308620Y320000D01*
Y320084D01*
Y320209D01*
X308662Y320417D01*
X308745Y320542D01*
X308787Y320584D01*
X308870Y320667D01*
X308995Y320792D01*
X309204Y320917D01*
X309412Y321000D01*
X309662D01*
X309953Y320958D01*
D02*
G37*
G36*
X306454Y331040D02*
X306496D01*
X306662Y330999D01*
X306912Y330957D01*
X307246Y330874D01*
X307662Y330790D01*
X308120Y330624D01*
X308662Y330457D01*
X309204Y330249D01*
X309828Y329957D01*
X310412Y329665D01*
X311037Y329291D01*
X311662Y328832D01*
X312286Y328332D01*
X312870Y327791D01*
X313453Y327124D01*
X313953Y326416D01*
Y326374D01*
X314036Y326333D01*
X314078Y326208D01*
X314203Y326041D01*
X314328Y325791D01*
X314453Y325541D01*
X314744Y324958D01*
X315036Y324208D01*
X315286Y323333D01*
X315494Y322375D01*
X315619Y321375D01*
Y321334D01*
Y321250D01*
Y321083D01*
Y320875D01*
Y320625D01*
Y320334D01*
X315578Y319667D01*
X315453Y318834D01*
X315286Y317959D01*
X314994Y317001D01*
X314619Y316084D01*
X314578Y316043D01*
X314494Y315876D01*
X314370Y315668D01*
X314203Y315334D01*
X313953Y314960D01*
X313703Y314543D01*
X313370Y314043D01*
X312995Y313543D01*
Y313501D01*
X312911Y313460D01*
X312828Y313335D01*
X312745Y313168D01*
X312453Y312793D01*
X312078Y312293D01*
X311662Y311710D01*
X311245Y311085D01*
X310828Y310419D01*
X310412Y309794D01*
X309995Y309085D01*
Y305711D01*
X305954D01*
Y315126D01*
X307371Y316668D01*
X307454Y316751D01*
X307621Y316917D01*
X307829Y317126D01*
X308120Y317417D01*
X308370Y317709D01*
X308620Y317917D01*
X308829Y318084D01*
X308912Y318167D01*
X308954D01*
X308995Y318126D01*
X309204Y318084D01*
X309495Y318042D01*
X309828Y318084D01*
X309870D01*
X309995Y318126D01*
X310204Y318167D01*
X310453Y318292D01*
X310703Y318417D01*
X310953Y318626D01*
X311203Y318876D01*
X311370Y319209D01*
X311412Y319250D01*
X311453Y319417D01*
X311495Y319667D01*
X311537Y320000D01*
Y320042D01*
Y320084D01*
Y320292D01*
X311453Y320584D01*
X311370Y320834D01*
Y320875D01*
X311287Y320958D01*
X311203Y321083D01*
X311078Y321250D01*
X310745Y321583D01*
X310495Y321750D01*
X310245Y321875D01*
X310204D01*
X310120Y321917D01*
X309953Y321958D01*
X309787Y322000D01*
X309329D01*
X309037Y321917D01*
X308787Y321833D01*
X308745D01*
X308662Y321750D01*
X308537Y321667D01*
X308370Y321542D01*
X307996Y321167D01*
X307871Y320917D01*
X307746Y320667D01*
Y320625D01*
X307704Y320542D01*
Y320375D01*
X307662Y320209D01*
X307704Y319709D01*
X307746Y319417D01*
X307871Y319126D01*
X307996Y318792D01*
X306996Y317751D01*
X306037Y316668D01*
X305996Y316751D01*
Y316834D01*
X305954Y316959D01*
Y317167D01*
Y317459D01*
Y317501D01*
Y317626D01*
Y317834D01*
Y318126D01*
Y318542D01*
Y319042D01*
Y319667D01*
Y320417D01*
Y324250D01*
X306287Y324416D01*
X306329Y324458D01*
X306454Y324500D01*
X306662Y324625D01*
X306871Y324791D01*
X307079Y325041D01*
X307287Y325333D01*
X307412Y325708D01*
X307454Y326124D01*
Y326166D01*
Y326333D01*
X307412Y326583D01*
X307329Y326833D01*
X307204Y327166D01*
X306996Y327457D01*
X306704Y327749D01*
X306329Y327999D01*
X306287Y328041D01*
X306121Y328082D01*
X305871Y328124D01*
X305163D01*
X304913Y328082D01*
X304663Y328041D01*
X304621Y327999D01*
X304496Y327957D01*
X304288Y327791D01*
X304079Y327624D01*
X303871Y327374D01*
X303663Y327041D01*
X303538Y326666D01*
X303496Y326208D01*
Y326166D01*
Y325999D01*
X303579Y325791D01*
X303663Y325500D01*
X303788Y325208D01*
X303996Y324916D01*
X304288Y324666D01*
X304663Y324416D01*
X304954Y324250D01*
Y313085D01*
X304829Y313251D01*
Y313293D01*
X304746Y313376D01*
X304663Y313460D01*
X304621Y313501D01*
X304538Y313585D01*
X304413Y313710D01*
X304246Y313918D01*
X304204Y313960D01*
X304079Y314085D01*
X303913Y314251D01*
X303746Y314418D01*
X302830Y315376D01*
X302913Y315584D01*
X302955Y315626D01*
X302996Y315751D01*
X303038Y316001D01*
Y316334D01*
Y316376D01*
Y316418D01*
Y316626D01*
X302955Y316917D01*
X302871Y317167D01*
X302830Y317209D01*
X302746Y317376D01*
X302580Y317584D01*
X302371Y317834D01*
X302080Y318042D01*
X301747Y318209D01*
X301288Y318334D01*
X300788Y318292D01*
X300747D01*
X300622Y318251D01*
X300455Y318209D01*
X300247Y318084D01*
X299997Y317959D01*
X299747Y317792D01*
X299538Y317542D01*
X299330Y317251D01*
Y317209D01*
X299289Y317084D01*
X299205Y316917D01*
X299164Y316668D01*
Y316418D01*
Y316126D01*
X299205Y315793D01*
X299330Y315459D01*
Y315418D01*
X299413Y315334D01*
X299580Y315085D01*
X299955Y314751D01*
X300163Y314626D01*
X300455Y314501D01*
X300497D01*
X300580Y314460D01*
X300747Y314418D01*
X301413D01*
X301663Y314460D01*
X301913Y314543D01*
X302121Y314668D01*
X302288Y314501D01*
X302330Y314460D01*
X302371Y314418D01*
X302496Y314293D01*
X302663Y314126D01*
X302913Y313835D01*
X303246Y313501D01*
X303705Y313001D01*
X304954Y311627D01*
Y308669D01*
Y305711D01*
X300372D01*
Y307502D01*
Y309210D01*
X299872Y310044D01*
X299830Y310127D01*
X299663Y310335D01*
X299455Y310668D01*
X299164Y311127D01*
X298789Y311668D01*
X298372Y312252D01*
X297914Y312918D01*
X297414Y313626D01*
X297372Y313710D01*
X297247Y313876D01*
X297039Y314126D01*
X296789Y314460D01*
X296539Y314834D01*
X296289Y315251D01*
X295997Y315668D01*
X295789Y316043D01*
Y316084D01*
X295747Y316168D01*
X295664Y316293D01*
X295581Y316501D01*
X295497Y316709D01*
X295414Y317001D01*
X295206Y317667D01*
X294998Y318501D01*
X294831Y319375D01*
X294748Y320375D01*
Y321375D01*
Y321417D01*
Y321542D01*
X294789Y321750D01*
X294831Y322000D01*
X294873Y322292D01*
X294956Y322667D01*
X295039Y323083D01*
X295206Y323541D01*
X295539Y324541D01*
X295997Y325583D01*
X296331Y326124D01*
X296664Y326666D01*
X297039Y327207D01*
X297497Y327708D01*
X297539Y327749D01*
X297622Y327832D01*
X297747Y327957D01*
X297955Y328124D01*
X298205Y328332D01*
X298497Y328582D01*
X298830Y328832D01*
X299205Y329124D01*
X299622Y329374D01*
X300122Y329665D01*
X301163Y330207D01*
X302330Y330665D01*
X302996Y330832D01*
X303663Y330957D01*
X303705D01*
X303871Y330999D01*
X304121D01*
X304454Y331040D01*
X304871D01*
X305371Y331082D01*
X305871D01*
X306454Y331040D01*
D02*
G37*
G36*
X301413Y317209D02*
X301705Y317084D01*
X301830Y316917D01*
X301955Y316751D01*
Y316709D01*
X301996Y316668D01*
X302038Y316418D01*
Y316251D01*
Y316084D01*
X301955Y315876D01*
X301830Y315709D01*
X301747Y315626D01*
X301538Y315501D01*
X301247Y315376D01*
X300872D01*
X300788Y315418D01*
X300580Y315501D01*
X300372Y315709D01*
X300163Y316043D01*
Y316084D01*
Y316126D01*
X300122Y316376D01*
X300163Y316668D01*
X300247Y316834D01*
X300372Y316959D01*
X300413Y317001D01*
X300538Y317126D01*
X300788Y317251D01*
X301080Y317292D01*
X301163D01*
X301413Y317209D01*
D02*
G37*
G36*
X201782Y334200D02*
X195232D01*
Y346500D01*
X201782D01*
Y334200D01*
D02*
G37*
G36*
X163902Y398749D02*
X163935D01*
X163977Y398745D01*
X164023Y398741D01*
X164118Y398724D01*
X164222Y398703D01*
X164330Y398674D01*
X164435Y398637D01*
X164439D01*
X164447Y398632D01*
X164460Y398624D01*
X164480Y398616D01*
X164530Y398587D01*
X164588Y398549D01*
X164659Y398503D01*
X164726Y398445D01*
X164796Y398375D01*
X164855Y398295D01*
Y398291D01*
X164863Y398287D01*
X164867Y398275D01*
X164880Y398258D01*
X164888Y398237D01*
X164900Y398212D01*
X164929Y398150D01*
X164959Y398075D01*
X164984Y397992D01*
X165004Y397896D01*
X165013Y397796D01*
X164605Y397767D01*
Y397771D01*
Y397780D01*
X164601Y397796D01*
X164597Y397817D01*
X164593Y397842D01*
X164584Y397871D01*
X164564Y397938D01*
X164534Y398008D01*
X164497Y398083D01*
X164447Y398158D01*
X164380Y398221D01*
X164372Y398229D01*
X164360Y398233D01*
X164347Y398246D01*
X164326Y398258D01*
X164301Y398271D01*
X164272Y398283D01*
X164243Y398300D01*
X164206Y398312D01*
X164164Y398325D01*
X164118Y398337D01*
X164068Y398349D01*
X164014Y398362D01*
X163956Y398366D01*
X163894Y398375D01*
X163765D01*
X163732Y398370D01*
X163698Y398366D01*
X163615Y398358D01*
X163523Y398341D01*
X163432Y398316D01*
X163345Y398279D01*
X163303Y398258D01*
X163270Y398233D01*
X163261Y398225D01*
X163241Y398208D01*
X163216Y398179D01*
X163182Y398137D01*
X163149Y398088D01*
X163124Y398029D01*
X163103Y397963D01*
X163095Y397892D01*
Y397884D01*
Y397863D01*
X163103Y397834D01*
X163112Y397792D01*
X163124Y397746D01*
X163145Y397701D01*
X163174Y397655D01*
X163216Y397609D01*
X163224Y397605D01*
X163232Y397597D01*
X163245Y397592D01*
X163261Y397580D01*
X163282Y397568D01*
X163311Y397555D01*
X163340Y397543D01*
X163382Y397526D01*
X163428Y397505D01*
X163478Y397488D01*
X163536Y397468D01*
X163602Y397447D01*
X163677Y397426D01*
X163761Y397405D01*
X163852Y397384D01*
X163856D01*
X163873Y397380D01*
X163902Y397372D01*
X163935Y397364D01*
X163977Y397355D01*
X164027Y397343D01*
X164077Y397330D01*
X164135Y397314D01*
X164251Y397285D01*
X164368Y397251D01*
X164422Y397231D01*
X164476Y397214D01*
X164522Y397197D01*
X164559Y397181D01*
X164564D01*
X164572Y397176D01*
X164584Y397168D01*
X164605Y397156D01*
X164655Y397131D01*
X164717Y397093D01*
X164784Y397043D01*
X164850Y396989D01*
X164917Y396923D01*
X164971Y396852D01*
Y396848D01*
X164975Y396844D01*
X164984Y396831D01*
X164992Y396819D01*
X165013Y396777D01*
X165042Y396723D01*
X165067Y396656D01*
X165088Y396577D01*
X165104Y396494D01*
X165108Y396398D01*
Y396394D01*
Y396386D01*
Y396374D01*
X165104Y396357D01*
Y396332D01*
X165100Y396307D01*
X165092Y396245D01*
X165071Y396170D01*
X165046Y396091D01*
X165009Y396003D01*
X164959Y395920D01*
Y395916D01*
X164950Y395912D01*
X164942Y395899D01*
X164934Y395883D01*
X164896Y395841D01*
X164850Y395791D01*
X164792Y395737D01*
X164722Y395679D01*
X164634Y395621D01*
X164539Y395571D01*
X164534D01*
X164526Y395567D01*
X164509Y395558D01*
X164493Y395550D01*
X164464Y395542D01*
X164435Y395533D01*
X164401Y395521D01*
X164360Y395508D01*
X164272Y395487D01*
X164168Y395467D01*
X164052Y395450D01*
X163927Y395446D01*
X163885D01*
X163856Y395450D01*
X163819D01*
X163773Y395454D01*
X163727Y395458D01*
X163673Y395462D01*
X163561Y395475D01*
X163436Y395500D01*
X163315Y395529D01*
X163199Y395571D01*
X163195D01*
X163187Y395575D01*
X163170Y395583D01*
X163149Y395596D01*
X163128Y395608D01*
X163099Y395625D01*
X163033Y395666D01*
X162958Y395720D01*
X162883Y395787D01*
X162808Y395866D01*
X162741Y395953D01*
Y395957D01*
X162733Y395966D01*
X162725Y395978D01*
X162716Y395999D01*
X162704Y396024D01*
X162687Y396049D01*
X162675Y396082D01*
X162658Y396120D01*
X162625Y396207D01*
X162596Y396303D01*
X162575Y396415D01*
X162567Y396532D01*
X162966Y396565D01*
Y396561D01*
Y396552D01*
X162970Y396540D01*
Y396523D01*
X162978Y396482D01*
X162991Y396424D01*
X163008Y396361D01*
X163033Y396294D01*
X163062Y396228D01*
X163095Y396165D01*
X163099Y396157D01*
X163116Y396141D01*
X163141Y396111D01*
X163174Y396078D01*
X163220Y396037D01*
X163274Y395995D01*
X163340Y395953D01*
X163415Y395916D01*
X163419D01*
X163424Y395912D01*
X163436Y395908D01*
X163453Y395903D01*
X163474Y395895D01*
X163498Y395887D01*
X163561Y395870D01*
X163632Y395853D01*
X163715Y395837D01*
X163806Y395829D01*
X163906Y395824D01*
X163948D01*
X163994Y395829D01*
X164052Y395833D01*
X164114Y395841D01*
X164189Y395853D01*
X164260Y395870D01*
X164330Y395895D01*
X164335D01*
X164339Y395899D01*
X164360Y395908D01*
X164393Y395924D01*
X164435Y395945D01*
X164480Y395974D01*
X164526Y396007D01*
X164572Y396045D01*
X164609Y396091D01*
X164613Y396095D01*
X164622Y396111D01*
X164638Y396141D01*
X164655Y396174D01*
X164672Y396216D01*
X164688Y396261D01*
X164697Y396311D01*
X164701Y396365D01*
Y396374D01*
Y396390D01*
X164697Y396419D01*
X164688Y396453D01*
X164680Y396494D01*
X164663Y396540D01*
X164638Y396586D01*
X164609Y396627D01*
X164605Y396632D01*
X164593Y396648D01*
X164572Y396669D01*
X164543Y396694D01*
X164501Y396723D01*
X164451Y396752D01*
X164393Y396785D01*
X164322Y396814D01*
X164314Y396819D01*
X164297Y396823D01*
X164281Y396831D01*
X164260Y396835D01*
X164235Y396844D01*
X164201Y396852D01*
X164168Y396864D01*
X164127Y396873D01*
X164081Y396885D01*
X164027Y396902D01*
X163969Y396914D01*
X163902Y396931D01*
X163831Y396948D01*
X163752Y396968D01*
X163748D01*
X163732Y396973D01*
X163711Y396981D01*
X163681Y396985D01*
X163644Y396998D01*
X163607Y397006D01*
X163511Y397035D01*
X163411Y397064D01*
X163307Y397101D01*
X163216Y397135D01*
X163174Y397156D01*
X163137Y397172D01*
X163132D01*
X163128Y397176D01*
X163116Y397185D01*
X163099Y397193D01*
X163057Y397218D01*
X163008Y397255D01*
X162953Y397297D01*
X162895Y397347D01*
X162841Y397405D01*
X162795Y397468D01*
Y397472D01*
X162791Y397476D01*
X162779Y397501D01*
X162762Y397534D01*
X162741Y397584D01*
X162721Y397642D01*
X162704Y397713D01*
X162691Y397788D01*
X162687Y397867D01*
Y397871D01*
Y397880D01*
Y397892D01*
X162691Y397909D01*
X162696Y397954D01*
X162704Y398017D01*
X162721Y398088D01*
X162746Y398162D01*
X162779Y398241D01*
X162825Y398320D01*
Y398325D01*
X162833Y398329D01*
X162849Y398354D01*
X162883Y398395D01*
X162924Y398441D01*
X162983Y398491D01*
X163049Y398545D01*
X163132Y398595D01*
X163224Y398641D01*
X163228D01*
X163236Y398645D01*
X163249Y398653D01*
X163270Y398657D01*
X163295Y398666D01*
X163324Y398678D01*
X163357Y398687D01*
X163394Y398699D01*
X163482Y398716D01*
X163582Y398736D01*
X163694Y398749D01*
X163811Y398753D01*
X163869D01*
X163902Y398749D01*
D02*
G37*
G36*
X167975Y398320D02*
X166922D01*
Y395500D01*
X166498D01*
Y398320D01*
X165445D01*
Y398699D01*
X167975D01*
Y398320D01*
D02*
G37*
G36*
X162159D02*
X160424D01*
Y397330D01*
X161926D01*
Y396952D01*
X160424D01*
Y395500D01*
X160000D01*
Y398699D01*
X162159D01*
Y398320D01*
D02*
G37*
G36*
X140335Y397249D02*
X140369D01*
X140410Y397245D01*
X140456Y397241D01*
X140552Y397224D01*
X140656Y397203D01*
X140764Y397174D01*
X140868Y397137D01*
X140872D01*
X140880Y397132D01*
X140893Y397124D01*
X140914Y397116D01*
X140963Y397087D01*
X141022Y397049D01*
X141092Y397004D01*
X141159Y396945D01*
X141230Y396874D01*
X141288Y396796D01*
Y396791D01*
X141296Y396787D01*
X141300Y396775D01*
X141313Y396758D01*
X141321Y396737D01*
X141334Y396712D01*
X141363Y396650D01*
X141392Y396575D01*
X141417Y396492D01*
X141438Y396396D01*
X141446Y396296D01*
X141038Y396267D01*
Y396271D01*
Y396280D01*
X141034Y396296D01*
X141030Y396317D01*
X141026Y396342D01*
X141018Y396371D01*
X140997Y396438D01*
X140968Y396508D01*
X140930Y396583D01*
X140880Y396658D01*
X140814Y396721D01*
X140805Y396729D01*
X140793Y396733D01*
X140780Y396746D01*
X140760Y396758D01*
X140735Y396771D01*
X140706Y396783D01*
X140676Y396800D01*
X140639Y396812D01*
X140597Y396825D01*
X140552Y396837D01*
X140502Y396849D01*
X140448Y396862D01*
X140389Y396866D01*
X140327Y396874D01*
X140198D01*
X140165Y396870D01*
X140131Y396866D01*
X140048Y396858D01*
X139957Y396841D01*
X139865Y396816D01*
X139778Y396779D01*
X139736Y396758D01*
X139703Y396733D01*
X139695Y396725D01*
X139674Y396708D01*
X139649Y396679D01*
X139616Y396637D01*
X139582Y396587D01*
X139557Y396529D01*
X139537Y396463D01*
X139528Y396392D01*
Y396384D01*
Y396363D01*
X139537Y396334D01*
X139545Y396292D01*
X139557Y396246D01*
X139578Y396201D01*
X139607Y396155D01*
X139649Y396109D01*
X139657Y396105D01*
X139666Y396097D01*
X139678Y396092D01*
X139695Y396080D01*
X139716Y396068D01*
X139745Y396055D01*
X139774Y396042D01*
X139815Y396026D01*
X139861Y396005D01*
X139911Y395988D01*
X139969Y395968D01*
X140036Y395947D01*
X140111Y395926D01*
X140194Y395905D01*
X140285Y395884D01*
X140290D01*
X140306Y395880D01*
X140335Y395872D01*
X140369Y395864D01*
X140410Y395855D01*
X140460Y395843D01*
X140510Y395830D01*
X140568Y395814D01*
X140685Y395785D01*
X140801Y395751D01*
X140855Y395730D01*
X140909Y395714D01*
X140955Y395697D01*
X140993Y395681D01*
X140997D01*
X141005Y395676D01*
X141018Y395668D01*
X141038Y395656D01*
X141088Y395631D01*
X141151Y395593D01*
X141217Y395543D01*
X141284Y395489D01*
X141350Y395423D01*
X141404Y395352D01*
Y395348D01*
X141409Y395344D01*
X141417Y395331D01*
X141425Y395319D01*
X141446Y395277D01*
X141475Y395223D01*
X141500Y395156D01*
X141521Y395077D01*
X141538Y394994D01*
X141542Y394899D01*
Y394894D01*
Y394886D01*
Y394873D01*
X141538Y394857D01*
Y394832D01*
X141533Y394807D01*
X141525Y394745D01*
X141504Y394670D01*
X141479Y394591D01*
X141442Y394503D01*
X141392Y394420D01*
Y394416D01*
X141384Y394412D01*
X141375Y394399D01*
X141367Y394383D01*
X141330Y394341D01*
X141284Y394291D01*
X141226Y394237D01*
X141155Y394179D01*
X141068Y394121D01*
X140972Y394071D01*
X140968D01*
X140959Y394067D01*
X140943Y394058D01*
X140926Y394050D01*
X140897Y394042D01*
X140868Y394033D01*
X140834Y394021D01*
X140793Y394008D01*
X140706Y393987D01*
X140602Y393967D01*
X140485Y393950D01*
X140360Y393946D01*
X140319D01*
X140290Y393950D01*
X140252D01*
X140206Y393954D01*
X140161Y393958D01*
X140106Y393963D01*
X139994Y393975D01*
X139869Y394000D01*
X139749Y394029D01*
X139632Y394071D01*
X139628D01*
X139620Y394075D01*
X139603Y394083D01*
X139582Y394096D01*
X139562Y394108D01*
X139532Y394125D01*
X139466Y394166D01*
X139391Y394220D01*
X139316Y394287D01*
X139241Y394366D01*
X139175Y394453D01*
Y394458D01*
X139166Y394466D01*
X139158Y394478D01*
X139150Y394499D01*
X139137Y394524D01*
X139121Y394549D01*
X139108Y394582D01*
X139092Y394620D01*
X139058Y394707D01*
X139029Y394803D01*
X139008Y394915D01*
X139000Y395032D01*
X139399Y395065D01*
Y395061D01*
Y395052D01*
X139403Y395040D01*
Y395023D01*
X139412Y394982D01*
X139424Y394923D01*
X139441Y394861D01*
X139466Y394795D01*
X139495Y394728D01*
X139528Y394666D01*
X139532Y394657D01*
X139549Y394641D01*
X139574Y394612D01*
X139607Y394578D01*
X139653Y394537D01*
X139707Y394495D01*
X139774Y394453D01*
X139849Y394416D01*
X139853D01*
X139857Y394412D01*
X139869Y394408D01*
X139886Y394404D01*
X139907Y394395D01*
X139932Y394387D01*
X139994Y394370D01*
X140065Y394354D01*
X140148Y394337D01*
X140240Y394329D01*
X140340Y394324D01*
X140381D01*
X140427Y394329D01*
X140485Y394333D01*
X140548Y394341D01*
X140622Y394354D01*
X140693Y394370D01*
X140764Y394395D01*
X140768D01*
X140772Y394399D01*
X140793Y394408D01*
X140826Y394424D01*
X140868Y394445D01*
X140914Y394474D01*
X140959Y394508D01*
X141005Y394545D01*
X141042Y394591D01*
X141047Y394595D01*
X141055Y394612D01*
X141072Y394641D01*
X141088Y394674D01*
X141105Y394715D01*
X141122Y394761D01*
X141130Y394811D01*
X141134Y394865D01*
Y394873D01*
Y394890D01*
X141130Y394919D01*
X141122Y394953D01*
X141113Y394994D01*
X141097Y395040D01*
X141072Y395086D01*
X141042Y395127D01*
X141038Y395131D01*
X141026Y395148D01*
X141005Y395169D01*
X140976Y395194D01*
X140934Y395223D01*
X140884Y395252D01*
X140826Y395285D01*
X140755Y395315D01*
X140747Y395319D01*
X140731Y395323D01*
X140714Y395331D01*
X140693Y395335D01*
X140668Y395344D01*
X140635Y395352D01*
X140602Y395364D01*
X140560Y395373D01*
X140514Y395385D01*
X140460Y395402D01*
X140402Y395414D01*
X140335Y395431D01*
X140265Y395448D01*
X140185Y395468D01*
X140181D01*
X140165Y395473D01*
X140144Y395481D01*
X140115Y395485D01*
X140077Y395498D01*
X140040Y395506D01*
X139944Y395535D01*
X139844Y395564D01*
X139740Y395602D01*
X139649Y395635D01*
X139607Y395656D01*
X139570Y395672D01*
X139566D01*
X139562Y395676D01*
X139549Y395685D01*
X139532Y395693D01*
X139491Y395718D01*
X139441Y395756D01*
X139387Y395797D01*
X139329Y395847D01*
X139275Y395905D01*
X139229Y395968D01*
Y395972D01*
X139225Y395976D01*
X139212Y396001D01*
X139196Y396034D01*
X139175Y396084D01*
X139154Y396142D01*
X139137Y396213D01*
X139125Y396288D01*
X139121Y396367D01*
Y396371D01*
Y396379D01*
Y396392D01*
X139125Y396409D01*
X139129Y396454D01*
X139137Y396517D01*
X139154Y396587D01*
X139179Y396662D01*
X139212Y396741D01*
X139258Y396820D01*
Y396825D01*
X139266Y396829D01*
X139283Y396854D01*
X139316Y396895D01*
X139358Y396941D01*
X139416Y396991D01*
X139482Y397045D01*
X139566Y397095D01*
X139657Y397141D01*
X139661D01*
X139670Y397145D01*
X139682Y397153D01*
X139703Y397157D01*
X139728Y397166D01*
X139757Y397178D01*
X139790Y397186D01*
X139828Y397199D01*
X139915Y397216D01*
X140015Y397236D01*
X140127Y397249D01*
X140244Y397253D01*
X140302D01*
X140335Y397249D01*
D02*
G37*
G36*
X147549Y394000D02*
X147137D01*
X146467Y396434D01*
Y396438D01*
X146463Y396446D01*
X146459Y396463D01*
X146455Y396483D01*
X146438Y396533D01*
X146421Y396596D01*
X146405Y396662D01*
X146388Y396725D01*
X146371Y396775D01*
X146367Y396796D01*
X146363Y396812D01*
Y396808D01*
X146359Y396804D01*
Y396791D01*
X146355Y396775D01*
X146346Y396733D01*
X146334Y396683D01*
X146317Y396625D01*
X146301Y396558D01*
X146284Y396496D01*
X146267Y396434D01*
X145594Y394000D01*
X145148D01*
X144312Y397199D01*
X144749D01*
X145232Y395098D01*
Y395094D01*
X145236Y395082D01*
X145240Y395065D01*
X145244Y395040D01*
X145252Y395011D01*
X145261Y394978D01*
X145269Y394936D01*
X145277Y394894D01*
X145298Y394795D01*
X145323Y394682D01*
X145344Y394566D01*
X145365Y394445D01*
Y394449D01*
X145369Y394466D01*
X145377Y394495D01*
X145386Y394528D01*
X145394Y394566D01*
X145406Y394612D01*
X145431Y394711D01*
X145456Y394815D01*
X145469Y394865D01*
X145477Y394911D01*
X145490Y394953D01*
X145498Y394986D01*
X145506Y395015D01*
X145510Y395036D01*
X146118Y397199D01*
X146629D01*
X147083Y395577D01*
X147087Y395568D01*
X147091Y395552D01*
X147099Y395518D01*
X147112Y395473D01*
X147124Y395423D01*
X147141Y395356D01*
X147162Y395285D01*
X147178Y395211D01*
X147199Y395123D01*
X147220Y395036D01*
X147241Y394940D01*
X147262Y394844D01*
X147303Y394645D01*
X147337Y394445D01*
Y394449D01*
X147341Y394458D01*
X147345Y394474D01*
X147349Y394499D01*
X147353Y394528D01*
X147362Y394562D01*
X147370Y394603D01*
X147378Y394645D01*
X147391Y394695D01*
X147403Y394749D01*
X147428Y394865D01*
X147461Y394998D01*
X147495Y395140D01*
X147998Y397199D01*
X148426D01*
X147549Y394000D01*
D02*
G37*
G36*
X142528Y394378D02*
X144100D01*
Y394000D01*
X142103D01*
Y397199D01*
X142528D01*
Y394378D01*
D02*
G37*
G36*
X318335Y392749D02*
X318369D01*
X318410Y392745D01*
X318456Y392741D01*
X318552Y392724D01*
X318656Y392703D01*
X318764Y392674D01*
X318868Y392637D01*
X318872D01*
X318880Y392632D01*
X318893Y392624D01*
X318914Y392616D01*
X318964Y392587D01*
X319022Y392549D01*
X319092Y392503D01*
X319159Y392445D01*
X319230Y392374D01*
X319288Y392296D01*
Y392291D01*
X319296Y392287D01*
X319300Y392275D01*
X319313Y392258D01*
X319321Y392237D01*
X319334Y392212D01*
X319363Y392150D01*
X319392Y392075D01*
X319417Y391992D01*
X319438Y391896D01*
X319446Y391796D01*
X319038Y391767D01*
Y391771D01*
Y391780D01*
X319034Y391796D01*
X319030Y391817D01*
X319026Y391842D01*
X319018Y391871D01*
X318997Y391938D01*
X318968Y392008D01*
X318930Y392083D01*
X318880Y392158D01*
X318814Y392221D01*
X318805Y392229D01*
X318793Y392233D01*
X318780Y392246D01*
X318760Y392258D01*
X318735Y392270D01*
X318706Y392283D01*
X318676Y392300D01*
X318639Y392312D01*
X318597Y392325D01*
X318552Y392337D01*
X318502Y392350D01*
X318448Y392362D01*
X318389Y392366D01*
X318327Y392374D01*
X318198D01*
X318165Y392370D01*
X318131Y392366D01*
X318048Y392358D01*
X317957Y392341D01*
X317865Y392316D01*
X317778Y392279D01*
X317736Y392258D01*
X317703Y392233D01*
X317695Y392225D01*
X317674Y392208D01*
X317649Y392179D01*
X317616Y392137D01*
X317582Y392088D01*
X317557Y392029D01*
X317537Y391963D01*
X317528Y391892D01*
Y391884D01*
Y391863D01*
X317537Y391834D01*
X317545Y391792D01*
X317557Y391746D01*
X317578Y391701D01*
X317607Y391655D01*
X317649Y391609D01*
X317657Y391605D01*
X317666Y391597D01*
X317678Y391592D01*
X317695Y391580D01*
X317716Y391567D01*
X317745Y391555D01*
X317774Y391543D01*
X317815Y391526D01*
X317861Y391505D01*
X317911Y391488D01*
X317969Y391468D01*
X318036Y391447D01*
X318111Y391426D01*
X318194Y391405D01*
X318285Y391384D01*
X318290D01*
X318306Y391380D01*
X318335Y391372D01*
X318369Y391364D01*
X318410Y391355D01*
X318460Y391343D01*
X318510Y391330D01*
X318568Y391314D01*
X318685Y391285D01*
X318801Y391251D01*
X318855Y391231D01*
X318909Y391214D01*
X318955Y391197D01*
X318993Y391181D01*
X318997D01*
X319005Y391176D01*
X319018Y391168D01*
X319038Y391156D01*
X319088Y391131D01*
X319151Y391093D01*
X319217Y391043D01*
X319284Y390989D01*
X319350Y390923D01*
X319404Y390852D01*
Y390848D01*
X319409Y390844D01*
X319417Y390831D01*
X319425Y390819D01*
X319446Y390777D01*
X319475Y390723D01*
X319500Y390656D01*
X319521Y390577D01*
X319538Y390494D01*
X319542Y390399D01*
Y390394D01*
Y390386D01*
Y390373D01*
X319538Y390357D01*
Y390332D01*
X319533Y390307D01*
X319525Y390245D01*
X319504Y390170D01*
X319479Y390091D01*
X319442Y390003D01*
X319392Y389920D01*
Y389916D01*
X319384Y389912D01*
X319375Y389899D01*
X319367Y389883D01*
X319330Y389841D01*
X319284Y389791D01*
X319226Y389737D01*
X319155Y389679D01*
X319068Y389621D01*
X318972Y389571D01*
X318968D01*
X318959Y389566D01*
X318943Y389558D01*
X318926Y389550D01*
X318897Y389542D01*
X318868Y389533D01*
X318834Y389521D01*
X318793Y389508D01*
X318706Y389488D01*
X318601Y389467D01*
X318485Y389450D01*
X318360Y389446D01*
X318319D01*
X318290Y389450D01*
X318252D01*
X318206Y389454D01*
X318161Y389458D01*
X318107Y389462D01*
X317994Y389475D01*
X317869Y389500D01*
X317749Y389529D01*
X317632Y389571D01*
X317628D01*
X317620Y389575D01*
X317603Y389583D01*
X317582Y389596D01*
X317562Y389608D01*
X317532Y389625D01*
X317466Y389666D01*
X317391Y389720D01*
X317316Y389787D01*
X317241Y389866D01*
X317175Y389953D01*
Y389957D01*
X317166Y389966D01*
X317158Y389978D01*
X317150Y389999D01*
X317137Y390024D01*
X317121Y390049D01*
X317108Y390082D01*
X317091Y390120D01*
X317058Y390207D01*
X317029Y390303D01*
X317008Y390415D01*
X317000Y390532D01*
X317399Y390565D01*
Y390561D01*
Y390552D01*
X317404Y390540D01*
Y390523D01*
X317412Y390482D01*
X317424Y390423D01*
X317441Y390361D01*
X317466Y390295D01*
X317495Y390228D01*
X317528Y390165D01*
X317532Y390157D01*
X317549Y390141D01*
X317574Y390111D01*
X317607Y390078D01*
X317653Y390037D01*
X317707Y389995D01*
X317774Y389953D01*
X317849Y389916D01*
X317853D01*
X317857Y389912D01*
X317869Y389908D01*
X317886Y389903D01*
X317907Y389895D01*
X317932Y389887D01*
X317994Y389870D01*
X318065Y389854D01*
X318148Y389837D01*
X318240Y389829D01*
X318339Y389824D01*
X318381D01*
X318427Y389829D01*
X318485Y389833D01*
X318548Y389841D01*
X318622Y389854D01*
X318693Y389870D01*
X318764Y389895D01*
X318768D01*
X318772Y389899D01*
X318793Y389908D01*
X318826Y389924D01*
X318868Y389945D01*
X318914Y389974D01*
X318959Y390007D01*
X319005Y390045D01*
X319042Y390091D01*
X319047Y390095D01*
X319055Y390111D01*
X319072Y390141D01*
X319088Y390174D01*
X319105Y390215D01*
X319122Y390261D01*
X319130Y390311D01*
X319134Y390365D01*
Y390373D01*
Y390390D01*
X319130Y390419D01*
X319122Y390453D01*
X319113Y390494D01*
X319097Y390540D01*
X319072Y390586D01*
X319042Y390627D01*
X319038Y390632D01*
X319026Y390648D01*
X319005Y390669D01*
X318976Y390694D01*
X318934Y390723D01*
X318884Y390752D01*
X318826Y390785D01*
X318756Y390814D01*
X318747Y390819D01*
X318730Y390823D01*
X318714Y390831D01*
X318693Y390835D01*
X318668Y390844D01*
X318635Y390852D01*
X318601Y390864D01*
X318560Y390873D01*
X318514Y390885D01*
X318460Y390902D01*
X318402Y390914D01*
X318335Y390931D01*
X318265Y390948D01*
X318186Y390968D01*
X318181D01*
X318165Y390973D01*
X318144Y390981D01*
X318115Y390985D01*
X318077Y390998D01*
X318040Y391006D01*
X317944Y391035D01*
X317844Y391064D01*
X317740Y391102D01*
X317649Y391135D01*
X317607Y391156D01*
X317570Y391172D01*
X317566D01*
X317562Y391176D01*
X317549Y391185D01*
X317532Y391193D01*
X317491Y391218D01*
X317441Y391255D01*
X317387Y391297D01*
X317329Y391347D01*
X317274Y391405D01*
X317229Y391468D01*
Y391472D01*
X317225Y391476D01*
X317212Y391501D01*
X317196Y391534D01*
X317175Y391584D01*
X317154Y391642D01*
X317137Y391713D01*
X317125Y391788D01*
X317121Y391867D01*
Y391871D01*
Y391880D01*
Y391892D01*
X317125Y391909D01*
X317129Y391954D01*
X317137Y392017D01*
X317154Y392088D01*
X317179Y392162D01*
X317212Y392241D01*
X317258Y392320D01*
Y392325D01*
X317266Y392329D01*
X317283Y392354D01*
X317316Y392395D01*
X317358Y392441D01*
X317416Y392491D01*
X317482Y392545D01*
X317566Y392595D01*
X317657Y392641D01*
X317661D01*
X317670Y392645D01*
X317682Y392653D01*
X317703Y392657D01*
X317728Y392666D01*
X317757Y392678D01*
X317790Y392687D01*
X317828Y392699D01*
X317915Y392716D01*
X318015Y392736D01*
X318127Y392749D01*
X318244Y392753D01*
X318302D01*
X318335Y392749D01*
D02*
G37*
G36*
X321584D02*
X321626Y392745D01*
X321676Y392741D01*
X321730Y392732D01*
X321788Y392724D01*
X321913Y392695D01*
X321979Y392674D01*
X322050Y392649D01*
X322117Y392620D01*
X322183Y392591D01*
X322250Y392549D01*
X322312Y392508D01*
X322316Y392503D01*
X322325Y392495D01*
X322346Y392483D01*
X322366Y392462D01*
X322391Y392437D01*
X322425Y392408D01*
X322458Y392370D01*
X322495Y392329D01*
X322533Y392283D01*
X322570Y392233D01*
X322608Y392175D01*
X322645Y392117D01*
X322682Y392050D01*
X322716Y391979D01*
X322749Y391900D01*
X322774Y391821D01*
X322358Y391721D01*
Y391726D01*
X322354Y391738D01*
X322346Y391755D01*
X322337Y391780D01*
X322325Y391809D01*
X322312Y391842D01*
X322275Y391917D01*
X322229Y392000D01*
X322175Y392083D01*
X322108Y392162D01*
X322071Y392196D01*
X322034Y392229D01*
X322029D01*
X322025Y392237D01*
X322013Y392246D01*
X321996Y392254D01*
X321975Y392266D01*
X321950Y392279D01*
X321888Y392312D01*
X321809Y392341D01*
X321717Y392366D01*
X321613Y392383D01*
X321497Y392391D01*
X321460D01*
X321434Y392387D01*
X321405D01*
X321368Y392383D01*
X321326Y392374D01*
X321281Y392370D01*
X321185Y392350D01*
X321081Y392316D01*
X320977Y392270D01*
X320927Y392246D01*
X320877Y392212D01*
X320873D01*
X320865Y392204D01*
X320852Y392196D01*
X320835Y392179D01*
X320794Y392142D01*
X320744Y392088D01*
X320686Y392021D01*
X320627Y391938D01*
X320573Y391846D01*
X320532Y391738D01*
Y391734D01*
X320528Y391726D01*
X320524Y391709D01*
X320515Y391688D01*
X320507Y391659D01*
X320498Y391626D01*
X320490Y391588D01*
X320482Y391551D01*
X320465Y391455D01*
X320449Y391351D01*
X320436Y391239D01*
X320432Y391122D01*
Y391118D01*
Y391106D01*
Y391085D01*
Y391056D01*
X320436Y391018D01*
X320440Y390977D01*
Y390931D01*
X320449Y390881D01*
X320461Y390769D01*
X320482Y390652D01*
X320511Y390528D01*
X320548Y390411D01*
Y390407D01*
X320553Y390399D01*
X320561Y390382D01*
X320573Y390361D01*
X320586Y390336D01*
X320598Y390307D01*
X320640Y390240D01*
X320694Y390165D01*
X320756Y390091D01*
X320831Y390020D01*
X320919Y389957D01*
X320923D01*
X320931Y389949D01*
X320944Y389945D01*
X320964Y389933D01*
X320985Y389924D01*
X321014Y389912D01*
X321081Y389883D01*
X321164Y389854D01*
X321256Y389833D01*
X321356Y389816D01*
X321464Y389808D01*
X321497D01*
X321522Y389812D01*
X321555Y389816D01*
X321588Y389820D01*
X321630Y389824D01*
X321672Y389833D01*
X321767Y389858D01*
X321867Y389895D01*
X321921Y389916D01*
X321971Y389945D01*
X322021Y389974D01*
X322067Y390012D01*
X322071Y390016D01*
X322079Y390020D01*
X322092Y390032D01*
X322108Y390049D01*
X322125Y390070D01*
X322150Y390099D01*
X322175Y390128D01*
X322200Y390165D01*
X322229Y390203D01*
X322258Y390249D01*
X322283Y390299D01*
X322312Y390353D01*
X322337Y390415D01*
X322362Y390478D01*
X322383Y390544D01*
X322404Y390619D01*
X322828Y390511D01*
Y390507D01*
X322820Y390490D01*
X322812Y390461D01*
X322803Y390423D01*
X322786Y390382D01*
X322766Y390332D01*
X322745Y390278D01*
X322716Y390215D01*
X322687Y390153D01*
X322649Y390087D01*
X322612Y390024D01*
X322566Y389957D01*
X322520Y389891D01*
X322466Y389829D01*
X322408Y389770D01*
X322346Y389716D01*
X322341Y389712D01*
X322329Y389704D01*
X322312Y389691D01*
X322283Y389675D01*
X322250Y389654D01*
X322208Y389629D01*
X322163Y389608D01*
X322113Y389583D01*
X322050Y389554D01*
X321988Y389533D01*
X321917Y389508D01*
X321842Y389488D01*
X321763Y389471D01*
X321680Y389458D01*
X321593Y389450D01*
X321501Y389446D01*
X321451D01*
X321414Y389450D01*
X321372Y389454D01*
X321318Y389458D01*
X321264Y389462D01*
X321201Y389471D01*
X321068Y389496D01*
X320927Y389533D01*
X320856Y389558D01*
X320786Y389587D01*
X320719Y389616D01*
X320657Y389654D01*
X320652Y389658D01*
X320644Y389662D01*
X320627Y389675D01*
X320602Y389696D01*
X320578Y389716D01*
X320544Y389741D01*
X320511Y389774D01*
X320474Y389812D01*
X320432Y389849D01*
X320394Y389895D01*
X320353Y389945D01*
X320311Y390003D01*
X320270Y390061D01*
X320232Y390124D01*
X320195Y390195D01*
X320162Y390265D01*
Y390269D01*
X320153Y390282D01*
X320145Y390307D01*
X320137Y390336D01*
X320124Y390373D01*
X320108Y390415D01*
X320095Y390465D01*
X320078Y390523D01*
X320062Y390586D01*
X320049Y390652D01*
X320033Y390723D01*
X320020Y390794D01*
X320004Y390956D01*
X319995Y391122D01*
Y391126D01*
Y391143D01*
Y391172D01*
X319999Y391206D01*
Y391251D01*
X320004Y391301D01*
X320012Y391355D01*
X320020Y391418D01*
X320028Y391484D01*
X320041Y391555D01*
X320074Y391701D01*
X320120Y391846D01*
X320149Y391921D01*
X320182Y391992D01*
X320186Y391996D01*
X320191Y392008D01*
X320203Y392029D01*
X320220Y392054D01*
X320236Y392083D01*
X320261Y392121D01*
X320290Y392158D01*
X320324Y392204D01*
X320399Y392296D01*
X320494Y392387D01*
X320602Y392478D01*
X320665Y392520D01*
X320727Y392558D01*
X320731Y392562D01*
X320744Y392566D01*
X320765Y392574D01*
X320790Y392587D01*
X320823Y392603D01*
X320860Y392620D01*
X320906Y392637D01*
X320956Y392657D01*
X321014Y392674D01*
X321073Y392691D01*
X321206Y392724D01*
X321351Y392745D01*
X321426Y392753D01*
X321551D01*
X321584Y392749D01*
D02*
G37*
G36*
X281351Y392695D02*
X281430D01*
X281522Y392687D01*
X281617Y392678D01*
X281709Y392666D01*
X281788Y392649D01*
X281792D01*
X281801Y392645D01*
X281817Y392641D01*
X281834Y392637D01*
X281859Y392628D01*
X281888Y392620D01*
X281950Y392599D01*
X282025Y392566D01*
X282104Y392528D01*
X282183Y392478D01*
X282258Y392420D01*
X282262Y392416D01*
X282271Y392412D01*
X282283Y392400D01*
X282300Y392383D01*
X282321Y392362D01*
X282346Y392337D01*
X282370Y392308D01*
X282400Y392275D01*
X282462Y392196D01*
X282524Y392100D01*
X282587Y391996D01*
X282637Y391875D01*
Y391871D01*
X282641Y391859D01*
X282649Y391842D01*
X282658Y391817D01*
X282666Y391784D01*
X282678Y391746D01*
X282691Y391705D01*
X282703Y391655D01*
X282712Y391601D01*
X282724Y391543D01*
X282737Y391480D01*
X282745Y391413D01*
X282762Y391268D01*
X282766Y391114D01*
Y391110D01*
Y391097D01*
Y391081D01*
Y391052D01*
X282762Y391022D01*
Y390985D01*
X282757Y390944D01*
X282753Y390898D01*
X282745Y390798D01*
X282728Y390690D01*
X282708Y390577D01*
X282678Y390469D01*
Y390465D01*
X282674Y390457D01*
X282670Y390440D01*
X282662Y390423D01*
X282653Y390399D01*
X282645Y390369D01*
X282620Y390307D01*
X282591Y390232D01*
X282554Y390153D01*
X282508Y390074D01*
X282462Y390003D01*
X282458Y389995D01*
X282437Y389974D01*
X282412Y389941D01*
X282375Y389899D01*
X282333Y389854D01*
X282283Y389804D01*
X282225Y389758D01*
X282167Y389712D01*
X282158Y389708D01*
X282138Y389696D01*
X282104Y389675D01*
X282059Y389654D01*
X282004Y389629D01*
X281938Y389600D01*
X281863Y389575D01*
X281784Y389554D01*
X281780D01*
X281776Y389550D01*
X281763D01*
X281747Y389546D01*
X281726Y389542D01*
X281701Y389537D01*
X281638Y389529D01*
X281563Y389517D01*
X281476Y389508D01*
X281376Y389504D01*
X281272Y389500D01*
X280120D01*
Y392699D01*
X281314D01*
X281351Y392695D01*
D02*
G37*
G36*
X278335Y392749D02*
X278369D01*
X278410Y392745D01*
X278456Y392741D01*
X278552Y392724D01*
X278656Y392703D01*
X278764Y392674D01*
X278868Y392637D01*
X278872D01*
X278880Y392632D01*
X278893Y392624D01*
X278913Y392616D01*
X278963Y392587D01*
X279022Y392549D01*
X279092Y392503D01*
X279159Y392445D01*
X279230Y392374D01*
X279288Y392296D01*
Y392291D01*
X279296Y392287D01*
X279300Y392275D01*
X279313Y392258D01*
X279321Y392237D01*
X279334Y392212D01*
X279363Y392150D01*
X279392Y392075D01*
X279417Y391992D01*
X279438Y391896D01*
X279446Y391796D01*
X279038Y391767D01*
Y391771D01*
Y391780D01*
X279034Y391796D01*
X279030Y391817D01*
X279026Y391842D01*
X279017Y391871D01*
X278997Y391938D01*
X278968Y392008D01*
X278930Y392083D01*
X278880Y392158D01*
X278814Y392221D01*
X278805Y392229D01*
X278793Y392233D01*
X278780Y392246D01*
X278760Y392258D01*
X278735Y392270D01*
X278706Y392283D01*
X278676Y392300D01*
X278639Y392312D01*
X278597Y392325D01*
X278552Y392337D01*
X278502Y392350D01*
X278448Y392362D01*
X278389Y392366D01*
X278327Y392374D01*
X278198D01*
X278165Y392370D01*
X278132Y392366D01*
X278048Y392358D01*
X277957Y392341D01*
X277865Y392316D01*
X277778Y392279D01*
X277736Y392258D01*
X277703Y392233D01*
X277695Y392225D01*
X277674Y392208D01*
X277649Y392179D01*
X277616Y392137D01*
X277582Y392088D01*
X277557Y392029D01*
X277537Y391963D01*
X277528Y391892D01*
Y391884D01*
Y391863D01*
X277537Y391834D01*
X277545Y391792D01*
X277557Y391746D01*
X277578Y391701D01*
X277607Y391655D01*
X277649Y391609D01*
X277657Y391605D01*
X277665Y391597D01*
X277678Y391592D01*
X277695Y391580D01*
X277715Y391567D01*
X277745Y391555D01*
X277774Y391543D01*
X277815Y391526D01*
X277861Y391505D01*
X277911Y391488D01*
X277969Y391468D01*
X278036Y391447D01*
X278111Y391426D01*
X278194Y391405D01*
X278285Y391384D01*
X278290D01*
X278306Y391380D01*
X278335Y391372D01*
X278369Y391364D01*
X278410Y391355D01*
X278460Y391343D01*
X278510Y391330D01*
X278568Y391314D01*
X278685Y391285D01*
X278801Y391251D01*
X278855Y391231D01*
X278909Y391214D01*
X278955Y391197D01*
X278993Y391181D01*
X278997D01*
X279005Y391176D01*
X279017Y391168D01*
X279038Y391156D01*
X279088Y391131D01*
X279151Y391093D01*
X279217Y391043D01*
X279284Y390989D01*
X279350Y390923D01*
X279404Y390852D01*
Y390848D01*
X279409Y390844D01*
X279417Y390831D01*
X279425Y390819D01*
X279446Y390777D01*
X279475Y390723D01*
X279500Y390656D01*
X279521Y390577D01*
X279538Y390494D01*
X279542Y390399D01*
Y390394D01*
Y390386D01*
Y390373D01*
X279538Y390357D01*
Y390332D01*
X279533Y390307D01*
X279525Y390245D01*
X279504Y390170D01*
X279479Y390091D01*
X279442Y390003D01*
X279392Y389920D01*
Y389916D01*
X279384Y389912D01*
X279375Y389899D01*
X279367Y389883D01*
X279330Y389841D01*
X279284Y389791D01*
X279226Y389737D01*
X279155Y389679D01*
X279067Y389621D01*
X278972Y389571D01*
X278968D01*
X278959Y389566D01*
X278943Y389558D01*
X278926Y389550D01*
X278897Y389542D01*
X278868Y389533D01*
X278835Y389521D01*
X278793Y389508D01*
X278706Y389488D01*
X278602Y389467D01*
X278485Y389450D01*
X278360Y389446D01*
X278319D01*
X278290Y389450D01*
X278252D01*
X278206Y389454D01*
X278161Y389458D01*
X278106Y389462D01*
X277994Y389475D01*
X277869Y389500D01*
X277749Y389529D01*
X277632Y389571D01*
X277628D01*
X277620Y389575D01*
X277603Y389583D01*
X277582Y389596D01*
X277561Y389608D01*
X277532Y389625D01*
X277466Y389666D01*
X277391Y389720D01*
X277316Y389787D01*
X277241Y389866D01*
X277175Y389953D01*
Y389957D01*
X277166Y389966D01*
X277158Y389978D01*
X277150Y389999D01*
X277137Y390024D01*
X277121Y390049D01*
X277108Y390082D01*
X277092Y390120D01*
X277058Y390207D01*
X277029Y390303D01*
X277008Y390415D01*
X277000Y390532D01*
X277399Y390565D01*
Y390561D01*
Y390552D01*
X277403Y390540D01*
Y390523D01*
X277412Y390482D01*
X277424Y390423D01*
X277441Y390361D01*
X277466Y390295D01*
X277495Y390228D01*
X277528Y390165D01*
X277532Y390157D01*
X277549Y390141D01*
X277574Y390111D01*
X277607Y390078D01*
X277653Y390037D01*
X277707Y389995D01*
X277774Y389953D01*
X277849Y389916D01*
X277853D01*
X277857Y389912D01*
X277869Y389908D01*
X277886Y389903D01*
X277907Y389895D01*
X277932Y389887D01*
X277994Y389870D01*
X278065Y389854D01*
X278148Y389837D01*
X278240Y389829D01*
X278340Y389824D01*
X278381D01*
X278427Y389829D01*
X278485Y389833D01*
X278548Y389841D01*
X278622Y389854D01*
X278693Y389870D01*
X278764Y389895D01*
X278768D01*
X278772Y389899D01*
X278793Y389908D01*
X278826Y389924D01*
X278868Y389945D01*
X278913Y389974D01*
X278959Y390007D01*
X279005Y390045D01*
X279043Y390091D01*
X279047Y390095D01*
X279055Y390111D01*
X279072Y390141D01*
X279088Y390174D01*
X279105Y390215D01*
X279121Y390261D01*
X279130Y390311D01*
X279134Y390365D01*
Y390373D01*
Y390390D01*
X279130Y390419D01*
X279121Y390453D01*
X279113Y390494D01*
X279097Y390540D01*
X279072Y390586D01*
X279043Y390627D01*
X279038Y390632D01*
X279026Y390648D01*
X279005Y390669D01*
X278976Y390694D01*
X278934Y390723D01*
X278884Y390752D01*
X278826Y390785D01*
X278755Y390814D01*
X278747Y390819D01*
X278731Y390823D01*
X278714Y390831D01*
X278693Y390835D01*
X278668Y390844D01*
X278635Y390852D01*
X278602Y390864D01*
X278560Y390873D01*
X278514Y390885D01*
X278460Y390902D01*
X278402Y390914D01*
X278335Y390931D01*
X278265Y390948D01*
X278186Y390968D01*
X278181D01*
X278165Y390973D01*
X278144Y390981D01*
X278115Y390985D01*
X278077Y390998D01*
X278040Y391006D01*
X277944Y391035D01*
X277844Y391064D01*
X277740Y391102D01*
X277649Y391135D01*
X277607Y391156D01*
X277570Y391172D01*
X277566D01*
X277561Y391176D01*
X277549Y391185D01*
X277532Y391193D01*
X277491Y391218D01*
X277441Y391255D01*
X277387Y391297D01*
X277329Y391347D01*
X277274Y391405D01*
X277229Y391468D01*
Y391472D01*
X277225Y391476D01*
X277212Y391501D01*
X277196Y391534D01*
X277175Y391584D01*
X277154Y391642D01*
X277137Y391713D01*
X277125Y391788D01*
X277121Y391867D01*
Y391871D01*
Y391880D01*
Y391892D01*
X277125Y391909D01*
X277129Y391954D01*
X277137Y392017D01*
X277154Y392088D01*
X277179Y392162D01*
X277212Y392241D01*
X277258Y392320D01*
Y392325D01*
X277266Y392329D01*
X277283Y392354D01*
X277316Y392395D01*
X277358Y392441D01*
X277416Y392491D01*
X277483Y392545D01*
X277566Y392595D01*
X277657Y392641D01*
X277661D01*
X277670Y392645D01*
X277682Y392653D01*
X277703Y392657D01*
X277728Y392666D01*
X277757Y392678D01*
X277790Y392687D01*
X277828Y392699D01*
X277915Y392716D01*
X278015Y392736D01*
X278127Y392749D01*
X278244Y392753D01*
X278302D01*
X278335Y392749D01*
D02*
G37*
G36*
X285981Y389500D02*
X285503D01*
X285133Y390469D01*
X283793D01*
X283444Y389500D01*
X282999D01*
X284218Y392699D01*
X284679D01*
X285981Y389500D01*
D02*
G37*
G36*
X323756Y389879D02*
X325328D01*
Y389500D01*
X323331D01*
Y392699D01*
X323756D01*
Y389879D01*
D02*
G37*
G36*
X307246Y345954D02*
X307621D01*
X307704Y345913D01*
X307829D01*
X307912Y345871D01*
X308079Y345830D01*
X308245Y345746D01*
X308412Y345580D01*
X308620Y345413D01*
X308787Y345205D01*
X308912Y344913D01*
Y344830D01*
X308954Y344746D01*
Y344538D01*
Y344288D01*
X308995Y343871D01*
Y343330D01*
Y343038D01*
Y342663D01*
Y340622D01*
X309120Y340539D01*
X309162D01*
X309287Y340497D01*
X309454Y340455D01*
X309745Y340414D01*
X310037Y340330D01*
X310412Y340206D01*
X310828Y340122D01*
X311287Y339955D01*
X312328Y339580D01*
X313453Y339122D01*
X314619Y338581D01*
X315828Y337873D01*
X316286Y337581D01*
X317702Y338997D01*
X317744Y339039D01*
X317911Y339206D01*
X318119Y339414D01*
X318369Y339664D01*
X318619Y339914D01*
X318869Y340122D01*
X319077Y340330D01*
X319244Y340455D01*
X319285Y340497D01*
X319452Y340580D01*
X319744Y340622D01*
X320118Y340664D01*
X320410D01*
X320660Y340622D01*
X320868Y340539D01*
X320952Y340497D01*
X321035Y340414D01*
X321202Y340247D01*
X321452Y340039D01*
X321827Y339664D01*
X322326Y339206D01*
X322618Y338914D01*
X322951Y338581D01*
X323035Y338497D01*
X323201Y338331D01*
X323451Y338081D01*
X323743Y337789D01*
X324035Y337456D01*
X324326Y337123D01*
X324576Y336873D01*
X324701Y336706D01*
X324743Y336664D01*
X324826Y336498D01*
X324909Y336206D01*
X324951Y335831D01*
Y335789D01*
Y335748D01*
X324909Y335540D01*
X324868Y335248D01*
X324701Y334956D01*
X324659Y334873D01*
X324576Y334790D01*
X324410Y334623D01*
X324243Y334415D01*
X323993Y334165D01*
X323660Y333832D01*
X323243Y333415D01*
X321827Y331998D01*
X321952Y331790D01*
X321993Y331749D01*
X322118Y331540D01*
X322285Y331290D01*
X322535Y330915D01*
X322785Y330499D01*
X323035Y329999D01*
X323326Y329415D01*
X323576Y328832D01*
X323618Y328749D01*
X323701Y328541D01*
X323868Y328207D01*
X324035Y327791D01*
X324201Y327249D01*
X324410Y326666D01*
X324576Y325999D01*
X324743Y325291D01*
X324826Y324791D01*
X327867D01*
X328284Y324750D01*
X328617D01*
X328951Y324708D01*
X329117Y324666D01*
X329200Y324625D01*
X329325Y324583D01*
X329534Y324458D01*
X329742Y324250D01*
X329784Y324208D01*
X329909Y324083D01*
X330034Y323875D01*
X330159Y323625D01*
X330200Y323541D01*
Y323375D01*
X330242Y323125D01*
Y322750D01*
X330284Y322250D01*
Y321958D01*
Y321583D01*
Y321209D01*
Y320750D01*
Y318209D01*
X330117Y317917D01*
Y317876D01*
X330034Y317834D01*
X329867Y317584D01*
X329575Y317334D01*
X329409Y317209D01*
X329242Y317126D01*
X328951Y316959D01*
X325493D01*
X325159Y316917D01*
X324909D01*
X324868Y316876D01*
X324826D01*
Y316792D01*
X324784Y316668D01*
X324743Y316459D01*
X324659Y316168D01*
X324576Y315751D01*
X324410Y315210D01*
X324201Y314501D01*
Y314460D01*
X324160Y314418D01*
X324118Y314293D01*
X324076Y314126D01*
X323910Y313710D01*
X323701Y313210D01*
X323410Y312585D01*
X323118Y311918D01*
X322368Y310502D01*
X322326Y310460D01*
X322243Y310294D01*
X322201Y310210D01*
X322077Y310085D01*
X322035Y310044D01*
X321993Y309960D01*
X321952Y309835D01*
X321827Y309669D01*
X323326Y308211D01*
X323410Y308169D01*
X323576Y307961D01*
X323785Y307752D01*
X324076Y307461D01*
X324326Y307169D01*
X324576Y306877D01*
X324784Y306669D01*
X324868Y306503D01*
Y306461D01*
X324909Y306378D01*
Y306294D01*
X324951Y306128D01*
Y305711D01*
X324868Y305294D01*
X324826Y305211D01*
X324743Y305086D01*
X324618Y304919D01*
X324368Y304628D01*
X324035Y304253D01*
X323576Y303753D01*
X322951Y303128D01*
X322868Y303045D01*
X322702Y302878D01*
X322451Y302628D01*
X322118Y302337D01*
X321785Y302045D01*
X321493Y301753D01*
X321202Y301545D01*
X321035Y301378D01*
X320993Y301337D01*
X320827Y301212D01*
X320535Y301128D01*
X320202Y301045D01*
X319952D01*
X319744Y301087D01*
X319535Y301170D01*
X319494Y301212D01*
X319369Y301295D01*
X319244Y301378D01*
X318994Y301587D01*
X318702Y301837D01*
X318327Y302211D01*
X317827Y302712D01*
X316328Y304170D01*
X316202Y304086D01*
X316161D01*
X316077Y304003D01*
X315994Y303920D01*
X315828Y303836D01*
X315661Y303711D01*
X315411Y303586D01*
X315369D01*
X315328Y303545D01*
X315203Y303461D01*
X315036Y303378D01*
X314661Y303170D01*
X314203Y302920D01*
X313703Y302670D01*
X313245Y302462D01*
X312828Y302295D01*
X312703Y302253D01*
X312578D01*
Y305544D01*
Y308836D01*
X312995Y309169D01*
X313036Y309210D01*
X313161Y309252D01*
X313328Y309377D01*
X313578Y309585D01*
X313870Y309794D01*
X314245Y310085D01*
X314661Y310460D01*
X315119Y310877D01*
X315161Y310918D01*
X315286Y311085D01*
X315494Y311293D01*
X315786Y311627D01*
X316077Y312043D01*
X316452Y312502D01*
X316827Y313085D01*
X317202Y313710D01*
X317577Y314418D01*
X317952Y315168D01*
X318327Y316001D01*
X318619Y316876D01*
X318910Y317834D01*
X319119Y318792D01*
X319244Y319834D01*
X319285Y320917D01*
Y321000D01*
Y321167D01*
X319244Y321500D01*
X319202Y321875D01*
X319160Y322375D01*
X319077Y322958D01*
X318952Y323625D01*
X318785Y324333D01*
X318535Y325083D01*
X318285Y325874D01*
X317952Y326708D01*
X317536Y327583D01*
X317036Y328416D01*
X316494Y329249D01*
X315869Y330082D01*
X315119Y330874D01*
X315078Y330915D01*
X314953Y331040D01*
X314786Y331207D01*
X314536Y331415D01*
X314203Y331665D01*
X313786Y331957D01*
X313328Y332290D01*
X312828Y332623D01*
X312245Y332998D01*
X311620Y333332D01*
X310953Y333665D01*
X310204Y333998D01*
X309454Y334290D01*
X308620Y334540D01*
X307787Y334748D01*
X306871Y334915D01*
X306662D01*
X306496Y334956D01*
X303830D01*
X303538Y334915D01*
X303288D01*
X303163Y334873D01*
X302913Y334831D01*
X302621Y334790D01*
X302288Y334706D01*
X301871Y334581D01*
X301372Y334456D01*
X300872Y334290D01*
X299747Y333832D01*
X298497Y333290D01*
X297872Y332957D01*
X297247Y332540D01*
X296622Y332123D01*
X295997Y331665D01*
X295956Y331624D01*
X295831Y331499D01*
X295622Y331332D01*
X295331Y331040D01*
X295039Y330707D01*
X294664Y330290D01*
X294248Y329832D01*
X293873Y329291D01*
X293414Y328666D01*
X292998Y327999D01*
X292581Y327249D01*
X292206Y326499D01*
X291831Y325624D01*
X291540Y324750D01*
X291290Y323791D01*
X291082Y322792D01*
Y322750D01*
Y322667D01*
Y322542D01*
Y322333D01*
X291040Y322083D01*
Y321750D01*
Y321375D01*
Y320917D01*
Y320875D01*
Y320709D01*
Y320459D01*
Y320167D01*
Y319542D01*
X291082Y319209D01*
Y318959D01*
Y318917D01*
X291123Y318792D01*
X291165Y318584D01*
X291207Y318292D01*
X291290Y317959D01*
X291415Y317542D01*
X291540Y317126D01*
X291706Y316626D01*
X292081Y315543D01*
X292623Y314376D01*
X293289Y313210D01*
X294081Y312043D01*
Y312002D01*
X294164Y311960D01*
X294373Y311710D01*
X294706Y311335D01*
X295164Y310877D01*
X295747Y310335D01*
X296414Y309752D01*
X297164Y309169D01*
X297997Y308627D01*
X298372Y308419D01*
Y305211D01*
X298330Y301962D01*
X298289D01*
X298205Y302003D01*
X298080Y302045D01*
X297872Y302086D01*
X297622Y302211D01*
X297247Y302337D01*
X296789Y302545D01*
X296747Y302587D01*
X296622Y302628D01*
X296414Y302753D01*
X296122Y302878D01*
X295789Y303086D01*
X295373Y303295D01*
X294498Y303795D01*
X293956Y304128D01*
X293914D01*
X293873Y304045D01*
X293748Y303961D01*
X293539Y303795D01*
X293289Y303545D01*
X292915Y303170D01*
X292456Y302712D01*
X292415Y302670D01*
X292248Y302503D01*
X291998Y302253D01*
X291706Y302003D01*
X291415Y301712D01*
X291123Y301462D01*
X290873Y301253D01*
X290707Y301128D01*
X290665D01*
X290582Y301087D01*
X290457D01*
X290332Y301045D01*
X289915D01*
X289457Y301128D01*
X289373Y301170D01*
X289290Y301295D01*
X289124Y301462D01*
X288832Y301712D01*
X288457Y302045D01*
X287999Y302503D01*
X287374Y303128D01*
X287291Y303211D01*
X287124Y303378D01*
X286874Y303628D01*
X286541Y303961D01*
X286249Y304294D01*
X285957Y304586D01*
X285707Y304878D01*
X285582Y305044D01*
X285541Y305086D01*
X285457Y305253D01*
X285374Y305503D01*
X285291Y305794D01*
Y305878D01*
Y306044D01*
X285332Y306253D01*
X285416Y306503D01*
X285457Y306586D01*
X285541Y306669D01*
X285624Y306794D01*
X285832Y307044D01*
X286082Y307336D01*
X286457Y307711D01*
X286957Y308211D01*
X288374Y309669D01*
Y309710D01*
X288332Y309794D01*
X288249Y309960D01*
X288040Y310252D01*
Y310294D01*
X287957Y310377D01*
X287874Y310543D01*
X287749Y310752D01*
X287624Y311043D01*
X287457Y311377D01*
X287249Y311710D01*
X287040Y312127D01*
X286624Y313085D01*
X286249Y314126D01*
X285832Y315251D01*
X285541Y316459D01*
X285457Y316917D01*
X283374Y316959D01*
X281333D01*
X281083Y317126D01*
X281041D01*
X280958Y317167D01*
X280708Y317292D01*
X280417Y317542D01*
X280167Y317917D01*
X280000Y318209D01*
Y320917D01*
Y320958D01*
Y321042D01*
Y321167D01*
Y321334D01*
Y321750D01*
Y322250D01*
X280042Y322750D01*
Y323208D01*
X280083Y323416D01*
Y323583D01*
X280125Y323666D01*
Y323750D01*
Y323791D01*
X280167Y323833D01*
X280333Y324083D01*
X280583Y324375D01*
X281000Y324625D01*
X281291Y324750D01*
X283374Y324791D01*
X285416D01*
X285541Y325291D01*
Y325333D01*
X285582Y325458D01*
X285624Y325624D01*
X285666Y325874D01*
X285749Y326166D01*
X285874Y326499D01*
X285999Y326916D01*
X286124Y327332D01*
X286457Y328291D01*
X286915Y329332D01*
X287457Y330457D01*
X288082Y331540D01*
X288374Y331998D01*
X286957Y333540D01*
X286915Y333581D01*
X286749Y333748D01*
X286499Y333998D01*
X286249Y334290D01*
X285957Y334581D01*
X285707Y334831D01*
X285499Y335081D01*
X285416Y335248D01*
Y335290D01*
X285374Y335456D01*
X285332Y335665D01*
X285291Y335956D01*
Y335998D01*
Y336039D01*
X285374Y336206D01*
X285457Y336456D01*
X285582Y336706D01*
X285624Y336789D01*
X285749Y336914D01*
X285874Y337081D01*
X286082Y337331D01*
X286416Y337664D01*
X286832Y338081D01*
X287332Y338622D01*
X287415Y338706D01*
X287582Y338872D01*
X287832Y339122D01*
X288124Y339414D01*
X288457Y339705D01*
X288749Y339997D01*
X289040Y340247D01*
X289207Y340372D01*
X289290Y340414D01*
X289457Y340539D01*
X289748Y340622D01*
X290082Y340664D01*
X290165D01*
X290415Y340622D01*
X290665Y340580D01*
X290915Y340455D01*
X290998Y340414D01*
X291082Y340330D01*
X291207Y340206D01*
X291415Y340039D01*
X291706Y339789D01*
X292040Y339456D01*
X292456Y339039D01*
X292498Y338997D01*
X292665Y338831D01*
X292915Y338581D01*
X293164Y338331D01*
X293456Y338081D01*
X293706Y337831D01*
X293873Y337664D01*
X293956Y337622D01*
X293998Y337664D01*
X294081Y337706D01*
X294248Y337789D01*
X294456Y337873D01*
X294498Y337914D01*
X294581Y337956D01*
X294748Y338039D01*
X294956Y338164D01*
X295248Y338331D01*
X295539Y338497D01*
X295914Y338664D01*
X296331Y338872D01*
X297247Y339331D01*
X298289Y339747D01*
X299455Y340122D01*
X300663Y340455D01*
X301205Y340539D01*
Y342663D01*
Y344746D01*
X301372Y344996D01*
Y345038D01*
X301413Y345080D01*
X301538Y345288D01*
X301830Y345580D01*
X302205Y345830D01*
X302455Y345954D01*
X304954Y345996D01*
X306787D01*
X307246Y345954D01*
D02*
G37*
G36*
X305662Y327166D02*
X305704D01*
X305787Y327124D01*
X306079Y326999D01*
X306204Y326874D01*
X306329Y326708D01*
X306412Y326458D01*
X306454Y326208D01*
Y326166D01*
Y326124D01*
X306412Y325916D01*
X306246Y325624D01*
X306162Y325500D01*
X305996Y325375D01*
X305912Y325333D01*
X305704Y325250D01*
X305454Y325208D01*
X305288Y325250D01*
X305121Y325291D01*
X305079D01*
X305038Y325333D01*
X304829Y325541D01*
X304579Y325833D01*
X304538Y325999D01*
X304496Y326249D01*
Y326333D01*
X304538Y326416D01*
X304621Y326624D01*
Y326666D01*
X304663Y326749D01*
X304871Y326958D01*
X304996Y327082D01*
X305204Y327166D01*
X305413Y327207D01*
X305662Y327166D01*
D02*
G37*
G36*
X370462Y417175D02*
X370587D01*
X370737Y417162D01*
X370900Y417137D01*
X371087Y417112D01*
X371287Y417075D01*
X371500Y417037D01*
X371937Y416937D01*
X372387Y416787D01*
X372612Y416687D01*
X372837Y416587D01*
X372850Y416575D01*
X372887Y416562D01*
X372950Y416525D01*
X373025Y416475D01*
X373125Y416412D01*
X373237Y416350D01*
X373350Y416262D01*
X373487Y416162D01*
X373625Y416050D01*
X373762Y415925D01*
X374050Y415637D01*
X374337Y415300D01*
X374462Y415112D01*
X374575Y414912D01*
Y414900D01*
X374600Y414862D01*
X374625Y414800D01*
X374662Y414725D01*
X374712Y414625D01*
X374762Y414512D01*
X374812Y414375D01*
X374862Y414225D01*
X374925Y414050D01*
X374975Y413875D01*
X375075Y413475D01*
X375137Y413050D01*
X375150Y412825D01*
X375162Y412587D01*
Y412575D01*
Y412525D01*
Y412450D01*
X375150Y412362D01*
X375137Y412237D01*
X375125Y412100D01*
X375112Y411950D01*
X375075Y411775D01*
X375000Y411400D01*
X374887Y410987D01*
X374812Y410775D01*
X374725Y410575D01*
X374625Y410362D01*
X374512Y410162D01*
X374500Y410150D01*
X374487Y410112D01*
X374450Y410062D01*
X374387Y409987D01*
X374325Y409900D01*
X374250Y409800D01*
X374150Y409687D01*
X374050Y409562D01*
X373925Y409437D01*
X373787Y409300D01*
X373637Y409162D01*
X373487Y409037D01*
X373125Y408775D01*
X372725Y408550D01*
X372712D01*
X372675Y408525D01*
X372612Y408500D01*
X372525Y408462D01*
X372425Y408425D01*
X372300Y408375D01*
X372150Y408325D01*
X372000Y408275D01*
X371825Y408225D01*
X371637Y408175D01*
X371237Y408087D01*
X370787Y408025D01*
X370562Y408012D01*
X370325Y408000D01*
X370225D01*
X370100Y408012D01*
X369925Y408025D01*
X369725Y408037D01*
X369500Y408062D01*
X369237Y408112D01*
X368962Y408162D01*
X368662Y408225D01*
X368362Y408312D01*
X368050Y408412D01*
X367737Y408537D01*
X367437Y408687D01*
X367137Y408850D01*
X366850Y409050D01*
X366587Y409275D01*
X366575Y409287D01*
X366525Y409337D01*
X366462Y409412D01*
X366375Y409512D01*
X366275Y409637D01*
X366150Y409787D01*
X366037Y409975D01*
X365900Y410175D01*
X365775Y410400D01*
X365650Y410650D01*
X365537Y410925D01*
X365437Y411225D01*
X365350Y411537D01*
X365287Y411875D01*
X365237Y412225D01*
X365225Y412600D01*
Y412612D01*
Y412662D01*
Y412725D01*
X365237Y412825D01*
X365250Y412937D01*
X365262Y413075D01*
X365275Y413225D01*
X365300Y413400D01*
X365375Y413762D01*
X365487Y414162D01*
X365562Y414375D01*
X365650Y414575D01*
X365750Y414787D01*
X365862Y414987D01*
X365875Y415000D01*
X365887Y415037D01*
X365925Y415087D01*
X365975Y415162D01*
X366050Y415250D01*
X366125Y415362D01*
X366212Y415475D01*
X366325Y415600D01*
X366437Y415725D01*
X366575Y415862D01*
X366725Y416000D01*
X366875Y416137D01*
X367050Y416262D01*
X367237Y416387D01*
X367637Y416625D01*
X367650Y416637D01*
X367687Y416650D01*
X367750Y416675D01*
X367837Y416712D01*
X367950Y416750D01*
X368075Y416800D01*
X368225Y416850D01*
X368387Y416912D01*
X368562Y416962D01*
X368762Y417012D01*
X368975Y417062D01*
X369200Y417100D01*
X369687Y417162D01*
X369950Y417187D01*
X370350D01*
X370462Y417175D01*
D02*
G37*
G36*
X375000Y425075D02*
X367462Y420037D01*
X375000D01*
Y418812D01*
X365387D01*
Y420112D01*
X372937Y425162D01*
X365387D01*
Y426387D01*
X375000D01*
Y425075D01*
D02*
G37*
%LPC*%
G36*
X284438Y392366D02*
Y392362D01*
X284434Y392354D01*
X284430Y392337D01*
X284426Y392312D01*
X284421Y392283D01*
X284413Y392250D01*
X284405Y392212D01*
X284392Y392171D01*
X284367Y392079D01*
X284338Y391975D01*
X284305Y391863D01*
X284263Y391751D01*
X283914Y390814D01*
X285000D01*
X284667Y391696D01*
Y391701D01*
X284659Y391713D01*
X284650Y391734D01*
X284642Y391763D01*
X284629Y391796D01*
X284613Y391838D01*
X284596Y391884D01*
X284579Y391934D01*
X284542Y392038D01*
X284505Y392150D01*
X284471Y392262D01*
X284438Y392366D01*
D02*
G37*
G36*
X370212Y415875D02*
X370012D01*
X369912Y415862D01*
X369800Y415850D01*
X369662Y415837D01*
X369512Y415825D01*
X369200Y415775D01*
X368850Y415712D01*
X368500Y415612D01*
X368162Y415475D01*
X368150D01*
X368125Y415462D01*
X368075Y415437D01*
X368012Y415400D01*
X367950Y415362D01*
X367862Y415312D01*
X367662Y415175D01*
X367450Y415012D01*
X367225Y414812D01*
X367012Y414587D01*
X366812Y414312D01*
Y414300D01*
X366787Y414275D01*
X366762Y414237D01*
X366737Y414175D01*
X366700Y414112D01*
X366662Y414025D01*
X366612Y413925D01*
X366562Y413812D01*
X366475Y413562D01*
X366400Y413275D01*
X366350Y412950D01*
X366325Y412600D01*
Y412587D01*
Y412537D01*
Y412475D01*
X366337Y412375D01*
X366350Y412262D01*
X366375Y412125D01*
X366400Y411975D01*
X366437Y411800D01*
X366487Y411625D01*
X366550Y411437D01*
X366625Y411250D01*
X366725Y411050D01*
X366825Y410850D01*
X366950Y410650D01*
X367100Y410462D01*
X367262Y410275D01*
X367275Y410262D01*
X367300Y410237D01*
X367362Y410187D01*
X367437Y410125D01*
X367537Y410050D01*
X367675Y409975D01*
X367825Y409887D01*
X368000Y409800D01*
X368200Y409700D01*
X368425Y409612D01*
X368675Y409537D01*
X368950Y409462D01*
X369262Y409400D01*
X369600Y409350D01*
X369962Y409325D01*
X370350Y409312D01*
X370425D01*
X370512Y409325D01*
X370637D01*
X370787Y409337D01*
X370950Y409362D01*
X371137Y409387D01*
X371337Y409425D01*
X371562Y409475D01*
X371787Y409537D01*
X372012Y409612D01*
X372237Y409700D01*
X372462Y409812D01*
X372687Y409937D01*
X372887Y410075D01*
X373087Y410237D01*
X373100Y410250D01*
X373125Y410275D01*
X373175Y410337D01*
X373237Y410412D01*
X373312Y410500D01*
X373400Y410612D01*
X373487Y410737D01*
X373575Y410887D01*
X373675Y411037D01*
X373762Y411225D01*
X373850Y411412D01*
X373925Y411625D01*
X373987Y411837D01*
X374037Y412075D01*
X374062Y412312D01*
X374075Y412575D01*
Y412587D01*
Y412637D01*
X374062Y412712D01*
Y412812D01*
X374050Y412937D01*
X374025Y413075D01*
X373987Y413237D01*
X373950Y413412D01*
X373900Y413587D01*
X373825Y413787D01*
X373750Y413975D01*
X373650Y414175D01*
X373537Y414375D01*
X373400Y414575D01*
X373250Y414762D01*
X373075Y414937D01*
X373062Y414950D01*
X373025Y414975D01*
X372975Y415025D01*
X372887Y415087D01*
X372787Y415150D01*
X372662Y415237D01*
X372512Y415325D01*
X372337Y415412D01*
X372150Y415500D01*
X371925Y415575D01*
X371700Y415662D01*
X371437Y415725D01*
X371162Y415787D01*
X370862Y415837D01*
X370550Y415862D01*
X370212Y415875D01*
D02*
G37*
G36*
X281285Y392320D02*
X280544D01*
Y389879D01*
X281306D01*
X281335Y389883D01*
X281405Y389887D01*
X281484Y389891D01*
X281568Y389903D01*
X281651Y389916D01*
X281721Y389937D01*
X281726D01*
X281730Y389941D01*
X281751Y389949D01*
X281784Y389962D01*
X281826Y389978D01*
X281871Y390003D01*
X281917Y390028D01*
X281967Y390061D01*
X282009Y390099D01*
X282017Y390107D01*
X282034Y390128D01*
X282059Y390161D01*
X282096Y390207D01*
X282133Y390265D01*
X282171Y390336D01*
X282208Y390415D01*
X282242Y390507D01*
Y390511D01*
X282246Y390519D01*
X282250Y390532D01*
X282254Y390552D01*
X282262Y390577D01*
X282271Y390606D01*
X282279Y390640D01*
X282287Y390677D01*
X282292Y390723D01*
X282300Y390769D01*
X282316Y390873D01*
X282325Y390993D01*
X282329Y391122D01*
Y391126D01*
Y391143D01*
Y391172D01*
X282325Y391206D01*
Y391247D01*
X282321Y391293D01*
X282316Y391347D01*
X282308Y391405D01*
X282287Y391530D01*
X282258Y391659D01*
X282217Y391780D01*
X282192Y391838D01*
X282162Y391892D01*
Y391896D01*
X282154Y391904D01*
X282146Y391917D01*
X282133Y391938D01*
X282096Y391984D01*
X282050Y392038D01*
X281992Y392100D01*
X281925Y392158D01*
X281846Y392212D01*
X281805Y392233D01*
X281763Y392254D01*
X281755Y392258D01*
X281747Y392262D01*
X281730Y392266D01*
X281713Y392270D01*
X281688Y392275D01*
X281663Y392283D01*
X281630Y392287D01*
X281597Y392296D01*
X281555Y392300D01*
X281509Y392304D01*
X281459Y392312D01*
X281405Y392316D01*
X281347D01*
X281285Y392320D01*
D02*
G37*
%LPD*%
D40*
X195000Y367626D02*
X204000D01*
X195000Y376626D02*
X204000D01*
X249256Y372256D02*
X268744D01*
X249256Y391744D02*
X268744D01*
X190000Y413500D02*
X196000D01*
X189000Y414500D02*
X190000Y413500D01*
D41*
X337141Y377700D02*
G03*
X337141Y377700I-141J0D01*
G01*
X365786Y385309D02*
G03*
X365786Y385309I-164J0D01*
G01*
X255201Y356382D02*
G03*
X255201Y356382I-394J0D01*
G01*
X221000Y399500D02*
G03*
X221000Y399500I-500J0D01*
G01*
X362000Y407000D02*
Y411000D01*
X327000Y407000D02*
X362000D01*
X327000D02*
Y411000D01*
X362000Y423500D02*
Y426500D01*
X327000D02*
X362000D01*
X327000Y423500D02*
Y426500D01*
X255594Y357957D02*
Y365043D01*
X267406Y357957D02*
Y365043D01*
X224500Y386000D02*
X229500D01*
X224500Y398000D02*
X229500D01*
X230500Y391000D02*
Y393000D01*
X137000Y421500D02*
Y425500D01*
X172000D01*
Y421500D02*
Y425500D01*
X137000Y406000D02*
Y409000D01*
Y406000D02*
X172000D01*
Y409000D01*
X321843Y404539D02*
Y435248D01*
X282472Y404539D02*
X321843D01*
X282472D02*
Y435248D01*
X321843D01*
X281842Y404539D02*
Y435248D01*
X242472Y404539D02*
X281842D01*
X242472D02*
Y435248D01*
X281842D01*
X241843Y404539D02*
Y435248D01*
X202472Y404539D02*
X241843D01*
X202472D02*
Y435248D01*
X241843D01*
D61*
X199035Y352413D02*
G03*
X199035Y352413I-492J0D01*
G01*
X168689Y368689D02*
G03*
X168689Y368689I-492J0D01*
G01*
D62*
X205860Y367487D02*
G03*
X205803Y367626I140J139D01*
G01*
X346134Y377366D02*
Y385634D01*
X337866Y377366D02*
Y385634D01*
X371699Y385499D02*
X374199D01*
Y385899D01*
X363799Y393699D02*
Y394099D01*
X366299D01*
D63*
X177539Y414776D02*
G03*
X177539Y414776I-295J0D01*
G01*
X190051Y424224D02*
G03*
X190051Y424224I-295J0D01*
G01*
X191539Y414776D02*
G03*
X191539Y414776I-295J0D01*
G01*
X179016Y419992D02*
X180000Y419008D01*
X180984Y419992D01*
X179016D02*
X180984D01*
X187000D02*
X187984Y419008D01*
X186016D02*
X187000Y419992D01*
X186016Y419008D02*
X187984D01*
X193016Y419992D02*
X194000Y419008D01*
X194984Y419992D01*
X193016D02*
X194984D01*
D64*
X405717Y410323D02*
X406216D01*
Y416823D01*
X377217Y410323D02*
Y416823D01*
Y410323D02*
X377716D01*
X406216Y425823D02*
Y426323D01*
X377217Y425823D02*
Y426323D01*
X192244Y353398D02*
X194606D01*
X192244D02*
Y356744D01*
Y365602D02*
X194606D01*
X192244Y362256D02*
Y365602D01*
X164874Y368402D02*
Y394976D01*
X163890D02*
X164874D01*
X163890Y368402D02*
X164874D01*
X322230Y377345D02*
X321115D01*
X321673D01*
Y374557D01*
X321115Y374000D01*
X320557D01*
X320000Y374557D01*
X325018Y374000D02*
Y377345D01*
X323345Y375673D01*
X325576D01*
X403500Y406345D02*
Y403000D01*
Y404115D01*
X405730Y406345D01*
X404058Y404673D01*
X405730Y403000D01*
X406845D02*
X407961D01*
X407403D01*
Y406345D01*
X406845Y405788D01*
X329730Y403788D02*
X329173Y404345D01*
X328058D01*
X327500Y403788D01*
Y403230D01*
X328058Y402673D01*
X329173D01*
X329730Y402115D01*
Y401557D01*
X329173Y401000D01*
X328058D01*
X327500Y401557D01*
X330845Y404345D02*
Y401000D01*
X331961Y402115D01*
X333076Y401000D01*
Y404345D01*
X334191Y401000D02*
X335306D01*
X334748D01*
Y404345D01*
X334191Y403788D01*
X348230Y298845D02*
X347115D01*
X347673D01*
Y296058D01*
X347115Y295500D01*
X346557D01*
X346000Y296058D01*
X349345Y298288D02*
X349903Y298845D01*
X351018D01*
X351576Y298288D01*
Y297730D01*
X351018Y297173D01*
X350461D01*
X351018D01*
X351576Y296615D01*
Y296058D01*
X351018Y295500D01*
X349903D01*
X349345Y296058D01*
X191730Y298845D02*
X190615D01*
X191173D01*
Y296058D01*
X190615Y295500D01*
X190058D01*
X189500Y296058D01*
X195076Y298845D02*
X193960Y298288D01*
X192845Y297173D01*
Y296058D01*
X193403Y295500D01*
X194518D01*
X195076Y296058D01*
Y296615D01*
X194518Y297173D01*
X192845D01*
X218230Y383788D02*
X217673Y384345D01*
X216558D01*
X216000Y383788D01*
Y381557D01*
X216558Y381000D01*
X217673D01*
X218230Y381557D01*
X219345Y381000D02*
X220461D01*
X219903D01*
Y384345D01*
X219345Y383788D01*
X214930Y401988D02*
X214373Y402545D01*
X213258D01*
X212700Y401988D01*
Y399758D01*
X213258Y399200D01*
X214373D01*
X214930Y399758D01*
X218276Y399200D02*
X216045D01*
X218276Y401430D01*
Y401988D01*
X217718Y402545D01*
X216603D01*
X216045Y401988D01*
X383230Y400788D02*
X382673Y401345D01*
X381557D01*
X381000Y400788D01*
Y398557D01*
X381557Y398000D01*
X382673D01*
X383230Y398557D01*
X384345Y400788D02*
X384903Y401345D01*
X386018D01*
X386576Y400788D01*
Y400230D01*
X386018Y399673D01*
X385460D01*
X386018D01*
X386576Y399115D01*
Y398557D01*
X386018Y398000D01*
X384903D01*
X384345Y398557D01*
X363230Y376288D02*
X362673Y376845D01*
X361558D01*
X361000Y376288D01*
Y374058D01*
X361558Y373500D01*
X362673D01*
X363230Y374058D01*
X366018Y373500D02*
Y376845D01*
X364345Y375173D01*
X366576D01*
X374230Y376288D02*
X373673Y376845D01*
X372557D01*
X372000Y376288D01*
Y374058D01*
X372557Y373500D01*
X373673D01*
X374230Y374058D01*
X377576Y376845D02*
X375345D01*
Y375173D01*
X376461Y375730D01*
X377018D01*
X377576Y375173D01*
Y374058D01*
X377018Y373500D01*
X375903D01*
X375345Y374058D01*
X354730Y388288D02*
X354173Y388845D01*
X353058D01*
X352500Y388288D01*
Y386057D01*
X353058Y385500D01*
X354173D01*
X354730Y386057D01*
X358076Y388845D02*
X356961Y388288D01*
X355845Y387173D01*
Y386057D01*
X356403Y385500D01*
X357518D01*
X358076Y386057D01*
Y386615D01*
X357518Y387173D01*
X355845D01*
X242230Y373288D02*
X241673Y373845D01*
X240558D01*
X240000Y373288D01*
Y371058D01*
X240558Y370500D01*
X241673D01*
X242230Y371058D01*
X243345Y373845D02*
X245576D01*
Y373288D01*
X243345Y371058D01*
Y370500D01*
X278730Y349288D02*
X278173Y349845D01*
X277058D01*
X276500Y349288D01*
Y347058D01*
X277058Y346500D01*
X278173D01*
X278730Y347058D01*
X279845Y349288D02*
X280403Y349845D01*
X281518D01*
X282076Y349288D01*
Y348730D01*
X281518Y348173D01*
X282076Y347615D01*
Y347058D01*
X281518Y346500D01*
X280403D01*
X279845Y347058D01*
Y347615D01*
X280403Y348173D01*
X279845Y348730D01*
Y349288D01*
X280403Y348173D02*
X281518D01*
X278730Y340788D02*
X278173Y341345D01*
X277058D01*
X276500Y340788D01*
Y338558D01*
X277058Y338000D01*
X278173D01*
X278730Y338558D01*
X279845D02*
X280403Y338000D01*
X281518D01*
X282076Y338558D01*
Y340788D01*
X281518Y341345D01*
X280403D01*
X279845Y340788D01*
Y340230D01*
X280403Y339673D01*
X282076D01*
X243230Y354288D02*
X242673Y354845D01*
X241558D01*
X241000Y354288D01*
Y352058D01*
X241558Y351500D01*
X242673D01*
X243230Y352058D01*
X244345Y351500D02*
X245461D01*
X244903D01*
Y354845D01*
X244345Y354288D01*
X247133D02*
X247691Y354845D01*
X248806D01*
X249363Y354288D01*
Y352058D01*
X248806Y351500D01*
X247691D01*
X247133Y352058D01*
Y354288D01*
X181730Y365288D02*
X181173Y365845D01*
X180058D01*
X179500Y365288D01*
Y363057D01*
X180058Y362500D01*
X181173D01*
X181730Y363057D01*
X182845Y362500D02*
X183960D01*
X183403D01*
Y365845D01*
X182845Y365288D01*
X185633Y362500D02*
X186748D01*
X186191D01*
Y365845D01*
X185633Y365288D01*
X186230Y379288D02*
X185673Y379845D01*
X184557D01*
X184000Y379288D01*
Y377058D01*
X184557Y376500D01*
X185673D01*
X186230Y377058D01*
X187345Y376500D02*
X188461D01*
X187903D01*
Y379845D01*
X187345Y379288D01*
X192363Y376500D02*
X190133D01*
X192363Y378730D01*
Y379288D01*
X191806Y379845D01*
X190691D01*
X190133Y379288D01*
X172655Y421500D02*
X176000D01*
Y423173D01*
X175442Y423730D01*
X173212D01*
X172655Y423173D01*
Y421500D01*
X176000Y424845D02*
Y425960D01*
Y425403D01*
X172655D01*
X173212Y424845D01*
X197655Y411500D02*
X201000D01*
Y413173D01*
X200442Y413730D01*
X198212D01*
X197655Y413173D01*
Y411500D01*
X201000Y417076D02*
Y414845D01*
X198770Y417076D01*
X198212D01*
X197655Y416518D01*
Y415403D01*
X198212Y414845D01*
X197655Y420500D02*
X201000D01*
Y422173D01*
X200442Y422730D01*
X198212D01*
X197655Y422173D01*
Y420500D01*
X198212Y423845D02*
X197655Y424403D01*
Y425518D01*
X198212Y426076D01*
X198770D01*
X199327Y425518D01*
Y424961D01*
Y425518D01*
X199885Y426076D01*
X200442D01*
X201000Y425518D01*
Y424403D01*
X200442Y423845D01*
X285230Y402845D02*
X284115D01*
X284673D01*
Y400058D01*
X284115Y399500D01*
X283558D01*
X283000Y400058D01*
X286345Y399500D02*
X287460D01*
X286903D01*
Y402845D01*
X286345Y402288D01*
X244230Y402845D02*
X243115D01*
X243673D01*
Y400058D01*
X243115Y399500D01*
X242558D01*
X242000Y400058D01*
X247576Y399500D02*
X245345D01*
X247576Y401730D01*
Y402288D01*
X247018Y402845D01*
X245903D01*
X245345Y402288D01*
X204230Y402845D02*
X203115D01*
X203673D01*
Y400058D01*
X203115Y399500D01*
X202557D01*
X202000Y400058D01*
X207576Y402845D02*
X205345D01*
Y401173D01*
X206460Y401730D01*
X207018D01*
X207576Y401173D01*
Y400058D01*
X207018Y399500D01*
X205903D01*
X205345Y400058D01*
X272000Y375845D02*
Y372500D01*
X274230D01*
X275345D02*
X276461D01*
X275903D01*
Y375845D01*
X275345Y375288D01*
X205230Y357057D02*
Y359288D01*
X204673Y359845D01*
X203557D01*
X203000Y359288D01*
Y357057D01*
X203557Y356500D01*
X204673D01*
X204115Y357615D02*
X205230Y356500D01*
X204673D02*
X205230Y357057D01*
X206345Y356500D02*
X207460D01*
X206903D01*
Y359845D01*
X206345Y359288D01*
X139230Y364057D02*
Y366288D01*
X138673Y366845D01*
X137557D01*
X137000Y366288D01*
Y364057D01*
X137557Y363500D01*
X138673D01*
X138115Y364615D02*
X139230Y363500D01*
X138673D02*
X139230Y364057D01*
X142576Y363500D02*
X140345D01*
X142576Y365730D01*
Y366288D01*
X142018Y366845D01*
X140903D01*
X140345Y366288D01*
X402000Y390500D02*
Y393845D01*
X403673D01*
X404230Y393288D01*
Y392173D01*
X403673Y391615D01*
X402000D01*
X403115D02*
X404230Y390500D01*
X405345D02*
X406461D01*
X405903D01*
Y393845D01*
X405345Y393288D01*
X331000Y366500D02*
Y369845D01*
X332673D01*
X333230Y369288D01*
Y368173D01*
X332673Y367615D01*
X331000D01*
X332115D02*
X333230Y366500D01*
X336576D02*
X334345D01*
X336576Y368730D01*
Y369288D01*
X336018Y369845D01*
X334903D01*
X334345Y369288D01*
X189000Y395500D02*
X185655D01*
Y397173D01*
X186212Y397730D01*
X187327D01*
X187885Y397173D01*
Y395500D01*
Y396615D02*
X189000Y397730D01*
X186212Y398845D02*
X185655Y399403D01*
Y400518D01*
X186212Y401076D01*
X186770D01*
X187327Y400518D01*
Y399960D01*
Y400518D01*
X187885Y401076D01*
X188442D01*
X189000Y400518D01*
Y399403D01*
X188442Y398845D01*
X332000Y391500D02*
Y394845D01*
X333673D01*
X334230Y394288D01*
Y393173D01*
X333673Y392615D01*
X332000D01*
X333115D02*
X334230Y391500D01*
X337576Y394845D02*
X335345D01*
Y393173D01*
X336460Y393730D01*
X337018D01*
X337576Y393173D01*
Y392057D01*
X337018Y391500D01*
X335903D01*
X335345Y392057D01*
X182000Y395500D02*
X178655D01*
Y397173D01*
X179212Y397730D01*
X180327D01*
X180885Y397173D01*
Y395500D01*
Y396615D02*
X182000Y397730D01*
X178655Y401076D02*
X179212Y399960D01*
X180327Y398845D01*
X181442D01*
X182000Y399403D01*
Y400518D01*
X181442Y401076D01*
X180885D01*
X180327Y400518D01*
Y398845D01*
X402000Y384500D02*
Y387845D01*
X403673D01*
X404230Y387288D01*
Y386173D01*
X403673Y385615D01*
X402000D01*
X403115D02*
X404230Y384500D01*
X405345Y387845D02*
X407576D01*
Y387288D01*
X405345Y385057D01*
Y384500D01*
X196000Y395500D02*
X192655D01*
Y397173D01*
X193212Y397730D01*
X194327D01*
X194885Y397173D01*
Y395500D01*
Y396615D02*
X196000Y397730D01*
X193212Y398845D02*
X192655Y399403D01*
Y400518D01*
X193212Y401076D01*
X193770D01*
X194327Y400518D01*
X194885Y401076D01*
X195442D01*
X196000Y400518D01*
Y399403D01*
X195442Y398845D01*
X194885D01*
X194327Y399403D01*
X193770Y398845D01*
X193212D01*
X194327Y399403D02*
Y400518D01*
X150000Y398500D02*
Y401845D01*
X151673D01*
X152230Y401288D01*
Y400173D01*
X151673Y399615D01*
X150000D01*
X151115D02*
X152230Y398500D01*
X153345Y399058D02*
X153903Y398500D01*
X155018D01*
X155576Y399058D01*
Y401288D01*
X155018Y401845D01*
X153903D01*
X153345Y401288D01*
Y400730D01*
X153903Y400173D01*
X155576D01*
X339000Y367500D02*
Y370845D01*
X340673D01*
X341230Y370288D01*
Y369173D01*
X340673Y368615D01*
X339000D01*
X340115D02*
X341230Y367500D01*
X342345D02*
X343460D01*
X342903D01*
Y370845D01*
X342345Y370288D01*
X345133D02*
X345691Y370845D01*
X346806D01*
X347363Y370288D01*
Y368057D01*
X346806Y367500D01*
X345691D01*
X345133Y368057D01*
Y370288D01*
X342000Y392500D02*
Y395845D01*
X343673D01*
X344230Y395288D01*
Y394173D01*
X343673Y393615D01*
X342000D01*
X343115D02*
X344230Y392500D01*
X345345D02*
X346461D01*
X345903D01*
Y395845D01*
X345345Y395288D01*
X350363Y392500D02*
X348133D01*
X350363Y394730D01*
Y395288D01*
X349806Y395845D01*
X348691D01*
X348133Y395288D01*
X252000Y329500D02*
Y332845D01*
X253673D01*
X254230Y332288D01*
Y331173D01*
X253673Y330615D01*
X252000D01*
X253115D02*
X254230Y329500D01*
X255345D02*
X256460D01*
X255903D01*
Y332845D01*
X255345Y332288D01*
X259806Y329500D02*
Y332845D01*
X258133Y331173D01*
X260363D01*
X251000Y341000D02*
X247655D01*
Y342673D01*
X248212Y343230D01*
X249327D01*
X249885Y342673D01*
Y341000D01*
Y342115D02*
X251000Y343230D01*
Y344345D02*
Y345461D01*
Y344903D01*
X247655D01*
X248212Y344345D01*
X247655Y349363D02*
Y347133D01*
X249327D01*
X248770Y348248D01*
Y348806D01*
X249327Y349363D01*
X250442D01*
X251000Y348806D01*
Y347691D01*
X250442Y347133D01*
X201500Y348500D02*
Y351845D01*
X203173D01*
X203730Y351288D01*
Y350173D01*
X203173Y349615D01*
X201500D01*
X202615D02*
X203730Y348500D01*
X204845D02*
X205960D01*
X205403D01*
Y351845D01*
X204845Y351288D01*
X209863Y351845D02*
X208748Y351288D01*
X207633Y350173D01*
Y349058D01*
X208191Y348500D01*
X209306D01*
X209863Y349058D01*
Y349615D01*
X209306Y350173D01*
X207633D01*
X179000Y376500D02*
X175655D01*
Y378173D01*
X176212Y378730D01*
X177327D01*
X177885Y378173D01*
Y376500D01*
Y377615D02*
X179000Y378730D01*
Y379845D02*
Y380960D01*
Y380403D01*
X175655D01*
X176212Y379845D01*
X175655Y382633D02*
Y384863D01*
X176212D01*
X178442Y382633D01*
X179000D01*
X191500Y384500D02*
X188155D01*
Y386173D01*
X188712Y386730D01*
X189827D01*
X190385Y386173D01*
Y384500D01*
Y385615D02*
X191500Y386730D01*
Y387845D02*
Y388961D01*
Y388403D01*
X188155D01*
X188712Y387845D01*
Y390633D02*
X188155Y391191D01*
Y392306D01*
X188712Y392863D01*
X189270D01*
X189827Y392306D01*
X190385Y392863D01*
X190942D01*
X191500Y392306D01*
Y391191D01*
X190942Y390633D01*
X190385D01*
X189827Y391191D01*
X189270Y390633D01*
X188712D01*
X189827Y391191D02*
Y392306D01*
X382000Y393845D02*
Y391057D01*
X382558Y390500D01*
X383673D01*
X384230Y391057D01*
Y393845D01*
X385345Y390500D02*
X386460D01*
X385903D01*
Y393845D01*
X385345Y393288D01*
X235655Y390000D02*
X238442D01*
X239000Y390558D01*
Y391673D01*
X238442Y392230D01*
X235655D01*
X236212Y393345D02*
X235655Y393903D01*
Y395018D01*
X236212Y395576D01*
X236770D01*
X237327Y395018D01*
Y394461D01*
Y395018D01*
X237885Y395576D01*
X238442D01*
X239000Y395018D01*
Y393903D01*
X238442Y393345D01*
X208000Y370845D02*
Y368057D01*
X208558Y367500D01*
X209673D01*
X210230Y368057D01*
Y370845D01*
X213018Y367500D02*
Y370845D01*
X211345Y369173D01*
X213576D01*
X269000Y357345D02*
Y354557D01*
X269557Y354000D01*
X270673D01*
X271230Y354557D01*
Y357345D01*
X274576D02*
X272345D01*
Y355673D01*
X273461Y356230D01*
X274018D01*
X274576Y355673D01*
Y354557D01*
X274018Y354000D01*
X272903D01*
X272345Y354557D01*
X332155Y376500D02*
X334942D01*
X335500Y377058D01*
Y378173D01*
X334942Y378730D01*
X332155D01*
X335500Y382076D02*
Y379845D01*
X333270Y382076D01*
X332712D01*
X332155Y381518D01*
Y380403D01*
X332712Y379845D01*
X359000Y400500D02*
Y403845D01*
X360673D01*
X361230Y403288D01*
Y402173D01*
X360673Y401615D01*
X359000D01*
X360115D02*
X361230Y400500D01*
X364018D02*
Y403845D01*
X362345Y402173D01*
X364576D01*
X344000Y402500D02*
Y405845D01*
X345673D01*
X346230Y405288D01*
Y404173D01*
X345673Y403615D01*
X344000D01*
X345115D02*
X346230Y402500D01*
X347345D02*
X348461D01*
X347903D01*
Y405845D01*
X347345Y405288D01*
X350133D02*
X350691Y405845D01*
X351806D01*
X352363Y405288D01*
Y404730D01*
X351806Y404173D01*
X351248D01*
X351806D01*
X352363Y403615D01*
Y403057D01*
X351806Y402500D01*
X350691D01*
X350133Y403057D01*
X350212Y362730D02*
X349655Y362173D01*
Y361057D01*
X350212Y360500D01*
X352442D01*
X353000Y361057D01*
Y362173D01*
X352442Y362730D01*
X353000Y363845D02*
Y364961D01*
Y364403D01*
X349655D01*
X350212Y363845D01*
Y366633D02*
X349655Y367191D01*
Y368306D01*
X350212Y368863D01*
X350770D01*
X351327Y368306D01*
Y367748D01*
Y368306D01*
X351885Y368863D01*
X352442D01*
X353000Y368306D01*
Y367191D01*
X352442Y366633D01*
X169000Y398500D02*
Y401845D01*
X170673D01*
X171230Y401288D01*
Y400173D01*
X170673Y399615D01*
X169000D01*
X170115D02*
X171230Y398500D01*
X172345D02*
X173460D01*
X172903D01*
Y401845D01*
X172345Y401288D01*
X175133Y398500D02*
X176248D01*
X175691D01*
Y401845D01*
X175133Y401288D01*
X133212Y404730D02*
X132655Y404173D01*
Y403057D01*
X133212Y402500D01*
X133770D01*
X134327Y403057D01*
Y404173D01*
X134885Y404730D01*
X135442D01*
X136000Y404173D01*
Y403057D01*
X135442Y402500D01*
X132655Y405845D02*
X136000D01*
X134885Y406960D01*
X136000Y408076D01*
X132655D01*
X136000Y411421D02*
Y409191D01*
X133770Y411421D01*
X133212D01*
X132655Y410863D01*
Y409748D01*
X133212Y409191D01*
D65*
X354894Y381802D02*
X406894D01*
X354382Y295187D02*
Y381802D01*
X354882Y295187D02*
X407394D01*
X407882D02*
Y381802D01*
X134870Y295198D02*
X186870D01*
X187382D02*
Y381813D01*
X134370D02*
X186882D01*
X133882Y295198D02*
Y381813D01*
M02*
