G04 Layer_Physical_Order=1*
G04 Layer_Color=25308*
%FSLAX25Y25*%
%MOIN*%
G70*
G01*
G75*
%ADD10R,0.06299X0.03543*%
%ADD11R,0.00984X0.01969*%
%ADD12R,0.04724X0.06102*%
%ADD13R,0.05906X0.06102*%
%ADD14R,0.01575X0.05315*%
%ADD15R,0.03937X0.03543*%
%ADD16R,0.02165X0.02362*%
%ADD17R,0.04724X0.02362*%
%ADD18R,0.26772X0.21850*%
%ADD19R,0.09449X0.03937*%
%ADD20R,0.02362X0.02165*%
%ADD21R,0.02677X0.02520*%
%ADD22R,0.02953X0.00787*%
%ADD23R,0.05118X0.05512*%
%ADD24R,0.03937X0.03150*%
%ADD25R,0.03937X0.09134*%
%ADD26R,0.03543X0.03937*%
%ADD27R,0.02520X0.02677*%
%ADD28R,0.02362X0.00787*%
%ADD29R,0.01575X0.04134*%
%ADD30R,0.01575X0.04724*%
%ADD31R,0.03937X0.06102*%
%ADD32R,0.07874X0.16535*%
%ADD33R,0.04331X0.03543*%
%ADD34R,0.04331X0.02559*%
%ADD35R,0.03543X0.04331*%
%ADD36R,0.03543X0.03543*%
%ADD37C,0.02000*%
%ADD38C,0.10000*%
%ADD39C,0.07874*%
%ADD40C,0.00800*%
%ADD41C,0.01000*%
%ADD42C,0.01600*%
%ADD43C,0.01500*%
%ADD44C,0.01400*%
%ADD45C,0.01200*%
%ADD46C,0.00900*%
%ADD47C,0.03000*%
%ADD48C,0.04000*%
%ADD49C,0.01800*%
%ADD50C,0.05000*%
%ADD51C,0.01575*%
%ADD52C,0.07000*%
%ADD53O,0.04921X0.03740*%
%ADD54O,0.03543X0.06102*%
%ADD55C,0.05500*%
%ADD56C,0.09055*%
%ADD57C,0.01400*%
%ADD58R,0.09843X0.09843*%
%ADD59C,0.09843*%
%ADD60C,0.02400*%
G36*
X270500Y373500D02*
X267500D01*
X263500Y369500D01*
X262000D01*
Y373500D01*
X263500Y375000D01*
X270500D01*
Y373500D01*
D02*
G37*
G36*
X394000Y383500D02*
Y376500D01*
X386000Y368500D01*
X371000D01*
X369499Y370001D01*
Y378799D01*
X373701Y378799D01*
X378000Y374500D01*
X390000Y386500D01*
Y388500D01*
X394000D01*
Y383500D01*
D02*
G37*
G36*
X263500Y353000D02*
X266500Y350000D01*
Y335000D01*
X262000Y335000D01*
Y354000D01*
X263500D01*
Y353000D01*
D02*
G37*
G36*
X254941Y375059D02*
X256000Y374000D01*
Y355000D01*
X247500D01*
Y375059D01*
X254941Y375059D01*
D02*
G37*
G36*
X368499Y379500D02*
X368500D01*
Y368500D01*
X359000D01*
X351600Y375900D01*
X343100Y375900D01*
X342500Y376500D01*
X342500Y379000D01*
X350955Y379000D01*
X357500Y379000D01*
X359000Y377500D01*
X364000D01*
X364000Y378800D01*
X363999D01*
X363999Y383799D01*
X366999Y386799D01*
X366999Y389300D01*
X368499D01*
Y379500D01*
D02*
G37*
G36*
X394000Y397500D02*
X394000Y390500D01*
X391000D01*
X379000Y402500D01*
X373498D01*
Y400799D01*
X373498Y395298D01*
X370999Y392799D01*
X370999Y390299D01*
X369499D01*
Y398001D01*
Y403999D01*
X373000Y407500D01*
X384000D01*
X394000Y397500D01*
D02*
G37*
G36*
X398000Y408500D02*
X399500Y407000D01*
Y405000D01*
Y390500D01*
X396000D01*
Y396500D01*
X393500Y399000D01*
Y407000D01*
X395500D01*
X396000Y407500D01*
Y413500D01*
X398000D01*
Y408500D01*
D02*
G37*
G36*
X370999Y386799D02*
X373999Y383799D01*
X373999Y378799D01*
X369499D01*
Y389299D01*
X370999D01*
X370999Y386799D01*
D02*
G37*
G36*
X271000Y406500D02*
X341000Y406500D01*
X350000Y397500D01*
X350000Y384500D01*
X344500Y384500D01*
X344500Y389500D01*
X340500Y393500D01*
X255000Y393500D01*
Y385750D01*
X248000D01*
X247000Y386750D01*
Y400000D01*
X247000Y400000D01*
X247000Y420000D01*
X257500D01*
X271000Y406500D01*
D02*
G37*
D10*
X342000Y381500D02*
D03*
D11*
X341016Y377760D02*
D03*
X342984Y385240D02*
D03*
X339047Y377760D02*
D03*
X342984D02*
D03*
X344953D02*
D03*
X344953Y385240D02*
D03*
X341016D02*
D03*
X339047D02*
D03*
D12*
X380299Y421453D02*
D03*
X403134D02*
D03*
D13*
X387779D02*
D03*
X395654D02*
D03*
D14*
X386598Y410823D02*
D03*
X389157D02*
D03*
X391717D02*
D03*
X394276D02*
D03*
X396835D02*
D03*
D15*
X215000Y388342D02*
D03*
Y393657D02*
D03*
D16*
X194531Y349500D02*
D03*
X198468D02*
D03*
X362468Y397799D02*
D03*
X358530D02*
D03*
X359967Y393799D02*
D03*
X356031D02*
D03*
X342031Y373500D02*
D03*
X345968D02*
D03*
X334031D02*
D03*
X337968D02*
D03*
X339968Y389500D02*
D03*
X336031D02*
D03*
X257968Y336000D02*
D03*
X254031D02*
D03*
X162031Y400500D02*
D03*
X165969D02*
D03*
D17*
X198543Y355760D02*
D03*
Y363240D02*
D03*
X191457Y359500D02*
D03*
D18*
X148929Y381689D02*
D03*
D19*
X174126Y390665D02*
D03*
Y372713D02*
D03*
D20*
X182000Y379968D02*
D03*
Y376031D02*
D03*
X354499Y397831D02*
D03*
Y401767D02*
D03*
D21*
X185768Y373000D02*
D03*
X189232D02*
D03*
X185768Y369000D02*
D03*
X189232D02*
D03*
D22*
X204383Y368976D02*
D03*
Y370551D02*
D03*
Y372126D02*
D03*
Y373701D02*
D03*
Y375275D02*
D03*
X194616Y368976D02*
D03*
Y370551D02*
D03*
Y372126D02*
D03*
Y373701D02*
D03*
Y375275D02*
D03*
D23*
X199500Y372126D02*
D03*
D24*
X196055Y381252D02*
D03*
X202945D02*
D03*
D25*
Y389126D02*
D03*
X196055D02*
D03*
D26*
X371341Y399299D02*
D03*
X376657D02*
D03*
X366656Y380799D02*
D03*
X361342D02*
D03*
X372341D02*
D03*
X377657D02*
D03*
X249657Y358000D02*
D03*
X244342D02*
D03*
X231657Y382000D02*
D03*
X226343D02*
D03*
D27*
X359999Y386067D02*
D03*
Y389531D02*
D03*
X350000Y373768D02*
D03*
Y377232D02*
D03*
D28*
X364471Y388815D02*
D03*
Y390783D02*
D03*
Y392752D02*
D03*
Y386846D02*
D03*
X373527D02*
D03*
Y392752D02*
D03*
Y390783D02*
D03*
Y388815D02*
D03*
D29*
X367621Y392457D02*
D03*
Y387141D02*
D03*
X370377D02*
D03*
Y392457D02*
D03*
D30*
X260221Y355882D02*
D03*
X262779D02*
D03*
X265339D02*
D03*
X257661D02*
D03*
Y367118D02*
D03*
X260221D02*
D03*
X262779D02*
D03*
X265339D02*
D03*
D31*
X240957Y366000D02*
D03*
X249043D02*
D03*
X272043Y338000D02*
D03*
X263957D02*
D03*
X272043Y347000D02*
D03*
X263957D02*
D03*
D32*
X266587Y382000D02*
D03*
X251413D02*
D03*
D33*
X257000Y347856D02*
D03*
Y342144D02*
D03*
X194000Y410256D02*
D03*
Y404744D02*
D03*
X187000Y410256D02*
D03*
Y404744D02*
D03*
X180000Y404744D02*
D03*
Y410256D02*
D03*
D34*
X222276Y395740D02*
D03*
Y392000D02*
D03*
Y388260D02*
D03*
X231724D02*
D03*
Y395740D02*
D03*
D35*
X145756Y400500D02*
D03*
X140244D02*
D03*
X397756Y386500D02*
D03*
X392244D02*
D03*
X397756Y392500D02*
D03*
X392244D02*
D03*
D36*
X180000Y416547D02*
D03*
Y422453D02*
D03*
X187000D02*
D03*
Y416547D02*
D03*
X194000D02*
D03*
Y422453D02*
D03*
D37*
X198468Y349500D02*
Y355185D01*
X182000Y379968D02*
Y389165D01*
X148929Y381689D02*
X152189D01*
X249657Y358000D02*
Y380244D01*
X178882Y349500D02*
X193531D01*
X174126Y372713D02*
X176287D01*
X189000Y360000D01*
X190457D01*
X178681Y372713D02*
X182000Y376031D01*
X174126Y372713D02*
X178681D01*
X177649Y371681D02*
X180968Y375000D01*
X215000Y393657D02*
X217342D01*
X219000Y392000D01*
X222276D01*
X215000Y393657D02*
Y397000D01*
X223000Y382000D02*
X226343D01*
X354531Y397799D02*
X358530D01*
X187000Y422453D02*
X194000D01*
X198047D01*
X204000Y416500D01*
Y409500D02*
Y416500D01*
Y409500D02*
X209000Y404500D01*
X218000D01*
X222276Y400224D01*
Y395740D02*
Y400224D01*
X260500Y329500D02*
X274500D01*
X297500Y352500D01*
Y363500D01*
D38*
X182000Y389165D02*
X193000D01*
X174126D02*
X182000D01*
X361882Y328500D02*
Y348500D01*
X381882D01*
X391882Y338500D01*
X381882Y348500D02*
X401000Y367618D01*
Y383500D01*
D39*
X160882Y347500D02*
X179882Y328500D01*
X149882Y347500D02*
X160882D01*
X149882Y338500D02*
Y347500D01*
Y358500D02*
X169882D01*
X149882Y347500D02*
Y358500D01*
Y380736D01*
X169882Y358500D02*
X178882Y349500D01*
D40*
X194616Y379813D02*
X196055Y381252D01*
X194616Y375275D02*
Y379813D01*
X202945Y381252D02*
X204383Y379813D01*
Y375275D02*
Y379813D01*
X194616Y375275D02*
X196350D01*
X199500Y372126D01*
X189256Y368976D02*
X194616D01*
X189933Y373701D02*
X194616D01*
Y366383D02*
Y368976D01*
Y366383D02*
X197260Y363740D01*
X373527Y386846D02*
X375452D01*
X376999Y385299D01*
X373527Y388815D02*
X376983D01*
X373527Y392752D02*
X375452D01*
X376657Y393956D01*
Y394799D01*
Y398799D01*
X373527Y390783D02*
X375483D01*
X376499Y391799D01*
X378999D01*
X377657Y380799D02*
Y384642D01*
X204383Y372126D02*
X206260D01*
X206272Y372113D01*
X209000D01*
X303200Y349796D02*
Y364700D01*
X321000Y382500D01*
Y383500D01*
X197260Y362740D02*
Y363740D01*
X209000Y372113D02*
X228000Y353113D01*
Y342500D02*
Y353113D01*
Y342500D02*
X247000Y323500D01*
X276904D01*
X303200Y349796D01*
D41*
X185768Y369000D02*
Y373000D01*
Y385268D01*
X189626Y389126D01*
X194626D01*
X354499Y401767D02*
Y405001D01*
X341016Y374516D02*
Y377760D01*
Y374516D02*
X342031Y374200D01*
X337968D02*
X342031D01*
X345968Y373500D02*
X349732D01*
X352232Y371000D01*
X336000Y386287D02*
X337000Y387287D01*
X336031Y388256D02*
X337000Y387287D01*
X339047Y385240D01*
X341016D02*
Y388453D01*
X339968Y389500D02*
X341016Y388453D01*
X165969Y400500D02*
X167000Y401531D01*
Y403500D01*
X136000Y400500D02*
X140244D01*
X176244Y404744D02*
X180000D01*
X176000Y404500D02*
X176244Y404744D01*
X194000Y404744D02*
X197756D01*
X198000Y404500D01*
X187000Y401000D02*
Y404744D01*
Y401000D02*
X188500Y399500D01*
X207000D01*
X210500Y396000D01*
Y384000D02*
Y396000D01*
Y384000D02*
X218000Y376500D01*
X229500D01*
X231657Y378657D02*
Y382000D01*
X231724Y395740D02*
X232000Y396016D01*
Y399000D01*
X159000Y396500D02*
X197500D01*
X154000Y401500D02*
X159000Y396500D01*
X154000Y401500D02*
Y415500D01*
X204383Y373701D02*
X209817D01*
X281000Y383500D02*
X282500D01*
X301500Y364500D01*
Y350500D02*
Y364500D01*
X229500Y376500D02*
X231657Y378657D01*
X214000Y387343D02*
X215000Y388342D01*
X214000Y385000D02*
Y387343D01*
X356031Y393799D02*
X356500Y393330D01*
Y391000D02*
Y393330D01*
X229500Y376500D02*
X230500D01*
X211500Y364500D02*
X214000D01*
X226000Y352500D01*
X198543Y363240D02*
X199803Y364500D01*
X211500D01*
X230000Y343500D02*
Y353518D01*
X226000Y341500D02*
Y352500D01*
X230000Y343500D02*
X248000Y325500D01*
X276500D01*
X301500Y350500D01*
X226000Y341500D02*
X246000Y321500D01*
X278000D01*
X209817Y373701D02*
X230000Y353518D01*
X278000Y321500D02*
X305000Y348500D01*
X361882D01*
Y328500D02*
Y348500D01*
D42*
X260221Y351076D02*
Y355882D01*
X257000Y347856D02*
X260221Y351076D01*
X262779Y367118D02*
Y372779D01*
X266587Y376587D01*
X260221Y367118D02*
Y369779D01*
X254941Y375059D02*
X260221Y369779D01*
X257968Y336000D02*
X261957D01*
X250000Y340031D02*
X254031Y336000D01*
X250000Y340031D02*
Y344000D01*
X253856Y347856D01*
X257000D01*
X251413Y376587D02*
Y378587D01*
Y376587D02*
X257661Y370339D01*
Y367118D02*
Y370339D01*
X370377Y382764D02*
Y387141D01*
Y382764D02*
X372341Y380799D01*
X370377Y392457D02*
Y397834D01*
X367621Y387141D02*
Y388421D01*
Y381764D02*
Y387141D01*
Y392457D02*
Y399879D01*
X358000Y409500D02*
X367621Y399879D01*
X396835Y405500D02*
Y410823D01*
X366500Y406500D02*
Y419500D01*
X362500Y423500D02*
X366500Y419500D01*
X342500Y417000D02*
X343500D01*
X351000Y409500D01*
X358000D01*
X317000D02*
X321000Y413500D01*
X302315Y409500D02*
X317000D01*
X292315Y419500D02*
X302315Y409500D01*
X325000Y423500D02*
X362500D01*
X321000Y419500D02*
X325000Y423500D01*
X321000Y413500D02*
Y419500D01*
X262779Y337000D02*
Y355882D01*
X396835Y393421D02*
Y405500D01*
X367621Y388421D02*
Y392457D01*
D43*
X253144Y342144D02*
X257000D01*
X272043Y338000D02*
Y342500D01*
Y347000D01*
X265339Y354661D02*
Y355882D01*
Y354661D02*
X272043Y347957D01*
X265339Y367118D02*
X268118D01*
X240957Y361386D02*
Y366000D01*
Y361386D02*
X241500Y360842D01*
X244342Y358000D01*
X265339Y355882D02*
Y367118D01*
X202945Y389126D02*
X207374D01*
X203000Y392500D02*
X207429D01*
X203000Y386000D02*
X207429D01*
X204500Y391500D02*
Y395929D01*
X201500Y391500D02*
Y395929D01*
X377937Y421453D02*
X380299D01*
X387779D01*
X395654D01*
X403134D01*
X405496D01*
X381874Y410823D02*
X386598D01*
D44*
X251776Y355882D02*
X257661D01*
X249657Y358000D02*
X251776Y355882D01*
X360778Y386846D02*
X364471D01*
X360731Y386799D02*
X360778Y386846D01*
X357499Y383799D02*
X359999D01*
Y386067D01*
Y382141D02*
Y383799D01*
X177953Y422453D02*
X180000D01*
X176000Y420500D02*
X177953Y422453D01*
X207500Y411000D02*
X252500D01*
D45*
X360716Y388815D02*
X364471D01*
X352669Y397831D02*
X354499D01*
X350500Y400000D02*
X352669Y397831D01*
X298500Y391000D02*
X328000D01*
X291000Y383500D02*
X298500Y391000D01*
X332000Y373500D02*
X334031D01*
X331000Y372500D02*
X332000Y373500D01*
X352500Y382000D02*
X353000Y381500D01*
X352500Y382000D02*
Y393700D01*
D46*
X362983Y390783D02*
X364471D01*
X359967Y393799D02*
X362983Y390783D01*
X363546Y392752D02*
X364471D01*
X362468Y393830D02*
X363546Y392752D01*
X362468Y393830D02*
Y397799D01*
D47*
X215000Y388342D02*
X215083Y388260D01*
X222276D01*
X231657Y382000D02*
Y388193D01*
X146000Y400744D02*
Y415500D01*
D48*
X372341Y371158D02*
Y380799D01*
X371341Y398799D02*
Y403841D01*
X373000Y405500D01*
X379000D01*
X392122Y392378D01*
D49*
X162000Y400500D02*
Y415500D01*
X180000Y410256D02*
Y416547D01*
X187000Y410256D02*
Y416547D01*
X194000Y410256D02*
Y416547D01*
D50*
X236500Y404500D02*
X240500Y400500D01*
Y379000D02*
Y400500D01*
X224500Y404500D02*
X236500D01*
X263957Y332957D02*
Y338000D01*
X260500Y329500D02*
X263957Y332957D01*
X250500Y329500D02*
X260500D01*
X234500Y373000D02*
X240500Y379000D01*
X234500Y345500D02*
X250500Y329500D01*
X234500Y345500D02*
Y373000D01*
D51*
X344165Y381500D02*
D03*
X339835D02*
D03*
D52*
X321000Y383500D02*
D03*
X311000D02*
D03*
X301000D02*
D03*
X291000D02*
D03*
X281000D02*
D03*
X328300Y417000D02*
D03*
X360700D02*
D03*
X170700Y415500D02*
D03*
X138300D02*
D03*
D53*
X381874Y410823D02*
D03*
X401559D02*
D03*
D54*
X405496Y421453D02*
D03*
X377937D02*
D03*
D55*
X336500Y417000D02*
D03*
X344500D02*
D03*
X352500D02*
D03*
X162500Y415500D02*
D03*
X154500D02*
D03*
X146500D02*
D03*
D56*
X391882Y338500D02*
D03*
X361882Y348500D02*
D03*
Y328500D02*
D03*
X149882Y338500D02*
D03*
X179882Y328500D02*
D03*
Y348500D02*
D03*
D57*
X367622Y391177D02*
D03*
X370377Y391176D02*
D03*
X370377Y388420D02*
D03*
X367621Y388421D02*
D03*
D58*
X312000Y419500D02*
D03*
X272000D02*
D03*
X232000D02*
D03*
D59*
X292315D02*
D03*
X252315D02*
D03*
X212315D02*
D03*
D60*
X253144Y342144D02*
D03*
X272043Y342500D02*
D03*
X268118Y367118D02*
D03*
X241500Y360842D02*
D03*
X207374Y389126D02*
D03*
X207429Y392500D02*
D03*
Y386000D02*
D03*
X204500Y395929D02*
D03*
X201500D02*
D03*
X357499Y383799D02*
D03*
X376999Y385299D02*
D03*
X376983Y388815D02*
D03*
X376657Y394799D02*
D03*
X378999Y391799D02*
D03*
X215000Y397000D02*
D03*
X223000Y382000D02*
D03*
X354499Y405001D02*
D03*
X352232Y371000D02*
D03*
X336000Y386287D02*
D03*
X396835Y405500D02*
D03*
X366500Y406500D02*
D03*
X167000Y403500D02*
D03*
X136000Y400500D02*
D03*
X176000Y404500D02*
D03*
X198000D02*
D03*
X176000Y420500D02*
D03*
X207500Y411000D02*
D03*
X224500Y404500D02*
D03*
X227000D02*
D03*
X232000Y399000D02*
D03*
X197500Y396500D02*
D03*
X297500Y363500D02*
D03*
X350500Y400000D02*
D03*
X328000Y391000D02*
D03*
X268500Y352500D02*
D03*
X331000Y372500D02*
D03*
X214000Y385000D02*
D03*
X211500Y364500D02*
D03*
X367000Y384500D02*
D03*
X371000D02*
D03*
X371300Y395500D02*
D03*
X356500Y391000D02*
D03*
X353000Y381500D02*
D03*
X352500Y393700D02*
D03*
X230500Y376500D02*
D03*
M02*
