G04 Layer_Color=15132400*
%FSLAX25Y25*%
%MOIN*%
G70*
G01*
G75*
%ADD21C,0.00700*%
%ADD22C,0.01000*%
%ADD23C,0.00600*%
%ADD28C,0.00945*%
%ADD29C,0.00984*%
%ADD30C,0.00500*%
%ADD31C,0.00787*%
D21*
X397001Y159499D02*
X396501Y159000D01*
Y158000D01*
X397001Y157500D01*
X397501D01*
X398001Y158000D01*
Y159000D01*
X398500Y159499D01*
X399000D01*
X399500Y159000D01*
Y158000D01*
X399000Y157500D01*
X396501Y160499D02*
X399500D01*
X398001D01*
Y162498D01*
X396501D01*
X399500D01*
X396501Y163498D02*
Y165497D01*
Y164498D01*
X399500D01*
X386501Y157500D02*
X388500D01*
X389500Y158500D01*
X388500Y159499D01*
X386501D01*
Y160499D02*
Y161499D01*
Y160999D01*
X389500D01*
Y160499D01*
Y161499D01*
Y162998D02*
X386501D01*
X389500Y164998D01*
X386501D01*
X377001Y159499D02*
X376501Y159000D01*
Y158000D01*
X377001Y157500D01*
X379000D01*
X379500Y158000D01*
Y159000D01*
X379000Y159499D01*
X378000D01*
Y158500D01*
X379500Y160499D02*
X376501D01*
X379500Y162498D01*
X376501D01*
Y163498D02*
X379500D01*
Y164998D01*
X379000Y165497D01*
X377001D01*
X376501Y164998D01*
Y163498D01*
X407001Y159499D02*
X406501Y159000D01*
Y158000D01*
X407001Y157500D01*
X407501D01*
X408001Y158000D01*
Y159000D01*
X408500Y159499D01*
X409000D01*
X409500Y159000D01*
Y158000D01*
X409000Y157500D01*
X406501Y160499D02*
X409500D01*
Y161999D01*
X409000Y162498D01*
X407001D01*
X406501Y161999D01*
Y160499D01*
X409500Y163498D02*
X407501D01*
X406501Y164498D01*
X407501Y165497D01*
X409500D01*
X408001D01*
Y163498D01*
X367001Y159499D02*
X366501Y159000D01*
Y158000D01*
X367001Y157500D01*
X367501D01*
X368001Y158000D01*
Y159000D01*
X368500Y159499D01*
X369000D01*
X369500Y159000D01*
Y158000D01*
X369000Y157500D01*
X367001Y162498D02*
X366501Y161999D01*
Y160999D01*
X367001Y160499D01*
X369000D01*
X369500Y160999D01*
Y161999D01*
X369000Y162498D01*
X366501Y163498D02*
X369500D01*
Y165497D01*
D22*
X396000Y168500D02*
G03*
X396000Y168500I-500J0D01*
G01*
X409000Y172500D02*
Y177500D01*
X397000Y172500D02*
Y177500D01*
D23*
X410047Y181058D02*
Y179392D01*
X410381Y179059D01*
X411047D01*
X411380Y179392D01*
Y181058D01*
X412047Y179059D02*
X412713D01*
X412380D01*
Y181058D01*
X412047Y180725D01*
X364378Y164886D02*
X362379D01*
Y165885D01*
X362712Y166219D01*
X363378D01*
X363712Y165885D01*
Y164886D01*
Y165552D02*
X364378Y166219D01*
X362379Y168218D02*
X362712Y167552D01*
X363378Y166885D01*
X364045D01*
X364378Y167218D01*
Y167885D01*
X364045Y168218D01*
X363712D01*
X363378Y167885D01*
Y166885D01*
X381701Y164492D02*
Y166491D01*
X382700D01*
X383034Y166158D01*
Y165492D01*
X382700Y165159D01*
X381701D01*
X382367D02*
X383034Y164492D01*
X385033Y166491D02*
X383700D01*
Y165492D01*
X384367Y165825D01*
X384700D01*
X385033Y165492D01*
Y164825D01*
X384700Y164492D01*
X384033D01*
X383700Y164825D01*
X364772Y195595D02*
X362772D01*
Y196594D01*
X363106Y196927D01*
X363772D01*
X364105Y196594D01*
Y195595D01*
Y196261D02*
X364772Y196927D01*
Y198593D02*
X362772D01*
X363772Y197594D01*
Y198927D01*
X363984Y180634D02*
Y182633D01*
X364984D01*
X365317Y182300D01*
Y181633D01*
X364984Y181300D01*
X363984D01*
X364651D02*
X365317Y180634D01*
X365984Y182300D02*
X366317Y182633D01*
X366983D01*
X367317Y182300D01*
Y181967D01*
X366983Y181633D01*
X366650D01*
X366983D01*
X367317Y181300D01*
Y180967D01*
X366983Y180634D01*
X366317D01*
X365984Y180967D01*
X402843Y190476D02*
X400843D01*
Y191476D01*
X401176Y191809D01*
X401843D01*
X402176Y191476D01*
Y190476D01*
Y191143D02*
X402843Y191809D01*
Y193809D02*
Y192476D01*
X401510Y193809D01*
X401176D01*
X400843Y193475D01*
Y192809D01*
X401176Y192476D01*
X402567Y196776D02*
X400568D01*
Y197775D01*
X400901Y198108D01*
X401567D01*
X401900Y197775D01*
Y196776D01*
Y197442D02*
X402567Y198108D01*
Y198775D02*
Y199441D01*
Y199108D01*
X400568D01*
X400901Y198775D01*
X373191Y162069D02*
Y163402D01*
X372858Y163736D01*
X372192D01*
X371858Y163402D01*
Y162069D01*
X372192Y161736D01*
X372858D01*
X372525Y162403D02*
X373191Y161736D01*
X372858D02*
X373191Y162069D01*
X375190Y161736D02*
X373858D01*
X375190Y163069D01*
Y163402D01*
X374857Y163736D01*
X374191D01*
X373858Y163402D01*
X372797Y197109D02*
Y198442D01*
X372464Y198775D01*
X371798D01*
X371465Y198442D01*
Y197109D01*
X371798Y196776D01*
X372464D01*
X372131Y197442D02*
X372797Y196776D01*
X372464D02*
X372797Y197109D01*
X373464Y196776D02*
X374130D01*
X373797D01*
Y198775D01*
X373464Y198442D01*
X362333Y159499D02*
X361666D01*
X362000D01*
Y157833D01*
X361666Y157500D01*
X361333D01*
X361000Y157833D01*
X362999Y157500D02*
X363666D01*
X363333D01*
Y159499D01*
X362999Y159166D01*
X408620Y192166D02*
X408287Y192499D01*
X407621D01*
X407287Y192166D01*
Y190833D01*
X407621Y190500D01*
X408287D01*
X408620Y190833D01*
X410286Y190500D02*
Y192499D01*
X409287Y191500D01*
X410620D01*
X412712Y165431D02*
X412379Y165098D01*
Y164432D01*
X412712Y164098D01*
X414045D01*
X414378Y164432D01*
Y165098D01*
X414045Y165431D01*
X412712Y166098D02*
X412379Y166431D01*
Y167097D01*
X412712Y167431D01*
X413045D01*
X413378Y167097D01*
Y166764D01*
Y167097D01*
X413712Y167431D01*
X414045D01*
X414378Y167097D01*
Y166431D01*
X414045Y166098D01*
X402325Y203954D02*
X401992Y204287D01*
X401325D01*
X400992Y203954D01*
Y202621D01*
X401325Y202287D01*
X401992D01*
X402325Y202621D01*
X404324Y202287D02*
X402991D01*
X404324Y203620D01*
Y203954D01*
X403991Y204287D01*
X403325D01*
X402991Y203954D01*
X374372Y203166D02*
X374039Y203499D01*
X373373D01*
X373039Y203166D01*
Y201833D01*
X373373Y201500D01*
X374039D01*
X374372Y201833D01*
X375039Y201500D02*
X375705D01*
X375372D01*
Y203499D01*
X375039Y203166D01*
X390000Y170500D02*
Y171833D01*
X390666Y172499D01*
X391333Y171833D01*
Y170500D01*
Y171500D01*
X390000D01*
X391999Y170500D02*
X392666D01*
X392333D01*
Y172499D01*
X391999Y172166D01*
D28*
X394472Y195000D02*
G03*
X394472Y195000I-472J0D01*
G01*
D29*
X369949Y197409D02*
G03*
X369949Y197409I-492J0D01*
G01*
Y179764D02*
G03*
X369949Y179764I-492J0D01*
G01*
D30*
X382961Y194146D02*
X391854D01*
X393039Y192961D01*
Y174854D02*
Y192961D01*
X382961Y174854D02*
X393039D01*
X382961D02*
Y194146D01*
D31*
X375953Y184181D02*
Y186779D01*
X372744Y184181D02*
X375953D01*
Y193079D02*
Y195677D01*
X372744D02*
X375953D01*
Y166535D02*
Y169134D01*
X372744Y166535D02*
X375953D01*
Y175433D02*
Y178032D01*
X372744D02*
X375953D01*
X397705Y203681D02*
X399705D01*
X395736D02*
X397736D01*
X395236Y203181D02*
X395736Y203681D01*
X370500Y182500D02*
X371000Y182000D01*
X368500Y182500D02*
X370500D01*
M02*
