G04 Layer_Color=13813960*
%FSLAX25Y25*%
%MOIN*%
G70*
G01*
G75*
G36*
X406340Y194477D02*
X406445Y194432D01*
X406490Y194372D01*
X406535Y194312D01*
Y194297D01*
X406550Y194282D01*
X406565Y194192D01*
Y194132D01*
Y194072D01*
X406535Y193997D01*
X406490Y193937D01*
X406460Y193907D01*
X406385Y193862D01*
X406280Y193817D01*
X406145D01*
X406115Y193832D01*
X406040Y193862D01*
X405965Y193937D01*
X405890Y194057D01*
Y194072D01*
Y194087D01*
X405875Y194177D01*
X405890Y194282D01*
X405920Y194342D01*
X405965Y194387D01*
X405980Y194402D01*
X406025Y194447D01*
X406115Y194492D01*
X406220Y194507D01*
X406250D01*
X406340Y194477D01*
D02*
G37*
G36*
X409235Y189707D02*
X409310Y189662D01*
X409400Y189602D01*
X409415Y189572D01*
X409460Y189512D01*
X409490Y189407D01*
Y189347D01*
X409475Y189272D01*
Y189257D01*
Y189242D01*
X409445Y189152D01*
X409370Y189062D01*
X409265Y188987D01*
X409235D01*
X409160Y188972D01*
X408845D01*
X408725Y188957D01*
X406940D01*
X406655Y188972D01*
X406235D01*
X406175Y188987D01*
X406145D01*
X406115Y189002D01*
X406055Y189047D01*
X405980Y189152D01*
X405935Y189287D01*
Y189302D01*
Y189317D01*
Y189407D01*
X405980Y189527D01*
X406010Y189572D01*
X406055Y189632D01*
X406070Y189647D01*
X406100Y189677D01*
X406145Y189692D01*
X406190Y189707D01*
X406325D01*
X406400Y189722D01*
X409175D01*
X409235Y189707D01*
D02*
G37*
G36*
X409280Y188252D02*
Y188237D01*
Y188207D01*
X409265Y188162D01*
X409250Y188087D01*
X409220Y188012D01*
X409175Y187937D01*
X409115Y187847D01*
X409040Y187757D01*
X409025Y187742D01*
X409010Y187712D01*
X408965Y187682D01*
X408905Y187637D01*
X408740Y187532D01*
X408650Y187502D01*
X408545Y187472D01*
X408530D01*
X408485Y187457D01*
X408425Y187427D01*
X408410Y187397D01*
Y187382D01*
X408395Y187337D01*
X408365Y187277D01*
X408335Y187202D01*
X408275Y187112D01*
X408215Y187037D01*
X408125Y186962D01*
X408005Y186902D01*
X407990D01*
X407975Y186887D01*
X407930Y186872D01*
X407870Y186857D01*
X407705Y186827D01*
X407600Y186842D01*
X407495Y186857D01*
X407480D01*
X407435Y186887D01*
X407360Y186917D01*
X407285Y186977D01*
X407195Y187052D01*
X407120Y187142D01*
X407045Y187262D01*
X407000Y187397D01*
Y187412D01*
X406985Y187427D01*
X406955Y187442D01*
X406910Y187472D01*
X406880D01*
X406805Y187502D01*
X406715Y187532D01*
X406580Y187592D01*
X406460Y187682D01*
X406325Y187802D01*
X406220Y187967D01*
X406145Y188162D01*
Y188177D01*
Y188207D01*
X406130Y188252D01*
Y188312D01*
X406115Y188357D01*
X409295D01*
X409280Y188252D01*
D02*
G37*
G36*
X408155Y199457D02*
X408170D01*
X408230Y199442D01*
X408320Y199427D01*
X408440Y199397D01*
X408590Y199367D01*
X408755Y199307D01*
X408950Y199247D01*
X409145Y199172D01*
X409370Y199067D01*
X409580Y198962D01*
X409805Y198827D01*
X410030Y198662D01*
X410255Y198482D01*
X410465Y198287D01*
X410675Y198047D01*
X410855Y197792D01*
Y197777D01*
X410885Y197762D01*
X410900Y197717D01*
X410945Y197657D01*
X410990Y197567D01*
X411035Y197477D01*
X411140Y197267D01*
X411245Y196997D01*
X411335Y196682D01*
X411410Y196337D01*
X411455Y195977D01*
Y195962D01*
Y195932D01*
Y195872D01*
Y195797D01*
Y195707D01*
Y195602D01*
X411440Y195362D01*
X411395Y195062D01*
X411335Y194747D01*
X411230Y194402D01*
X411095Y194072D01*
X411080Y194057D01*
X411050Y193997D01*
X411005Y193922D01*
X410945Y193802D01*
X410855Y193667D01*
X410765Y193517D01*
X410645Y193337D01*
X410510Y193157D01*
Y193142D01*
X410480Y193127D01*
X410450Y193082D01*
X410420Y193022D01*
X410315Y192887D01*
X410180Y192707D01*
X410030Y192497D01*
X409880Y192272D01*
X409730Y192032D01*
X409580Y191807D01*
X409430Y191552D01*
Y190337D01*
X407975D01*
Y193727D01*
X408485Y194282D01*
X408515Y194312D01*
X408575Y194372D01*
X408650Y194447D01*
X408755Y194552D01*
X408845Y194657D01*
X408935Y194732D01*
X409010Y194792D01*
X409040Y194822D01*
X409055D01*
X409070Y194807D01*
X409145Y194792D01*
X409250Y194777D01*
X409370Y194792D01*
X409385D01*
X409430Y194807D01*
X409505Y194822D01*
X409595Y194867D01*
X409685Y194912D01*
X409775Y194987D01*
X409865Y195077D01*
X409925Y195197D01*
X409940Y195212D01*
X409955Y195272D01*
X409970Y195362D01*
X409985Y195482D01*
Y195497D01*
Y195512D01*
Y195587D01*
X409955Y195692D01*
X409925Y195782D01*
Y195797D01*
X409895Y195827D01*
X409865Y195872D01*
X409820Y195932D01*
X409700Y196052D01*
X409610Y196112D01*
X409520Y196157D01*
X409505D01*
X409475Y196172D01*
X409415Y196187D01*
X409355Y196202D01*
X409190D01*
X409085Y196172D01*
X408995Y196142D01*
X408980D01*
X408950Y196112D01*
X408905Y196082D01*
X408845Y196037D01*
X408710Y195902D01*
X408665Y195812D01*
X408620Y195722D01*
Y195707D01*
X408605Y195677D01*
Y195617D01*
X408590Y195557D01*
X408605Y195377D01*
X408620Y195272D01*
X408665Y195167D01*
X408710Y195047D01*
X408350Y194672D01*
X408005Y194282D01*
X407990Y194312D01*
Y194342D01*
X407975Y194387D01*
Y194462D01*
Y194567D01*
Y194582D01*
Y194627D01*
Y194702D01*
Y194807D01*
Y194957D01*
Y195137D01*
Y195362D01*
Y195632D01*
Y197012D01*
X408095Y197072D01*
X408110Y197087D01*
X408155Y197102D01*
X408230Y197147D01*
X408305Y197207D01*
X408380Y197297D01*
X408455Y197402D01*
X408500Y197537D01*
X408515Y197687D01*
Y197702D01*
Y197762D01*
X408500Y197852D01*
X408470Y197942D01*
X408425Y198062D01*
X408350Y198167D01*
X408245Y198272D01*
X408110Y198362D01*
X408095Y198377D01*
X408035Y198392D01*
X407945Y198407D01*
X407690D01*
X407600Y198392D01*
X407510Y198377D01*
X407495Y198362D01*
X407450Y198347D01*
X407375Y198287D01*
X407300Y198227D01*
X407225Y198137D01*
X407150Y198017D01*
X407105Y197882D01*
X407090Y197717D01*
Y197702D01*
Y197642D01*
X407120Y197567D01*
X407150Y197462D01*
X407195Y197357D01*
X407270Y197252D01*
X407375Y197162D01*
X407510Y197072D01*
X407615Y197012D01*
Y192992D01*
X407570Y193052D01*
Y193067D01*
X407540Y193097D01*
X407510Y193127D01*
X407495Y193142D01*
X407465Y193172D01*
X407420Y193217D01*
X407360Y193292D01*
X407345Y193307D01*
X407300Y193352D01*
X407240Y193412D01*
X407180Y193472D01*
X406850Y193817D01*
X406880Y193892D01*
X406895Y193907D01*
X406910Y193952D01*
X406925Y194042D01*
Y194162D01*
Y194177D01*
Y194192D01*
Y194267D01*
X406895Y194372D01*
X406865Y194462D01*
X406850Y194477D01*
X406820Y194537D01*
X406760Y194612D01*
X406685Y194702D01*
X406580Y194777D01*
X406460Y194837D01*
X406295Y194882D01*
X406115Y194867D01*
X406100D01*
X406055Y194852D01*
X405995Y194837D01*
X405920Y194792D01*
X405830Y194747D01*
X405740Y194687D01*
X405665Y194597D01*
X405590Y194492D01*
Y194477D01*
X405575Y194432D01*
X405545Y194372D01*
X405530Y194282D01*
Y194192D01*
Y194087D01*
X405545Y193967D01*
X405590Y193847D01*
Y193832D01*
X405620Y193802D01*
X405680Y193712D01*
X405815Y193592D01*
X405890Y193547D01*
X405995Y193502D01*
X406010D01*
X406040Y193487D01*
X406100Y193472D01*
X406340D01*
X406430Y193487D01*
X406520Y193517D01*
X406595Y193562D01*
X406655Y193502D01*
X406670Y193487D01*
X406685Y193472D01*
X406730Y193427D01*
X406790Y193367D01*
X406880Y193262D01*
X407000Y193142D01*
X407165Y192962D01*
X407615Y192467D01*
Y191402D01*
Y190337D01*
X405965D01*
Y190982D01*
Y191597D01*
X405785Y191897D01*
X405770Y191927D01*
X405710Y192002D01*
X405635Y192122D01*
X405530Y192287D01*
X405395Y192482D01*
X405245Y192692D01*
X405080Y192932D01*
X404900Y193187D01*
X404885Y193217D01*
X404840Y193277D01*
X404765Y193367D01*
X404675Y193487D01*
X404585Y193622D01*
X404495Y193772D01*
X404390Y193922D01*
X404315Y194057D01*
Y194072D01*
X404300Y194102D01*
X404270Y194147D01*
X404240Y194222D01*
X404210Y194297D01*
X404180Y194402D01*
X404105Y194642D01*
X404030Y194942D01*
X403970Y195257D01*
X403940Y195617D01*
Y195977D01*
Y195992D01*
Y196037D01*
X403955Y196112D01*
X403970Y196202D01*
X403985Y196307D01*
X404015Y196442D01*
X404045Y196592D01*
X404105Y196757D01*
X404225Y197117D01*
X404390Y197492D01*
X404510Y197687D01*
X404630Y197882D01*
X404765Y198077D01*
X404930Y198257D01*
X404945Y198272D01*
X404975Y198302D01*
X405020Y198347D01*
X405095Y198407D01*
X405185Y198482D01*
X405290Y198572D01*
X405410Y198662D01*
X405545Y198767D01*
X405695Y198857D01*
X405875Y198962D01*
X406250Y199157D01*
X406670Y199322D01*
X406910Y199382D01*
X407150Y199427D01*
X407165D01*
X407225Y199442D01*
X407315D01*
X407435Y199457D01*
X407585D01*
X407765Y199472D01*
X407945D01*
X408155Y199457D01*
D02*
G37*
G36*
X408440Y204827D02*
X408575D01*
X408605Y204812D01*
X408650D01*
X408680Y204797D01*
X408740Y204782D01*
X408800Y204752D01*
X408860Y204692D01*
X408935Y204632D01*
X408995Y204557D01*
X409040Y204452D01*
Y204422D01*
X409055Y204392D01*
Y204317D01*
Y204227D01*
X409070Y204077D01*
Y203882D01*
Y203777D01*
Y203642D01*
Y202907D01*
X409115Y202877D01*
X409130D01*
X409175Y202862D01*
X409235Y202847D01*
X409340Y202832D01*
X409445Y202802D01*
X409580Y202757D01*
X409730Y202727D01*
X409895Y202667D01*
X410270Y202532D01*
X410675Y202367D01*
X411095Y202172D01*
X411530Y201917D01*
X411695Y201812D01*
X412205Y202322D01*
X412220Y202337D01*
X412280Y202397D01*
X412355Y202472D01*
X412445Y202562D01*
X412535Y202652D01*
X412625Y202727D01*
X412700Y202802D01*
X412760Y202847D01*
X412775Y202862D01*
X412835Y202892D01*
X412940Y202907D01*
X413075Y202922D01*
X413180D01*
X413270Y202907D01*
X413345Y202877D01*
X413375Y202862D01*
X413405Y202832D01*
X413465Y202772D01*
X413555Y202697D01*
X413690Y202562D01*
X413870Y202397D01*
X413975Y202292D01*
X414095Y202172D01*
X414125Y202142D01*
X414185Y202082D01*
X414275Y201992D01*
X414380Y201887D01*
X414485Y201767D01*
X414590Y201647D01*
X414680Y201557D01*
X414725Y201497D01*
X414740Y201482D01*
X414770Y201422D01*
X414800Y201317D01*
X414815Y201182D01*
Y201167D01*
Y201152D01*
X414800Y201077D01*
X414785Y200972D01*
X414725Y200867D01*
X414710Y200837D01*
X414680Y200807D01*
X414620Y200747D01*
X414560Y200672D01*
X414470Y200582D01*
X414350Y200462D01*
X414200Y200312D01*
X413690Y199802D01*
X413735Y199727D01*
X413750Y199712D01*
X413795Y199637D01*
X413855Y199547D01*
X413945Y199412D01*
X414035Y199262D01*
X414125Y199082D01*
X414230Y198872D01*
X414320Y198662D01*
X414335Y198632D01*
X414365Y198557D01*
X414425Y198437D01*
X414485Y198287D01*
X414545Y198092D01*
X414620Y197882D01*
X414680Y197642D01*
X414740Y197387D01*
X414770Y197207D01*
X415865D01*
X416015Y197192D01*
X416135D01*
X416255Y197177D01*
X416315Y197162D01*
X416345Y197147D01*
X416390Y197132D01*
X416465Y197087D01*
X416540Y197012D01*
X416555Y196997D01*
X416600Y196952D01*
X416645Y196877D01*
X416690Y196787D01*
X416705Y196757D01*
Y196697D01*
X416720Y196607D01*
Y196472D01*
X416735Y196292D01*
Y196187D01*
Y196052D01*
Y195917D01*
Y195752D01*
Y194837D01*
X416675Y194732D01*
Y194717D01*
X416645Y194702D01*
X416585Y194612D01*
X416480Y194522D01*
X416420Y194477D01*
X416360Y194447D01*
X416255Y194387D01*
X415010D01*
X414890Y194372D01*
X414800D01*
X414785Y194357D01*
X414770D01*
Y194327D01*
X414755Y194282D01*
X414740Y194207D01*
X414710Y194102D01*
X414680Y193952D01*
X414620Y193757D01*
X414545Y193502D01*
Y193487D01*
X414530Y193472D01*
X414515Y193427D01*
X414500Y193367D01*
X414440Y193217D01*
X414365Y193037D01*
X414260Y192812D01*
X414155Y192572D01*
X413885Y192062D01*
X413870Y192047D01*
X413840Y191987D01*
X413825Y191957D01*
X413780Y191912D01*
X413765Y191897D01*
X413750Y191867D01*
X413735Y191822D01*
X413690Y191762D01*
X414230Y191237D01*
X414260Y191222D01*
X414320Y191147D01*
X414395Y191072D01*
X414500Y190967D01*
X414590Y190862D01*
X414680Y190757D01*
X414755Y190682D01*
X414785Y190622D01*
Y190607D01*
X414800Y190577D01*
Y190547D01*
X414815Y190487D01*
Y190337D01*
X414785Y190187D01*
X414770Y190157D01*
X414740Y190112D01*
X414695Y190052D01*
X414605Y189947D01*
X414485Y189812D01*
X414320Y189632D01*
X414095Y189407D01*
X414065Y189377D01*
X414005Y189317D01*
X413915Y189227D01*
X413795Y189122D01*
X413675Y189017D01*
X413570Y188912D01*
X413465Y188837D01*
X413405Y188777D01*
X413390Y188762D01*
X413330Y188717D01*
X413225Y188687D01*
X413105Y188657D01*
X413015D01*
X412940Y188672D01*
X412865Y188702D01*
X412850Y188717D01*
X412805Y188747D01*
X412760Y188777D01*
X412670Y188852D01*
X412565Y188942D01*
X412430Y189077D01*
X412250Y189257D01*
X411710Y189782D01*
X411665Y189752D01*
X411650D01*
X411620Y189722D01*
X411590Y189692D01*
X411530Y189662D01*
X411470Y189617D01*
X411380Y189572D01*
X411365D01*
X411350Y189557D01*
X411305Y189527D01*
X411245Y189497D01*
X411110Y189422D01*
X410945Y189332D01*
X410765Y189242D01*
X410600Y189167D01*
X410450Y189107D01*
X410405Y189092D01*
X410360D01*
Y190277D01*
Y191462D01*
X410510Y191582D01*
X410525Y191597D01*
X410570Y191612D01*
X410630Y191657D01*
X410720Y191732D01*
X410825Y191807D01*
X410960Y191912D01*
X411110Y192047D01*
X411275Y192197D01*
X411290Y192212D01*
X411335Y192272D01*
X411410Y192347D01*
X411515Y192467D01*
X411620Y192617D01*
X411755Y192782D01*
X411890Y192992D01*
X412025Y193217D01*
X412160Y193472D01*
X412295Y193742D01*
X412430Y194042D01*
X412535Y194357D01*
X412640Y194702D01*
X412715Y195047D01*
X412760Y195422D01*
X412775Y195812D01*
Y195842D01*
Y195902D01*
X412760Y196022D01*
X412745Y196157D01*
X412730Y196337D01*
X412700Y196547D01*
X412655Y196787D01*
X412595Y197042D01*
X412505Y197312D01*
X412415Y197597D01*
X412295Y197897D01*
X412145Y198212D01*
X411965Y198512D01*
X411770Y198812D01*
X411545Y199112D01*
X411275Y199397D01*
X411260Y199412D01*
X411215Y199457D01*
X411155Y199517D01*
X411065Y199592D01*
X410945Y199682D01*
X410795Y199787D01*
X410630Y199907D01*
X410450Y200027D01*
X410240Y200162D01*
X410015Y200282D01*
X409775Y200402D01*
X409505Y200522D01*
X409235Y200627D01*
X408935Y200717D01*
X408635Y200792D01*
X408305Y200852D01*
X408230D01*
X408170Y200867D01*
X407210D01*
X407105Y200852D01*
X407015D01*
X406970Y200837D01*
X406880Y200822D01*
X406775Y200807D01*
X406655Y200777D01*
X406505Y200732D01*
X406325Y200687D01*
X406145Y200627D01*
X405740Y200462D01*
X405290Y200267D01*
X405065Y200147D01*
X404840Y199997D01*
X404615Y199847D01*
X404390Y199682D01*
X404375Y199667D01*
X404330Y199622D01*
X404255Y199562D01*
X404150Y199457D01*
X404045Y199337D01*
X403910Y199187D01*
X403760Y199022D01*
X403625Y198827D01*
X403460Y198602D01*
X403310Y198362D01*
X403160Y198092D01*
X403025Y197822D01*
X402890Y197507D01*
X402785Y197192D01*
X402695Y196847D01*
X402620Y196487D01*
Y196472D01*
Y196442D01*
Y196397D01*
Y196322D01*
X402605Y196232D01*
Y196112D01*
Y195977D01*
Y195812D01*
Y195797D01*
Y195737D01*
Y195647D01*
Y195542D01*
Y195317D01*
X402620Y195197D01*
Y195107D01*
Y195092D01*
X402635Y195047D01*
X402650Y194972D01*
X402665Y194867D01*
X402695Y194747D01*
X402740Y194597D01*
X402785Y194447D01*
X402845Y194267D01*
X402980Y193877D01*
X403175Y193457D01*
X403415Y193037D01*
X403700Y192617D01*
Y192602D01*
X403730Y192587D01*
X403805Y192497D01*
X403925Y192362D01*
X404090Y192197D01*
X404300Y192002D01*
X404540Y191792D01*
X404810Y191582D01*
X405110Y191387D01*
X405245Y191312D01*
Y190157D01*
X405230Y188987D01*
X405215D01*
X405185Y189002D01*
X405140Y189017D01*
X405065Y189032D01*
X404975Y189077D01*
X404840Y189122D01*
X404675Y189197D01*
X404660Y189212D01*
X404615Y189227D01*
X404540Y189272D01*
X404435Y189317D01*
X404315Y189392D01*
X404165Y189467D01*
X403850Y189647D01*
X403655Y189767D01*
X403640D01*
X403625Y189737D01*
X403580Y189707D01*
X403505Y189647D01*
X403415Y189557D01*
X403280Y189422D01*
X403115Y189257D01*
X403100Y189242D01*
X403040Y189182D01*
X402950Y189092D01*
X402845Y189002D01*
X402740Y188897D01*
X402635Y188807D01*
X402545Y188732D01*
X402485Y188687D01*
X402470D01*
X402440Y188672D01*
X402395D01*
X402350Y188657D01*
X402200D01*
X402035Y188687D01*
X402005Y188702D01*
X401975Y188747D01*
X401915Y188807D01*
X401810Y188897D01*
X401675Y189017D01*
X401510Y189182D01*
X401285Y189407D01*
X401255Y189437D01*
X401195Y189497D01*
X401105Y189587D01*
X400985Y189707D01*
X400880Y189827D01*
X400775Y189932D01*
X400685Y190037D01*
X400640Y190097D01*
X400625Y190112D01*
X400595Y190172D01*
X400565Y190262D01*
X400535Y190367D01*
Y190397D01*
Y190457D01*
X400550Y190532D01*
X400580Y190622D01*
X400595Y190652D01*
X400625Y190682D01*
X400655Y190727D01*
X400730Y190817D01*
X400820Y190922D01*
X400955Y191057D01*
X401135Y191237D01*
X401645Y191762D01*
Y191777D01*
X401630Y191807D01*
X401600Y191867D01*
X401525Y191972D01*
Y191987D01*
X401495Y192017D01*
X401465Y192077D01*
X401420Y192152D01*
X401375Y192257D01*
X401315Y192377D01*
X401240Y192497D01*
X401165Y192647D01*
X401015Y192992D01*
X400880Y193367D01*
X400730Y193772D01*
X400625Y194207D01*
X400595Y194372D01*
X399845Y194387D01*
X399110D01*
X399020Y194447D01*
X399005D01*
X398975Y194462D01*
X398885Y194507D01*
X398780Y194597D01*
X398690Y194732D01*
X398630Y194837D01*
Y195812D01*
Y195827D01*
Y195857D01*
Y195902D01*
Y195962D01*
Y196112D01*
Y196292D01*
X398645Y196472D01*
Y196637D01*
X398660Y196712D01*
Y196772D01*
X398675Y196802D01*
Y196832D01*
Y196847D01*
X398690Y196862D01*
X398750Y196952D01*
X398840Y197057D01*
X398990Y197147D01*
X399095Y197192D01*
X399845Y197207D01*
X400580D01*
X400625Y197387D01*
Y197402D01*
X400640Y197447D01*
X400655Y197507D01*
X400670Y197597D01*
X400700Y197702D01*
X400745Y197822D01*
X400790Y197972D01*
X400835Y198122D01*
X400955Y198467D01*
X401120Y198842D01*
X401315Y199247D01*
X401540Y199637D01*
X401645Y199802D01*
X401135Y200357D01*
X401120Y200372D01*
X401060Y200432D01*
X400970Y200522D01*
X400880Y200627D01*
X400775Y200732D01*
X400685Y200822D01*
X400610Y200912D01*
X400580Y200972D01*
Y200987D01*
X400565Y201047D01*
X400550Y201122D01*
X400535Y201227D01*
Y201242D01*
Y201257D01*
X400565Y201317D01*
X400595Y201407D01*
X400640Y201497D01*
X400655Y201527D01*
X400700Y201572D01*
X400745Y201632D01*
X400820Y201722D01*
X400940Y201842D01*
X401090Y201992D01*
X401270Y202187D01*
X401300Y202217D01*
X401360Y202277D01*
X401450Y202367D01*
X401555Y202472D01*
X401675Y202577D01*
X401780Y202682D01*
X401885Y202772D01*
X401945Y202817D01*
X401975Y202832D01*
X402035Y202877D01*
X402140Y202907D01*
X402260Y202922D01*
X402290D01*
X402380Y202907D01*
X402470Y202892D01*
X402560Y202847D01*
X402590Y202832D01*
X402620Y202802D01*
X402665Y202757D01*
X402740Y202697D01*
X402845Y202607D01*
X402965Y202487D01*
X403115Y202337D01*
X403130Y202322D01*
X403190Y202262D01*
X403280Y202172D01*
X403370Y202082D01*
X403475Y201992D01*
X403565Y201902D01*
X403625Y201842D01*
X403655Y201827D01*
X403670Y201842D01*
X403700Y201857D01*
X403760Y201887D01*
X403835Y201917D01*
X403850Y201932D01*
X403880Y201947D01*
X403940Y201977D01*
X404015Y202022D01*
X404120Y202082D01*
X404225Y202142D01*
X404360Y202202D01*
X404510Y202277D01*
X404840Y202442D01*
X405215Y202592D01*
X405635Y202727D01*
X406070Y202847D01*
X406265Y202877D01*
Y203642D01*
Y204392D01*
X406325Y204482D01*
Y204497D01*
X406340Y204512D01*
X406385Y204587D01*
X406490Y204692D01*
X406625Y204782D01*
X406715Y204827D01*
X407615Y204842D01*
X408275D01*
X408440Y204827D01*
D02*
G37*
G36*
X407870Y198062D02*
X407885D01*
X407915Y198047D01*
X408020Y198002D01*
X408065Y197957D01*
X408110Y197897D01*
X408140Y197807D01*
X408155Y197717D01*
Y197702D01*
Y197687D01*
X408140Y197612D01*
X408080Y197507D01*
X408050Y197462D01*
X407990Y197417D01*
X407960Y197402D01*
X407885Y197372D01*
X407795Y197357D01*
X407735Y197372D01*
X407675Y197387D01*
X407660D01*
X407645Y197402D01*
X407570Y197477D01*
X407480Y197582D01*
X407465Y197642D01*
X407450Y197732D01*
Y197762D01*
X407465Y197792D01*
X407495Y197867D01*
Y197882D01*
X407510Y197912D01*
X407585Y197987D01*
X407630Y198032D01*
X407705Y198062D01*
X407780Y198077D01*
X407870Y198062D01*
D02*
G37*
G36*
X409415Y195827D02*
X409520Y195752D01*
X409535Y195737D01*
X409550Y195722D01*
X409610Y195632D01*
X409625Y195557D01*
X409640Y195497D01*
X409625Y195422D01*
X409595Y195332D01*
Y195317D01*
X409580Y195302D01*
X409505Y195227D01*
X409385Y195152D01*
X409295Y195137D01*
X409205D01*
X409190Y195152D01*
X409130Y195182D01*
X409055Y195227D01*
X408980Y195302D01*
Y195317D01*
X408965Y195347D01*
X408950Y195392D01*
X408935Y195482D01*
Y195512D01*
Y195557D01*
X408950Y195632D01*
X408980Y195677D01*
X408995Y195692D01*
X409025Y195722D01*
X409070Y195767D01*
X409145Y195812D01*
X409220Y195842D01*
X409310D01*
X409415Y195827D01*
D02*
G37*
M02*
