G04 Layer_Physical_Order=2*
G04 Layer_Color=11436288*
%FSLAX25Y25*%
%MOIN*%
G70*
G01*
G75*
%ADD19C,0.01200*%
%ADD20C,0.00800*%
%ADD21C,0.00700*%
%ADD24R,0.07000X0.11299*%
%ADD25C,0.07000*%
%ADD26C,0.02500*%
%ADD27C,0.05000*%
G36*
X416740Y156618D02*
X404612D01*
X400597Y160633D01*
X400201Y160898D01*
X399732Y160991D01*
X393625D01*
X391621Y162995D01*
X391224Y163260D01*
X390756Y163353D01*
X384683D01*
X384609Y163464D01*
X383997Y163873D01*
X383276Y164016D01*
X382554Y163873D01*
X381942Y163464D01*
X381533Y162852D01*
X381389Y162130D01*
X381533Y161408D01*
X381942Y160796D01*
X382554Y160387D01*
X383276Y160244D01*
X383997Y160387D01*
X384609Y160796D01*
X384683Y160906D01*
X390249D01*
X392253Y158903D01*
X392491Y158744D01*
X392650Y158637D01*
X393118Y158544D01*
X399225D01*
X400690Y157080D01*
X400498Y156618D01*
X361228D01*
Y205043D01*
X416740D01*
Y156618D01*
D02*
G37*
%LPC*%
G36*
X410728Y182929D02*
X409034D01*
X409109Y182551D01*
X409606Y181807D01*
X410350Y181310D01*
X410728Y181235D01*
Y182929D01*
D02*
G37*
G36*
X403500Y177277D02*
Y175583D01*
X405195D01*
X405120Y175961D01*
X404622Y176705D01*
X403878Y177202D01*
X403500Y177277D01*
D02*
G37*
G36*
X388000Y176695D02*
Y175000D01*
X389695D01*
X389619Y175378D01*
X389122Y176122D01*
X388378Y176620D01*
X388000Y176695D01*
D02*
G37*
G36*
X413423Y182929D02*
X411728D01*
Y181235D01*
X412106Y181310D01*
X412851Y181807D01*
X413348Y182551D01*
X413423Y182929D01*
D02*
G37*
G36*
X410728Y185624D02*
X410350Y185549D01*
X409606Y185051D01*
X409109Y184307D01*
X409034Y183929D01*
X410728D01*
Y185624D01*
D02*
G37*
G36*
X396695Y184000D02*
X395000D01*
Y182305D01*
X395378Y182380D01*
X396122Y182878D01*
X396620Y183622D01*
X396695Y184000D01*
D02*
G37*
G36*
X394000D02*
X392305D01*
X392380Y183622D01*
X392878Y182878D01*
X393622Y182380D01*
X394000Y182305D01*
Y184000D01*
D02*
G37*
G36*
X389695Y174000D02*
X388000D01*
Y172305D01*
X388378Y172380D01*
X389122Y172878D01*
X389619Y173622D01*
X389695Y174000D01*
D02*
G37*
G36*
X387000D02*
X385305D01*
X385381Y173622D01*
X385878Y172878D01*
X386622Y172380D01*
X387000Y172305D01*
Y174000D01*
D02*
G37*
G36*
X373587Y191815D02*
X372865Y191672D01*
X372253Y191263D01*
X371844Y190651D01*
X371700Y189929D01*
X371844Y189207D01*
X372253Y188595D01*
X372567Y188385D01*
Y185560D01*
X372493Y185511D01*
X372084Y184899D01*
X371940Y184177D01*
X372084Y183455D01*
X372493Y182843D01*
X372603Y182770D01*
Y167081D01*
X372493Y167007D01*
X372084Y166395D01*
X371940Y165673D01*
X372084Y164951D01*
X372493Y164339D01*
X373105Y163931D01*
X373827Y163787D01*
X374549Y163931D01*
X375161Y164339D01*
X375569Y164951D01*
X375713Y165673D01*
X375569Y166395D01*
X375161Y167007D01*
X375050Y167081D01*
Y182770D01*
X375161Y182843D01*
X375569Y183455D01*
X375713Y184177D01*
X375569Y184899D01*
X375161Y185511D01*
X374606Y185881D01*
Y188385D01*
X374920Y188595D01*
X375329Y189207D01*
X375473Y189929D01*
X375329Y190651D01*
X374920Y191263D01*
X374308Y191672D01*
X373587Y191815D01*
D02*
G37*
G36*
X378945Y186063D02*
X378223Y185920D01*
X377611Y185511D01*
X377202Y184899D01*
X377059Y184177D01*
X377202Y183455D01*
X377611Y182843D01*
X378223Y182434D01*
X378945Y182291D01*
X379376Y182377D01*
X380732Y181020D01*
Y175912D01*
X380367Y175668D01*
X379958Y175057D01*
X379815Y174335D01*
X379958Y173613D01*
X380367Y173001D01*
X380979Y172592D01*
X381701Y172448D01*
X382423Y172592D01*
X383035Y173001D01*
X383443Y173613D01*
X383587Y174335D01*
X383443Y175057D01*
X383035Y175668D01*
X382669Y175912D01*
Y181421D01*
X382596Y181792D01*
X382386Y182106D01*
X380745Y183746D01*
X380831Y184177D01*
X380687Y184899D01*
X380279Y185511D01*
X379667Y185920D01*
X378945Y186063D01*
D02*
G37*
G36*
X387000Y176695D02*
X386622Y176620D01*
X385878Y176122D01*
X385381Y175378D01*
X385305Y175000D01*
X387000D01*
Y176695D01*
D02*
G37*
G36*
X405195Y174583D02*
X403500D01*
Y172888D01*
X403878Y172963D01*
X404622Y173460D01*
X405120Y174205D01*
X405195Y174583D01*
D02*
G37*
G36*
X399417Y188032D02*
X398695Y187888D01*
X398084Y187479D01*
X397675Y186867D01*
X397531Y186146D01*
X397675Y185424D01*
X398084Y184812D01*
X398449Y184568D01*
Y170799D01*
X394730Y167080D01*
X394299Y167166D01*
X393577Y167022D01*
X392965Y166613D01*
X392557Y166001D01*
X392413Y165279D01*
X392557Y164558D01*
X392965Y163946D01*
X393577Y163537D01*
X394299Y163393D01*
X395021Y163537D01*
X395633Y163946D01*
X396042Y164558D01*
X396185Y165279D01*
X396100Y165710D01*
X400102Y169713D01*
X400312Y170027D01*
X400386Y170398D01*
Y174128D01*
X400880Y174205D01*
X401378Y173460D01*
X402122Y172963D01*
X402500Y172888D01*
Y175083D01*
Y177277D01*
X402122Y177202D01*
X401378Y176705D01*
X400880Y175961D01*
X400386Y176037D01*
Y184568D01*
X400751Y184812D01*
X401160Y185424D01*
X401304Y186146D01*
X401160Y186867D01*
X400751Y187479D01*
X400139Y187888D01*
X399417Y188032D01*
D02*
G37*
G36*
X395695Y197000D02*
X394000D01*
Y195305D01*
X394378Y195380D01*
X395122Y195878D01*
X395620Y196622D01*
X395695Y197000D01*
D02*
G37*
G36*
X393000D02*
X391305D01*
X391381Y196622D01*
X391878Y195878D01*
X392622Y195380D01*
X393000Y195305D01*
Y197000D01*
D02*
G37*
G36*
X388000Y196195D02*
Y194500D01*
X389695D01*
X389619Y194878D01*
X389122Y195622D01*
X388378Y196119D01*
X388000Y196195D01*
D02*
G37*
G36*
X378343Y198852D02*
X377965Y198777D01*
X377220Y198280D01*
X376723Y197535D01*
X376648Y197158D01*
X378343D01*
Y198852D01*
D02*
G37*
G36*
X394000Y199695D02*
Y198000D01*
X395695D01*
X395620Y198378D01*
X395122Y199122D01*
X394378Y199619D01*
X394000Y199695D01*
D02*
G37*
G36*
X393000D02*
X392622Y199619D01*
X391878Y199122D01*
X391381Y198378D01*
X391305Y198000D01*
X393000D01*
Y199695D01*
D02*
G37*
G36*
X379343Y198852D02*
Y197158D01*
X381037D01*
X380962Y197535D01*
X380465Y198280D01*
X379720Y198777D01*
X379343Y198852D01*
D02*
G37*
G36*
X387000Y196195D02*
X386622Y196119D01*
X385878Y195622D01*
X385381Y194878D01*
X385305Y194500D01*
X387000D01*
Y196195D01*
D02*
G37*
G36*
X395000Y186695D02*
Y185000D01*
X396695D01*
X396620Y185378D01*
X396122Y186122D01*
X395378Y186619D01*
X395000Y186695D01*
D02*
G37*
G36*
X394000D02*
X393622Y186619D01*
X392878Y186122D01*
X392380Y185378D01*
X392305Y185000D01*
X394000D01*
Y186695D01*
D02*
G37*
G36*
X411728Y185624D02*
Y183929D01*
X413423D01*
X413348Y184307D01*
X412851Y185051D01*
X412106Y185549D01*
X411728Y185624D01*
D02*
G37*
G36*
X387000Y193500D02*
X385305D01*
X385381Y193122D01*
X385878Y192378D01*
X386622Y191881D01*
X387000Y191805D01*
Y193500D01*
D02*
G37*
G36*
X381037Y196158D02*
X379343D01*
Y194463D01*
X379720Y194538D01*
X380465Y195035D01*
X380962Y195780D01*
X381037Y196158D01*
D02*
G37*
G36*
X378343D02*
X376648D01*
X376723Y195780D01*
X377220Y195035D01*
X377965Y194538D01*
X378343Y194463D01*
Y196158D01*
D02*
G37*
G36*
X389695Y193500D02*
X388000D01*
Y191805D01*
X388378Y191881D01*
X389122Y192378D01*
X389619Y193122D01*
X389695Y193500D01*
D02*
G37*
%LPD*%
D19*
X399732Y159768D02*
X408000Y151500D01*
X393118Y159768D02*
X399732D01*
X390756Y162130D02*
X393118Y159768D01*
X383276Y162130D02*
X390756D01*
X373827Y165673D02*
Y184177D01*
D20*
X373587Y184417D02*
Y189929D01*
D21*
X381701Y174335D02*
Y181421D01*
X378945Y184177D02*
X381701Y181421D01*
X399417Y170398D02*
Y186146D01*
X394299Y165279D02*
X399417Y170398D01*
D24*
X368000Y146150D02*
D03*
X378000D02*
D03*
X388000D02*
D03*
X398000D02*
D03*
X408000D02*
D03*
D25*
X368000Y151500D02*
D03*
X378000D02*
D03*
X388000D02*
D03*
X398000D02*
D03*
X408000D02*
D03*
D26*
X383276Y162130D02*
D03*
X373827Y165673D02*
D03*
X381701Y174335D02*
D03*
X378945Y184177D02*
D03*
X373827D02*
D03*
X373587Y189929D02*
D03*
X394299Y165279D02*
D03*
X399417Y186146D02*
D03*
X403000Y175083D02*
D03*
X411228Y183429D02*
D03*
X393500Y197500D02*
D03*
X387500Y174500D02*
D03*
X394500Y184500D02*
D03*
X387500Y194000D02*
D03*
X378842Y196658D02*
D03*
D27*
X378000Y151500D02*
Y157248D01*
M02*
