M48
;Layer_Color=6321
;FILE_FORMAT=2:5
INCH,LZ
;TYPE=PLATED
T1F00S00C0.01200
T4F00S00C0.03543
T5F00S00C0.03937
T6F00S00C0.04000
%
T01
X02625Y0148658
X0261Y0151657
X0273Y0150657
X0272Y0154657
X04275Y0147
X0474Y0262
X0477Y0292
X04555Y02775
X0444Y02815
X04328Y02749
X04325Y02905
X043775Y030025
X04445Y03095
X04153Y02727
X0409Y02755
Y02505
X04045Y0251
X03955Y0249
Y0241
X0391695
X03926Y02268
X03959Y0229
X0404995Y0223995
X0403015Y0222015
X04225Y02243
X04331Y02241
X0439Y02355
X0443793Y0234207
X04565Y02345
X04545Y02305
X04551Y02238
X04632Y0225
X04624Y02285
X045Y0243
X04155Y024
X04278Y01968
X0421Y01835
X04174Y01834
Y01758
X0421Y01766
X04245Y01785
X04295Y01735
Y01695
X04335
Y01735
X04356Y01823
X0443Y0171
X04385Y01635
X04345Y01615
X04255Y01625
X0425Y01575
X0443Y0159
X0456504Y0160504
X04535Y01725
X0447039Y0190961
X0406496Y0160504
X0350339Y0183519
X0334339
Y0199519
X03228Y02026
X032
X03172
X032251Y020791
X032449Y020989
X032647Y021187
X032833Y021397
X033043Y021583
X0336Y02185
X0344Y02195
X0353Y02225
X0355839Y0210319
X036418Y021352
X036616Y021154
X03683Y02076
X03706Y02053
X03631Y02166
X03679Y02236
X0368Y02279
X03592Y02618
X03555Y02628
X0329Y0259
X03245
X0324Y02665
X0316Y027
X0331Y02715
Y02747
Y02558
X0343405Y0294095
X0319Y02985
X0373405Y0294095
X0350339Y0199519
X0342339Y0191519
X03079Y02051
X0278Y02009
X02689Y02098
X0253Y02081
X0252937Y0196337
X02689Y0171358
X0275Y0164657
X02435Y02387
X0241Y0249
X0221Y02555
X02235Y0259
X0227Y02675
X02275Y0272
X0224Y0275
X02215Y0286
X0237Y0287
X0242
X0247
Y0282
X0242
X0237
Y0292
X0242
X0247
X0266Y02875
X02651Y03061
X0295Y0297
X02973Y02854
X02969Y0281
X03025Y02825
X0266Y0264
X023Y0265
X0205Y0259
Y02545
X02068Y02488
X01955Y0241
X01935Y02215
X0183039Y0226539
X01775Y02215
X0181Y0216
X01765Y0253
X0177Y02565
X0184Y0261
X01985Y0267
X02005Y02745
X0205Y0272
X01925Y02735
X01965Y0278
X01995Y0281
X01985Y02865
X0204Y02885
X02035Y0298
X02065Y0303
X0194Y02895
X01655Y02795
X0162Y02565
X01545
X0148Y02555
Y02515
X0154219Y0235425
X0207Y03205
X02675Y0314
X02872Y03188
X042Y0313
X04335Y03215
X04405Y0321
T04
X03872Y015243
Y0162272
Y0172115
Y0181957
Y0192
T05
X04785Y0207
Y0217
Y0227
Y0237
Y0247
T06
X0311339Y0148019
X0318839Y0228019
X0328839
X0338839
X0348839
X0308839
X0311339Y0188019
Y0178019
Y0168019
Y0158019
M30
