M48
;Layer_Color=6321
;FILE_FORMAT=2:5
INCH,LZ
;TYPE=PLATED
T1F00S00C0.01200
T2F00S00C0.04000
%
T01
X0373827Y0165673
X0383276Y016213
X0381701Y0174335
X03875Y01745
X0394299Y0165279
X0403Y0175083
X0399417Y0186146
X03945Y01845
X03935Y01975
X03875Y0194
X0378842Y0196658
X0373587Y0189929
X0373827Y0184177
X0378945
X0411228Y0183429
T02
X0368Y01515
X0378
X0388
X0398
X0408
M30
