M48
;Layer_Color=6321
;FILE_FORMAT=2:5
INCH,LZ
;TYPE=PLATED
T1F00S00C0.01200
T4F00S00C0.03200
T5F00S00C0.04000
T6F00S00C0.05512
T7F00S00C0.06000
T8F00S00C0.07205
%
T01
X0136Y04005
X0167Y04035
X0176Y04045
Y04205
X0198Y04045
X01975Y03965
X02015Y0395929
X02045
X0207429Y03925
X0207374Y0389126
X0207429Y0386
X0214Y0385
X0223Y0382
X02305Y03765
X0232Y0399
X0227Y04045
X02245
X0215Y0397
X02075Y0411
X02115Y03645
X02415Y0360842
X0253144Y0342144
X0272043Y03425
X02685Y03525
X0268118Y0367118
X02975Y03635
X0331Y03725
X0339835Y03815
X0344165
X0353
X0357499Y0383799
X03565Y0391
X03525Y03937
X03505Y04
X0354499Y0405001
X03665Y04065
X03713Y03955
X0370377Y0391176
X0367622Y0391177
X0367621Y0388421
X0370377Y038842
X0371Y03845
X0367
X0376999Y0385299
X0376983Y0388815
X0378999Y0391799
X0376657Y0394799
X0396835Y04055
X0352232Y0371
X0336Y0386287
X0328Y0391
T04
X01465Y04155
X01545
X01625
X03365Y0417
X03445
X03525
T05
X0281Y03835
X0291
X0301
X0311
X0321
T06
X0212315Y04195
X0232
X0252315
X0272
X0292315
X0312
T07
X01383Y04155
X01707
X03283Y0417
X03607
T08
X0149882Y03385
X0179882Y03285
Y03485
X0361882
Y03285
X0391882Y03385
M30
