M48
;Layer_Color=6321
;FILE_FORMAT=2:5
INCH,LZ
;TYPE=PLATED
T1F00S00C0.01400
T2F00S00C0.07283
T3F00S00C0.12598
;TYPE=NON_PLATED
T4F00S00C0.43307
%
T01
X0953858Y0202398
X0959961Y02
X0966063Y0202398
X0968461Y02085
X0966063Y0214602
X0959961Y0217
X0953858Y0214602
X0951461Y02085
X0830181
X0827783Y0214602
X0821681Y0217
X0815579Y0214602
X0813181Y02085
X0815579Y0202398
X0821681Y02
X0827783Y0202398
X0793563
X0795961Y02085
X0793563Y0214602
X0787461Y0217
X0781358Y0214602
Y0202398
X0787461Y02
X0778961Y02085
X0657681
X0655283Y0214602
X0649181Y0217
X0643079Y0214602
X0640681Y02085
X0643079Y0202398
X0649181Y02
X0655283Y0202398
T02
X0984756Y0241158
Y0260842
X1014244
Y0241158
X0624244
Y0260842
X0594756
X0578744
Y0241158
X0594756
X0549256
X0533744
Y0260842
X0549256
X0504256
Y0241158
T03
X095989Y02085
X082161
X078739
X064911
T04
X0891Y024
X07185
M30
